<?xml version="1.0" encoding="UTF-8" standalone="no"?>
<!DOCTYPE svg PUBLIC "-//W3C//DTD SVG 1.1//EN" "http://www.w3.org/Graphics/SVG/1.1/DTD/svg11.dtd">
<svg xmlns="http://www.w3.org/2000/svg" version="1.1" xmlns:dc="http://purl.org/dc/elements/1.1/" xmlns:xl="http://www.w3.org/1999/xlink" viewBox="5174.0306 12221.5 965.4694 804.8435" width="965.4694" height="804.8435">
  <defs>
    <marker orient="auto" overflow="visible" markerUnits="strokeWidth" id="UMLInheritance_Marker" stroke-linejoin="miter" stroke-miterlimit="10" viewBox="-1 -4 7 8" markerWidth="7" markerHeight="8" color="black">
      <g>
        <path d="M 4.8 0 L 0 -2.8 L 0 2.8 Z" fill="none" stroke="currentColor" stroke-width="1"/>
      </g>
    </marker>
    <marker orient="auto" overflow="visible" markerUnits="strokeWidth" id="FilledArrow_Marker" stroke-linejoin="miter" stroke-miterlimit="10" viewBox="-1 -4 8 8" markerWidth="8" markerHeight="8" color="#0076bc">
      <g>
        <path d="M 5.7599985 0 L 0 -2.1599994 L 0 2.1599994 Z" fill="currentColor" stroke="currentColor" stroke-width="1"/>
      </g>
    </marker>
  </defs>
  <metadata> Produced by OmniGraffle 7.20\n2022-09-22 16:07:31 +0000</metadata>
  <g id="Canvas_1" fill-opacity="1" stroke-opacity="1" stroke="none" stroke-dasharray="none" fill="none">
    <title>Canvas 1</title>
    <g id="Canvas_1_main">
      <title>main</title>
      <g id="Graphic_8254">
        <path d="M 5174.538 12258.785 C 5174.538 12258.785 5265.336 12231.621 5318.041 12229.643 C 5370.7455 12227.665 5491.5524 12225.844 5605.772 12255.662 C 5719.991 12285.481 5803.392 12240.602 5914.3996 12225.48 C 6025.407 12210.358 6139 12249.418 6139 12249.418 L 6139 12995.056 C 6139 12995.056 6047.182 12951.504 6005.22 12975.88 C 5963.257 13000.256 5945.66 13015.868 5865.373 12995.655 C 5785.0856 12975.442 5746.8455 12959.721 5650.78 12966.513 C 5554.7146 12973.306 5575.527 12976.154 5490.84 12995.655 C 5406.1537 13015.156 5403.522 13025.243 5287.4995 13025.838 C 5171.477 13026.432 5174.538 12981.318 5174.538 12981.318 Z" fill="#dae5ff"/>
        <path d="M 5174.538 12258.785 C 5174.538 12258.785 5265.336 12231.621 5318.041 12229.643 C 5370.7455 12227.665 5491.5524 12225.844 5605.772 12255.662 C 5719.991 12285.481 5803.392 12240.602 5914.3996 12225.48 C 6025.407 12210.358 6139 12249.418 6139 12249.418 L 6139 12995.056 C 6139 12995.056 6047.182 12951.504 6005.22 12975.88 C 5963.257 13000.256 5945.66 13015.868 5865.373 12995.655 C 5785.0856 12975.442 5746.8455 12959.721 5650.78 12966.513 C 5554.7146 12973.306 5575.527 12976.154 5490.84 12995.655 C 5406.1537 13015.156 5403.522 13025.243 5287.4995 13025.838 C 5171.477 13026.432 5174.538 12981.318 5174.538 12981.318 Z" stroke="black" stroke-linecap="round" stroke-linejoin="round" stroke-width="1"/>
      </g>
      <g id="Line_8157">
        <line x1="5540.326" y1="12351.595" x2="5245.852" y2="12351.595" marker-end="url(#UMLInheritance_Marker)" stroke="black" stroke-linecap="round" stroke-linejoin="round" stroke-width="4"/>
      </g>
      <g id="Graphic_8156">
        <path d="M 5254.25 12485 L 5281.5 12498 L 5254.25 12511 L 5227 12498 Z" fill="#ccc"/>
        <path d="M 5254.25 12485 L 5281.5 12498 L 5254.25 12511 L 5227 12498 Z" stroke="black" stroke-linecap="round" stroke-linejoin="round" stroke-width="1"/>
        <text transform="translate(5239.3575 12490.572)" fill="black">
          <tspan font-family="Helvetica Neue" font-size="12" fill="black" x="1.5475" y="11">Hash</tspan>
        </text>
      </g>
      <g id="Line_8155">
        <line x1="5203.735" y1="12647.802" x2="5493.526" y2="12647.802" marker-end="url(#UMLInheritance_Marker)" stroke="black" stroke-linecap="round" stroke-linejoin="round" stroke-width="4"/>
      </g>
      <g id="Graphic_8154">
        <path d="M 6069.4 12848.873 L 6069.4 12782.473 C 6069.4 12777.892 6081.496 12774.173 6096.4 12774.173 C 6111.304 12774.173 6123.4 12777.892 6123.4 12782.473 L 6123.4 12848.873 C 6123.4 12853.455 6111.304 12857.173 6096.4 12857.173 C 6081.496 12857.173 6069.4 12853.455 6069.4 12848.873" fill="#ccc"/>
        <path d="M 6069.4 12848.873 L 6069.4 12782.473 C 6069.4 12777.892 6081.496 12774.173 6096.4 12774.173 C 6111.304 12774.173 6123.4 12777.892 6123.4 12782.473 L 6123.4 12848.873 C 6123.4 12853.455 6111.304 12857.173 6096.4 12857.173 C 6081.496 12857.173 6069.4 12853.455 6069.4 12848.873 M 6069.4 12782.473 C 6069.4 12787.055 6081.496 12790.773 6096.4 12790.773 C 6111.304 12790.773 6123.4 12787.055 6123.4 12782.473" stroke="black" stroke-linecap="round" stroke-linejoin="round" stroke-width="1"/>
        <text transform="translate(6074.4 12810.323)" fill="black">
          <tspan font-family="Helvetica" font-weight="bold" font-size="16" fill="black" x="10.445312" y="15">DB</tspan>
        </text>
      </g>
      <g id="Line_8153">
        <line x1="5840.079" y1="12815.173" x2="6046.025" y2="12815.173" marker-end="url(#UMLInheritance_Marker)" stroke="black" stroke-linecap="round" stroke-linejoin="round" stroke-width="4"/>
      </g>
      <g id="Line_8152">
        <line x1="5540.326" y1="12726.844" x2="5786.392" y2="12726.844" marker-end="url(#UMLInheritance_Marker)" stroke="black" stroke-linecap="round" stroke-linejoin="round" stroke-width="4"/>
      </g>
      <g id="Graphic_7584">
        <path d="M 5547.226 12333.867 L 5547.226 12533.867 C 5547.226 12536.628 5544.988 12538.867 5542.226 12538.867 L 5522.226 12538.867 C 5519.465 12538.867 5517.226 12536.628 5517.226 12533.867 L 5517.226 12333.867 C 5517.226 12331.106 5519.465 12328.867 5522.226 12328.867 L 5542.226 12328.867 C 5544.988 12328.867 5547.226 12331.106 5547.226 12333.867 Z" fill="#b6cdff"/>
        <path d="M 5547.226 12333.867 L 5547.226 12533.867 C 5547.226 12536.628 5544.988 12538.867 5542.226 12538.867 L 5522.226 12538.867 C 5519.465 12538.867 5517.226 12536.628 5517.226 12533.867 L 5517.226 12333.867 C 5517.226 12331.106 5519.465 12328.867 5522.226 12328.867 L 5542.226 12328.867 C 5544.988 12328.867 5547.226 12331.106 5547.226 12333.867 Z" stroke="black" stroke-linecap="round" stroke-linejoin="round" stroke-width="1"/>
        <text transform="translate(5541.726 12333.867) rotate(90)" fill="black">
          <tspan font-family="Helvetica" font-weight="bold" font-size="16" fill="black" x="46.339844" y="15">Token Service</tspan>
        </text>
      </g>
      <g id="Group_7581">
        <g id="Graphic_7583">
          <rect x="5286.0994" y="12340.802" width="180" height="256.68333" fill="#ccc"/>
          <rect x="5286.0994" y="12340.802" width="180" height="256.68333" stroke="black" stroke-linecap="round" stroke-linejoin="round" stroke-width="1"/>
        </g>
        <g id="Graphic_7582">
          <path d="M 5286.0994 12340.802 L 5353.2714 12340.802 L 5353.2714 12350.143 L 5347.674 12359.485 L 5286.0994 12359.485 Z" fill="#ccc"/>
          <path d="M 5286.0994 12340.802 L 5353.2714 12340.802 L 5353.2714 12350.143 L 5347.674 12359.485 L 5286.0994 12359.485 Z" stroke="black" stroke-linecap="round" stroke-linejoin="round" stroke-width="1"/>
          <text transform="translate(5291.0994 12343.143)" fill="black">
            <tspan font-family="Helvetica" font-size="12" fill="black" x="0" y="11">response</tspan>
          </text>
        </g>
      </g>
      <g id="Group_7573">
        <g id="Graphic_7580">
          <title>Attributes</title>
          <rect x="5303.5994" y="12395.802" width="50" height="30" fill="#b6cdff"/>
          <rect x="5303.5994" y="12395.802" width="50" height="30" stroke="black" stroke-linecap="round" stroke-linejoin="round" stroke-width="1"/>
          <text transform="translate(5309.5994 12401.802)" fill="black">
            <tspan font-family="Avenir" font-size="13" fill="black" x="0" y="13">iss</tspan>
          </text>
        </g>
        <g id="Graphic_7579">
          <title>Class Name</title>
          <rect x="5303.5994" y="12369.802" width="145" height="26" fill="#b6cdff"/>
          <rect x="5303.5994" y="12369.802" width="145" height="26" stroke="black" stroke-linecap="round" stroke-linejoin="round" stroke-width="1"/>
          <text transform="translate(5309.5994 12373.802)" fill="black">
            <tspan font-family="Avenir" font-weight="bold" font-size="13" fill="black" x="20.506" y="13">Subject Record</tspan>
          </text>
        </g>
        <g id="Graphic_7578">
          <title>Attributes</title>
          <rect x="5354.0096" y="12395.802" width="94.58984" height="30" fill="#b6cdff"/>
          <rect x="5354.0096" y="12395.802" width="94.58984" height="30" stroke="black" stroke-linecap="round" stroke-linejoin="round" stroke-width="1"/>
          <text transform="translate(5360.0096 12401.802)" fill="black">
            <tspan font-family="Avenir" font-size="13" fill="black" x="0" y="13">op.example</tspan>
          </text>
        </g>
        <g id="Graphic_7577">
          <title>Attributes</title>
          <rect x="5303.5994" y="12425.802" width="50" height="30" fill="#b6cdff"/>
          <rect x="5303.5994" y="12425.802" width="50" height="30" stroke="black" stroke-linecap="round" stroke-linejoin="round" stroke-width="1"/>
          <text transform="translate(5309.5994 12431.802)" fill="black">
            <tspan font-family="Avenir" font-size="13" fill="black" x="0" y="13">sub</tspan>
          </text>
        </g>
        <g id="Graphic_7576">
          <title>Attributes</title>
          <rect x="5354.0096" y="12425.802" width="94.58984" height="30" fill="#b6cdff"/>
          <rect x="5354.0096" y="12425.802" width="94.58984" height="30" stroke="black" stroke-linecap="round" stroke-linejoin="round" stroke-width="1"/>
          <text transform="translate(5360.0096 12431.802)" fill="black">
            <tspan font-family="Avenir" font-size="13" fill="black" x="0" y="13">OP-123456</tspan>
          </text>
        </g>
        <g id="Graphic_7575">
          <title>Attributes</title>
          <rect x="5303.5994" y="12455.802" width="50" height="30" fill="#b6cdff"/>
          <rect x="5303.5994" y="12455.802" width="50" height="30" stroke="black" stroke-linecap="round" stroke-linejoin="round" stroke-width="1"/>
          <text transform="translate(5309.5994 12461.802)" fill="black">
            <tspan font-family="Avenir" font-size="13" fill="black" x="0" y="13">id</tspan>
          </text>
        </g>
        <g id="Graphic_7574">
          <title>Attributes</title>
          <rect x="5354.0096" y="12455.802" width="94.58984" height="30" fill="#b6cdff"/>
          <rect x="5354.0096" y="12455.802" width="94.58984" height="30" stroke="black" stroke-linecap="round" stroke-linejoin="round" stroke-width="1"/>
          <text transform="translate(5360.0096 12461.802)" fill="black">
            <tspan font-family="Avenir" font-size="13" fill="black" x="0" y="13">ABCD-0123</tspan>
          </text>
        </g>
      </g>
      <g id="Group_7567">
        <g id="Graphic_7572">
          <title>Attributes</title>
          <rect x="5303.5994" y="12553.214" width="50" height="30" fill="#b6cdff"/>
          <rect x="5303.5994" y="12553.214" width="50" height="30" stroke="black" stroke-linecap="round" stroke-linejoin="round" stroke-width="1"/>
          <text transform="translate(5309.5994 12559.214)" fill="black">
            <tspan font-family="Avenir" font-size="13" fill="black" x="0" y="13">hash</tspan>
          </text>
        </g>
        <g id="Graphic_7571">
          <title>Class Name</title>
          <rect x="5303.5994" y="12497.214" width="145" height="26" fill="#b6cdff"/>
          <rect x="5303.5994" y="12497.214" width="145" height="26" stroke="black" stroke-linecap="round" stroke-linejoin="round" stroke-width="1"/>
          <text transform="translate(5309.5994 12501.214)" fill="black">
            <tspan font-family="Avenir" font-weight="bold" font-size="13" fill="black" x="26.187" y="13">Access Token</tspan>
          </text>
        </g>
        <g id="Graphic_7570">
          <title>Attributes</title>
          <rect x="5353.5096" y="12553.214" width="95.08984" height="30" fill="#b6cdff"/>
          <rect x="5353.5096" y="12553.214" width="95.08984" height="30" stroke="black" stroke-linecap="round" stroke-linejoin="round" stroke-width="1"/>
          <text transform="translate(5359.5096 12559.214)" fill="black">
            <tspan font-family="Avenir" font-size="13" fill="black" x="0" y="13">dnA1NjRiYjZj</tspan>
          </text>
        </g>
        <g id="Graphic_7569">
          <title>Attributes</title>
          <rect x="5303.5994" y="12523.214" width="50" height="30" fill="#b6cdff"/>
          <rect x="5303.5994" y="12523.214" width="50" height="30" stroke="black" stroke-linecap="round" stroke-linejoin="round" stroke-width="1"/>
          <text transform="translate(5309.5994 12529.214)" fill="black">
            <tspan font-family="Avenir" font-size="13" fill="black" x="0" y="13">op</tspan>
          </text>
        </g>
        <g id="Graphic_7568">
          <title>Attributes</title>
          <rect x="5353.5096" y="12523.214" width="95.08984" height="30" fill="#b6cdff"/>
          <rect x="5353.5096" y="12523.214" width="95.08984" height="30" stroke="black" stroke-linecap="round" stroke-linejoin="round" stroke-width="1"/>
          <text transform="translate(5359.5096 12529.214)" fill="black">
            <tspan font-family="Avenir" font-size="13" fill="black" x="0" y="13">create</tspan>
          </text>
        </g>
      </g>
      <g id="Line_7566">
        <path d="M 5254.25 12511.5 L 5254.25 12568.214 L 5288.2794 12568.214" marker-end="url(#FilledArrow_Marker)" stroke="#0076bc" stroke-linecap="round" stroke-linejoin="round" stroke-width="2"/>
      </g>
      <g id="Line_7565">
        <path d="M 5303.158 12410.468 L 5240.625 12410.468 L 5240.625 12476.68" marker-end="url(#FilledArrow_Marker)" stroke="#0076bc" stroke-linecap="round" stroke-linejoin="round" stroke-width="2"/>
      </g>
      <g id="Line_7564">
        <path d="M 5303.0994 12440.802 L 5267.875 12440.802 L 5267.875 12476.68" marker-end="url(#FilledArrow_Marker)" stroke="#0076bc" stroke-linecap="round" stroke-linejoin="round" stroke-width="2"/>
      </g>
      <g id="Group_7561">
        <g id="Graphic_7563">
          <rect x="5283.2126" y="12637.802" width="180" height="256.68333" fill="#ccc"/>
          <rect x="5283.2126" y="12637.802" width="180" height="256.68333" stroke="black" stroke-linecap="round" stroke-linejoin="round" stroke-width="1"/>
        </g>
        <g id="Graphic_7562">
          <path d="M 5283.2126 12637.802 L 5350.3846 12637.802 L 5350.3846 12647.562 L 5344.787 12657.321 L 5283.2126 12657.321 Z" fill="#ccc"/>
          <path d="M 5283.2126 12637.802 L 5350.3846 12637.802 L 5350.3846 12647.562 L 5344.787 12657.321 L 5283.2126 12657.321 Z" stroke="black" stroke-linecap="round" stroke-linejoin="round" stroke-width="1"/>
          <text transform="translate(5288.2126 12640.562)" fill="black">
            <tspan font-family="Helvetica" font-size="12" fill="black" x="0" y="11">request</tspan>
          </text>
        </g>
      </g>
      <g id="Group_7553">
        <g id="Graphic_7560">
          <title>Attributes</title>
          <rect x="5300.7126" y="12694.763" width="50" height="30" fill="#b6cdff"/>
          <rect x="5300.7126" y="12694.763" width="50" height="30" stroke="black" stroke-linecap="round" stroke-linejoin="round" stroke-width="1"/>
          <text transform="translate(5306.7126 12700.763)" fill="black">
            <tspan font-family="Avenir" font-size="13" fill="black" x="0" y="13">iss</tspan>
          </text>
        </g>
        <g id="Graphic_7559">
          <title>Class Name</title>
          <rect x="5300.7126" y="12668.763" width="145" height="26" fill="#b6cdff"/>
          <rect x="5300.7126" y="12668.763" width="145" height="26" stroke="black" stroke-linecap="round" stroke-linejoin="round" stroke-width="1"/>
          <text transform="translate(5306.7126 12672.763)" fill="black">
            <tspan font-family="Avenir" font-weight="bold" font-size="13" fill="black" x="20.506" y="13">Subject Record</tspan>
          </text>
        </g>
        <g id="Graphic_7558">
          <title>Attributes</title>
          <rect x="5351.0096" y="12694.763" width="94.70306" height="30" fill="#b6cdff"/>
          <rect x="5351.0096" y="12694.763" width="94.70306" height="30" stroke="black" stroke-linecap="round" stroke-linejoin="round" stroke-width="1"/>
          <text transform="translate(5357.0096 12700.763)" fill="black">
            <tspan font-family="Avenir" font-size="13" fill="black" x="0" y="13">op.example</tspan>
          </text>
        </g>
        <g id="Graphic_7557">
          <title>Attributes</title>
          <rect x="5300.7126" y="12724.763" width="50" height="30" fill="#b6cdff"/>
          <rect x="5300.7126" y="12724.763" width="50" height="30" stroke="black" stroke-linecap="round" stroke-linejoin="round" stroke-width="1"/>
          <text transform="translate(5306.7126 12730.763)" fill="black">
            <tspan font-family="Avenir" font-size="13" fill="black" x="0" y="13">sub</tspan>
          </text>
        </g>
        <g id="Graphic_7556">
          <title>Attributes</title>
          <rect x="5351.0096" y="12724.763" width="94.70306" height="30" fill="#b6cdff"/>
          <rect x="5351.0096" y="12724.763" width="94.70306" height="30" stroke="black" stroke-linecap="round" stroke-linejoin="round" stroke-width="1"/>
          <text transform="translate(5357.0096 12730.763)" fill="black">
            <tspan font-family="Avenir" font-size="13" fill="black" x="0" y="13">OP-123456</tspan>
          </text>
        </g>
        <g id="Graphic_7555">
          <title>Attributes</title>
          <rect x="5300.7126" y="12754.763" width="50" height="30" fill="#b6cdff"/>
          <rect x="5300.7126" y="12754.763" width="50" height="30" stroke="black" stroke-linecap="round" stroke-linejoin="round" stroke-width="1"/>
          <text transform="translate(5306.7126 12760.763)" fill="black">
            <tspan font-family="Avenir" font-size="13" fill="black" x="0" y="13">id</tspan>
          </text>
        </g>
        <g id="Graphic_7554">
          <title>Attributes</title>
          <rect x="5351.0096" y="12754.763" width="94.70306" height="30" fill="#b6cdff"/>
          <rect x="5351.0096" y="12754.763" width="94.70306" height="30" stroke="black" stroke-linecap="round" stroke-linejoin="round" stroke-width="1"/>
          <text transform="translate(5357.0096 12760.763)" fill="black">
            <tspan font-family="Avenir" font-size="13" fill="black" x="0" y="13">ABCD-0123</tspan>
          </text>
        </g>
      </g>
      <g id="Group_7547">
        <g id="Graphic_7552">
          <title>Attributes</title>
          <rect x="5300.7126" y="12852.523" width="50" height="30" fill="#b6cdff"/>
          <rect x="5300.7126" y="12852.523" width="50" height="30" stroke="black" stroke-linecap="round" stroke-linejoin="round" stroke-width="1"/>
          <text transform="translate(5306.7126 12858.523)" fill="black">
            <tspan font-family="Avenir" font-size="13" fill="black" x="0" y="13">hash</tspan>
          </text>
        </g>
        <g id="Graphic_7551">
          <title>Class Name</title>
          <rect x="5300.7126" y="12796.523" width="145" height="26" fill="#b6cdff"/>
          <rect x="5300.7126" y="12796.523" width="145" height="26" stroke="black" stroke-linecap="round" stroke-linejoin="round" stroke-width="1"/>
          <text transform="translate(5306.7126 12800.523)" fill="black">
            <tspan font-family="Avenir" font-weight="bold" font-size="13" fill="black" x="26.187" y="13">Access Token</tspan>
          </text>
        </g>
        <g id="Graphic_7550">
          <title>Attributes</title>
          <rect x="5350.5096" y="12852.523" width="95.20306" height="30" fill="#b6cdff"/>
          <rect x="5350.5096" y="12852.523" width="95.20306" height="30" stroke="black" stroke-linecap="round" stroke-linejoin="round" stroke-width="1"/>
          <text transform="translate(5356.5096 12858.523)" fill="black">
            <tspan font-family="Avenir" font-size="13" fill="black" x="0" y="13">dnA1NjRiYjZj</tspan>
          </text>
        </g>
        <g id="Graphic_7549">
          <title>Attributes</title>
          <rect x="5300.7126" y="12822.523" width="50" height="30" fill="#b6cdff"/>
          <rect x="5300.7126" y="12822.523" width="50" height="30" stroke="black" stroke-linecap="round" stroke-linejoin="round" stroke-width="1"/>
          <text transform="translate(5306.7126 12828.523)" fill="black">
            <tspan font-family="Avenir" font-size="13" fill="black" x="0" y="13">op</tspan>
          </text>
        </g>
        <g id="Graphic_7548">
          <title>Attributes</title>
          <rect x="5350.5096" y="12822.523" width="95.20306" height="30" fill="#b6cdff"/>
          <rect x="5350.5096" y="12822.523" width="95.20306" height="30" stroke="black" stroke-linecap="round" stroke-linejoin="round" stroke-width="1"/>
          <text transform="translate(5356.5096 12828.523)" fill="black">
            <tspan font-family="Avenir" font-size="13" fill="black" x="0" y="13">create</tspan>
          </text>
        </g>
      </g>
      <g id="Graphic_7546">
        <path d="M 5222.152 12313 L 5222.152 12689 C 5222.152 12691.761 5219.9133 12694 5217.152 12694 L 5197.152 12694 C 5194.3905 12694 5192.152 12691.761 5192.152 12689 L 5192.152 12313 C 5192.152 12310.239 5194.3905 12308 5197.152 12308 L 5217.152 12308 C 5219.9133 12308 5222.152 12310.239 5222.152 12313 Z" fill="#d5c0ec"/>
        <path d="M 5222.152 12313 L 5222.152 12689 C 5222.152 12691.761 5219.9133 12694 5217.152 12694 L 5197.152 12694 C 5194.3905 12694 5192.152 12691.761 5192.152 12689 L 5192.152 12313 C 5192.152 12310.239 5194.3905 12308 5197.152 12308 L 5217.152 12308 C 5219.9133 12308 5222.152 12310.239 5222.152 12313 Z" stroke="black" stroke-linecap="round" stroke-linejoin="round" stroke-width="1"/>
        <text transform="translate(5216.652 12313) rotate(90)" fill="black">
          <tspan font-family="Helvetica" font-weight="bold" font-size="16" fill="black" x="104.85156" y="15">Orchestration Service</tspan>
        </text>
      </g>
      <g id="Graphic_7545">
        <path d="M 5547.226 12636.302 L 5547.226 12890.868 C 5547.226 12893.63 5544.988 12895.868 5542.226 12895.868 L 5522.226 12895.868 C 5519.465 12895.868 5517.226 12893.63 5517.226 12890.868 L 5517.226 12636.302 C 5517.226 12633.54 5519.465 12631.302 5522.226 12631.302 L 5542.226 12631.302 C 5544.988 12631.302 5547.226 12633.54 5547.226 12636.302 Z" fill="#f1d6b5"/>
        <path d="M 5547.226 12636.302 L 5547.226 12890.868 C 5547.226 12893.63 5544.988 12895.868 5542.226 12895.868 L 5522.226 12895.868 C 5519.465 12895.868 5517.226 12893.63 5517.226 12890.868 L 5517.226 12636.302 C 5517.226 12633.54 5519.465 12631.302 5522.226 12631.302 L 5542.226 12631.302 C 5544.988 12631.302 5547.226 12633.54 5547.226 12636.302 Z" stroke="black" stroke-linecap="round" stroke-linejoin="round" stroke-width="1"/>
        <text transform="translate(5541.726 12636.302) rotate(90)" fill="black">
          <tspan font-family="Helvetica" font-weight="bold" font-size="16" fill="black" x="54.81048" y="15">Encryption Service</tspan>
        </text>
      </g>
      <g id="Group_7542">
        <g id="Graphic_7544">
          <rect x="5590.8" y="12717" width="180" height="198.5" fill="#ccc"/>
          <rect x="5590.8" y="12717" width="180" height="198.5" stroke="black" stroke-linecap="round" stroke-linejoin="round" stroke-width="1"/>
        </g>
        <g id="Graphic_7543">
          <path d="M 5590.8 12717 L 5657.972 12717 L 5657.972 12727.596 L 5652.3744 12738.191 L 5590.8 12738.191 Z" fill="#ccc"/>
          <path d="M 5590.8 12717 L 5657.972 12717 L 5657.972 12727.596 L 5652.3744 12738.191 L 5590.8 12738.191 Z" stroke="black" stroke-linecap="round" stroke-linejoin="round" stroke-width="1"/>
          <text transform="translate(5595.8 12720.596)" fill="black">
            <tspan font-family="Helvetica" font-size="12" fill="black" x="0" y="11">request</tspan>
          </text>
        </g>
      </g>
      <g id="Group_7539">
        <g id="Graphic_7541">
          <title>Class Name</title>
          <rect x="5608.9277" y="12750.1" width="145" height="26" fill="#f1d6b5"/>
          <rect x="5608.9277" y="12750.1" width="145" height="26" stroke="black" stroke-linecap="round" stroke-linejoin="round" stroke-width="1"/>
          <text transform="translate(5614.9277 12754.1)" fill="black">
            <tspan font-family="Avenir" font-weight="bold" font-size="13" fill="black" x="11.9585" y="13">Encrypted Record</tspan>
          </text>
        </g>
        <g id="Graphic_7540">
          <title>Attributes</title>
          <rect x="5608.9277" y="12776.1" width="145" height="30" fill="#f1d6b5"/>
          <rect x="5608.9277" y="12776.1" width="145" height="30" stroke="black" stroke-linecap="round" stroke-linejoin="round" stroke-width="1"/>
          <text transform="translate(5614.9277 12782.1)" fill="black">
            <tspan font-family="Avenir" font-size="13" fill="black" x="0" y="13">N3BuamdyM3ZwdnJr</tspan>
          </text>
        </g>
      </g>
      <g id="Group_7533">
        <g id="Graphic_7538">
          <title>Attributes</title>
          <rect x="5608.9277" y="12872.1" width="50" height="30" fill="#b6cdff"/>
          <rect x="5608.9277" y="12872.1" width="50" height="30" stroke="black" stroke-linecap="round" stroke-linejoin="round" stroke-width="1"/>
          <text transform="translate(5614.9277 12878.1)" fill="black">
            <tspan font-family="Avenir" font-size="13" fill="black" x="0" y="13">hash</tspan>
          </text>
        </g>
        <g id="Graphic_7537">
          <title>Class Name</title>
          <rect x="5608.9277" y="12816.1" width="145" height="26" fill="#b6cdff"/>
          <rect x="5608.9277" y="12816.1" width="145" height="26" stroke="black" stroke-linecap="round" stroke-linejoin="round" stroke-width="1"/>
          <text transform="translate(5614.9277 12820.1)" fill="black">
            <tspan font-family="Avenir" font-weight="bold" font-size="13" fill="black" x="26.187" y="13">Access Token</tspan>
          </text>
        </g>
        <g id="Graphic_7536">
          <title>Attributes</title>
          <rect x="5658.864" y="12872.1" width="95.06379" height="30" fill="#b6cdff"/>
          <rect x="5658.864" y="12872.1" width="95.06379" height="30" stroke="black" stroke-linecap="round" stroke-linejoin="round" stroke-width="1"/>
          <text transform="translate(5664.864 12878.1)" fill="black">
            <tspan font-family="Avenir" font-size="13" fill="black" x="0" y="13">dnA1NjRiYjZj</tspan>
          </text>
        </g>
        <g id="Graphic_7535">
          <title>Attributes</title>
          <rect x="5608.9277" y="12842.1" width="50" height="30" fill="#b6cdff"/>
          <rect x="5608.9277" y="12842.1" width="50" height="30" stroke="black" stroke-linecap="round" stroke-linejoin="round" stroke-width="1"/>
          <text transform="translate(5614.9277 12848.1)" fill="black">
            <tspan font-family="Avenir" font-size="13" fill="black" x="0" y="13">op</tspan>
          </text>
        </g>
        <g id="Graphic_7534">
          <title>Attributes</title>
          <rect x="5658.864" y="12842.1" width="95.06379" height="30" fill="#b6cdff"/>
          <rect x="5658.864" y="12842.1" width="95.06379" height="30" stroke="black" stroke-linecap="round" stroke-linejoin="round" stroke-width="1"/>
          <text transform="translate(5664.864 12848.1)" fill="black">
            <tspan font-family="Avenir" font-size="13" fill="black" x="0" y="13">create</tspan>
          </text>
        </g>
      </g>
      <g id="Group_7530">
        <g id="Graphic_7532">
          <title>Class Name</title>
          <rect x="5892.321" y="12802" width="139.5" height="26" fill="#f1d6b5"/>
          <rect x="5892.321" y="12802" width="139.5" height="26" stroke="black" stroke-linecap="round" stroke-linejoin="round" stroke-width="1"/>
          <text transform="translate(5898.321 12806)" fill="black">
            <tspan font-family="Avenir" font-weight="bold" font-size="13" fill="black" x="9.2085" y="13">Encrypted Record</tspan>
          </text>
        </g>
        <g id="Graphic_7531">
          <title>Attributes</title>
          <rect x="5892.321" y="12828" width="139.5" height="30" fill="#f1d6b5"/>
          <rect x="5892.321" y="12828" width="139.5" height="30" stroke="black" stroke-linecap="round" stroke-linejoin="round" stroke-width="1"/>
          <text transform="translate(5898.321 12834)" fill="black">
            <tspan font-family="Avenir" font-size="13" fill="black" x="0" y="13">N3BuamdyM3ZwdnJr</tspan>
          </text>
        </g>
      </g>
      <g id="Graphic_7529">
        <path d="M 5840.079 12691.111 L 5840.079 12940.727 C 5840.079 12943.489 5837.8404 12945.727 5835.079 12945.727 L 5815.079 12945.727 C 5812.3175 12945.727 5810.079 12943.489 5810.079 12940.727 L 5810.079 12691.111 C 5810.079 12688.35 5812.3175 12686.111 5815.079 12686.111 L 5835.079 12686.111 C 5837.8404 12686.111 5840.079 12688.35 5840.079 12691.111 Z" fill="#ffffc0"/>
        <path d="M 5840.079 12691.111 L 5840.079 12940.727 C 5840.079 12943.489 5837.8404 12945.727 5835.079 12945.727 L 5815.079 12945.727 C 5812.3175 12945.727 5810.079 12943.489 5810.079 12940.727 L 5810.079 12691.111 C 5810.079 12688.35 5812.3175 12686.111 5815.079 12686.111 L 5835.079 12686.111 C 5837.8404 12686.111 5840.079 12688.35 5840.079 12691.111 Z" stroke="black" stroke-linecap="round" stroke-linejoin="round" stroke-width="1"/>
        <text transform="translate(5834.579 12691.111) rotate(90)" fill="black">
          <tspan font-family="Helvetica" font-weight="bold" font-size="16" fill="black" x="64.33162" y="15">Storage Service</tspan>
        </text>
      </g>
    </g>
    <g id="Canvas_1_circles">
      <title>circles</title>
      <g id="Graphic_8547">
        <circle cx="5491.8" cy="12352" r="16.0000255664308" fill="#333"/>
        <circle cx="5491.8" cy="12352" r="16.0000255664308" stroke="black" stroke-linecap="round" stroke-linejoin="round" stroke-width="1"/>
        <text transform="translate(5484 12344.326)" fill="white">
          <tspan font-family="Helvetica Neue" font-weight="bold" font-size="12" fill="white" x="1.1280002" y="12">57</tspan>
        </text>
      </g>
      <g id="Graphic_8546">
        <circle cx="5254.25" cy="12448" r="16.00002556643" fill="#333"/>
        <circle cx="5254.25" cy="12448" r="16.00002556643" stroke="black" stroke-linecap="round" stroke-linejoin="round" stroke-width="1"/>
        <text transform="translate(5246.45 12440.326)" fill="white">
          <tspan font-family="Helvetica Neue" font-weight="bold" font-size="12" fill="white" x="1.1280002" y="12">58</tspan>
        </text>
      </g>
      <g id="Graphic_8545">
        <circle cx="5254.25" cy="12648.626" r="16.00002556643" fill="#333"/>
        <circle cx="5254.25" cy="12648.626" r="16.00002556643" stroke="black" stroke-linecap="round" stroke-linejoin="round" stroke-width="1"/>
        <text transform="translate(5246.45 12640.952)" fill="white">
          <tspan font-family="Helvetica Neue" font-weight="bold" font-size="12" fill="white" x="1.1280002" y="12">59</tspan>
        </text>
      </g>
      <g id="Graphic_8544">
        <circle cx="5568.5174" cy="12726.165" r="16.0000255664305" fill="#333"/>
        <circle cx="5568.5174" cy="12726.165" r="16.0000255664305" stroke="black" stroke-linecap="round" stroke-linejoin="round" stroke-width="1"/>
        <text transform="translate(5560.7174 12718.491)" fill="white">
          <tspan font-family="Helvetica Neue" font-weight="bold" font-size="12" fill="white" x="1.1280002" y="12">60</tspan>
        </text>
      </g>
      <g id="Graphic_8543">
        <circle cx="5866.2" cy="12816" r="16.0000255664303" fill="#333"/>
        <circle cx="5866.2" cy="12816" r="16.0000255664303" stroke="black" stroke-linecap="round" stroke-linejoin="round" stroke-width="1"/>
        <text transform="translate(5858.4 12808.326)" fill="white">
          <tspan font-family="Helvetica Neue" font-weight="bold" font-size="12" fill="white" x="1.1280002" y="12">61</tspan>
        </text>
      </g>
    </g>
  </g>
</svg>
