<svg version="1.1" viewBox="0.0 0.0 600.0 596.0" fill="none" stroke="none" stroke-linecap="square" stroke-miterlimit="10" width="600" height="596" xmlns:xlink="http://www.w3.org/1999/xlink" xmlns="http://www.w3.org/2000/svg"><path fill="transparent" d="M0 0L600.0 0L600.0 596.0L0 596.0L0 0Z" fill-rule="nonzero"/><path stroke="#cccccc" stroke-width="1.0" stroke-linecap="butt" d="M128.5 94.5L128.5 485.5" fill-rule="nonzero"/><path stroke="#333333" stroke-width="1.0" stroke-linecap="butt" d="M202.5 94.5L202.5 485.5" fill-rule="nonzero"/><path stroke="#cccccc" stroke-width="1.0" stroke-linecap="butt" d="M275.5 94.5L275.5 485.5" fill-rule="nonzero"/><path stroke="#cccccc" stroke-width="1.0" stroke-linecap="butt" d="M349.5 94.5L349.5 485.5" fill-rule="nonzero"/><path stroke="#cccccc" stroke-width="1.0" stroke-linecap="butt" d="M423.5 94.5L423.5 485.5" fill-rule="nonzero"/><path stroke="#cccccc" stroke-width="1.0" stroke-linecap="butt" d="M496.5 94.5L496.5 485.5" fill-rule="nonzero"/><path stroke="#cccccc" stroke-width="1.0" stroke-linecap="butt" d="M570.5 94.5L570.5 485.5" fill-rule="nonzero"/><path stroke="#cccccc" stroke-width="1.0" stroke-linecap="butt" d="M128.5 485.5L570.5 485.5" fill-rule="nonzero"/><path stroke="#333333" stroke-width="1.0" stroke-linecap="butt" d="M128.5 420.5L570.5 420.5" fill-rule="nonzero"/><path stroke="#cccccc" stroke-width="1.0" stroke-linecap="butt" d="M128.5 354.5L570.5 354.5" fill-rule="nonzero"/><path stroke="#cccccc" stroke-width="1.0" stroke-linecap="butt" d="M128.5 289.5L570.5 289.5" fill-rule="nonzero"/><path stroke="#cccccc" stroke-width="1.0" stroke-linecap="butt" d="M128.5 224.5L570.5 224.5" fill-rule="nonzero"/><path stroke="#cccccc" stroke-width="1.0" stroke-linecap="butt" d="M128.5 159.5L570.5 159.5" fill-rule="nonzero"/><path stroke="#cccccc" stroke-width="1.0" stroke-linecap="butt" d="M128.5 94.5L570.5 94.5" fill-rule="nonzero"/><clipPath id="id_0"><path d="M128.8 94.166664L570.2 94.166664L570.2 485.2L128.8 485.2L128.8 94.166664Z" clip-rule="nonzero"/></clipPath><path stroke="#3c78d8" stroke-width="4.0" stroke-linecap="butt" clip-path="url(#id_0)" d="M128.8 159.33888L202.36667 159.33888L275.93332 224.51111L349.5 289.68332L423.06668 354.85556L496.63333 420.02777L570.2 420.02777" fill-rule="nonzero"/><path fill="#000000" fill-opacity="0.0" clip-path="url(#id_0)" d="M131.8 159.33888C131.8 160.99574 130.45685 162.33888 128.8 162.33888C127.14314 162.33888 125.8 160.99574 125.8 159.33888C125.8 157.68204 127.14314 156.33888 128.8 156.33888C130.45685 156.33888 131.8 157.68204 131.8 159.33888Z" fill-rule="nonzero"/><path fill="#000000" fill-opacity="0.0" clip-path="url(#id_0)" d="M205.36667 159.33888C205.36667 160.99574 204.02351 162.33888 202.36667 162.33888C200.70981 162.33888 199.36667 160.99574 199.36667 159.33888C199.36667 157.68204 200.70981 156.33888 202.36667 156.33888C204.02351 156.33888 205.36667 157.68204 205.36667 159.33888Z" fill-rule="nonzero"/><path fill="#000000" fill-opacity="0.0" clip-path="url(#id_0)" d="M278.93332 224.51111C278.93332 226.16797 277.59018 227.51111 275.93332 227.51111C274.2765 227.51111 272.93332 226.16797 272.93332 224.51111C272.93332 222.85426 274.2765 221.51111 275.93332 221.51111C277.59018 221.51111 278.93332 222.85426 278.93332 224.51111Z" fill-rule="nonzero"/><path fill="#000000" fill-opacity="0.0" clip-path="url(#id_0)" d="M352.5 289.68332C352.5 291.34018 351.15686 292.68332 349.5 292.68332C347.84314 292.68332 346.5 291.34018 346.5 289.68332C346.5 288.0265 347.84314 286.68332 349.5 286.68332C351.15686 286.68332 352.5 288.0265 352.5 289.68332Z" fill-rule="nonzero"/><path fill="#000000" fill-opacity="0.0" clip-path="url(#id_0)" d="M426.06668 354.85556C426.06668 356.51242 424.7235 357.85556 423.06668 357.85556C421.40982 357.85556 420.06668 356.51242 420.06668 354.85556C420.06668 353.1987 421.40982 351.85556 423.06668 351.85556C424.7235 351.85556 426.06668 353.1987 426.06668 354.85556Z" fill-rule="nonzero"/><path fill="#000000" fill-opacity="0.0" clip-path="url(#id_0)" d="M499.63333 420.02777C499.63333 421.68463 498.2902 423.02777 496.63333 423.02777C494.97647 423.02777 493.63333 421.68463 493.63333 420.02777C493.63333 418.3709 494.97647 417.02777 496.63333 417.02777C498.2902 417.02777 499.63333 418.3709 499.63333 420.02777Z" fill-rule="nonzero"/><path fill="#000000" fill-opacity="0.0" clip-path="url(#id_0)" d="M573.2 420.02777C573.2 421.68463 571.8569 423.02777 570.2 423.02777C568.54315 423.02777 567.2 421.68463 567.2 420.02777C567.2 418.3709 568.54315 417.02777 570.2 417.02777C571.8569 417.02777 573.2 418.3709 573.2 420.02777Z" fill-rule="nonzero"/><path fill="#000000" d="M147.96875 561.2L153.46875 546.8875L155.51562 546.8875L161.375 561.2L159.21875 561.2L157.54688 556.85626L151.5625 556.85626L149.98438 561.2L147.96875 561.2ZM152.10938 555.325L156.95312 555.325L155.46875 551.35626Q154.78125 549.54376 154.45312 548.3875Q154.17188 549.7625 153.67188 551.1219L152.10938 555.325ZM162.3125 561.2L162.3125 550.825L163.90625 550.825L163.90625 552.3094Q165.04688 550.59064 167.20312 550.59064Q168.14062 550.59064 168.92188 550.9344Q169.71875 551.2625 170.10938 551.8094Q170.5 552.35626 170.65625 553.10626Q170.75 553.60626 170.75 554.825L170.75 561.2L168.98438 561.2L168.98438 554.8875Q168.98438 553.8094 168.78125 553.27814Q168.57812 552.7469 168.04688 552.4344Q167.53125 552.1219 166.82812 552.1219Q165.70312 552.1219 164.89062 552.84064Q164.07812 553.54376 164.07812 555.52814L164.07812 561.2L162.3125 561.2ZM172.3125 561.2L172.3125 550.825L173.90625 550.825L173.90625 552.3094Q175.04688 550.59064 177.20312 550.59064Q178.14062 550.59064 178.92188 550.9344Q179.71875 551.2625 180.10938 551.8094Q180.5 552.35626 180.65625 553.10626Q180.75 553.60626 180.75 554.825L180.75 561.2L178.98438 561.2L178.98438 554.8875Q178.98438 553.8094 178.78125 553.27814Q178.57812 552.7469 178.04688 552.4344Q177.53125 552.1219 176.82812 552.1219Q175.70312 552.1219 174.89062 552.84064Q174.07812 553.54376 174.07812 555.52814L174.07812 561.2L172.3125 561.2ZM189.10938 561.2L189.10938 559.66876Q187.90625 561.4344 185.82812 561.4344Q184.90625 561.4344 184.10938 561.09064Q183.3125 560.73126 182.92188 560.2Q182.54688 559.66876 182.39062 558.8875Q182.28125 558.3719 182.28125 557.2469L182.28125 550.825L184.03125 550.825L184.03125 556.575Q184.03125 557.95 184.14062 558.4344Q184.3125 559.1219 184.84375 559.52814Q185.39062 559.91876 186.17188 559.91876Q186.96875 559.91876 187.65625 559.5125Q188.35938 559.10626 188.64062 558.41876Q188.9375 557.71564 188.9375 556.3875L188.9375 550.825L190.6875 550.825L190.6875 561.2L189.10938 561.2ZM199.09375 559.91876Q198.10938 560.7469 197.20312 561.09064Q196.29688 561.4344 195.26562 561.4344Q193.5625 561.4344 192.64062 560.60626Q191.71875 559.7625 191.71875 558.46564Q191.71875 557.7 192.0625 557.075Q192.42188 556.45 192.98438 556.075Q193.54688 555.6844 194.25 555.48126Q194.76562 555.35626 195.8125 555.21564Q197.9375 554.96564 198.9375 554.6219Q198.95312 554.2625 198.95312 554.15314Q198.95312 553.09064 198.45312 552.6375Q197.78125 552.04376 196.45312 552.04376Q195.20312 552.04376 194.60938 552.48126Q194.03125 552.91876 193.75 554.02814L192.03125 553.79376Q192.26562 552.6844 192.79688 552.0125Q193.32812 551.325 194.34375 550.96564Q195.35938 550.59064 196.70312 550.59064Q198.03125 550.59064 198.85938 550.90314Q199.6875 551.21564 200.07812 551.7Q200.46875 552.16876 200.625 552.8875Q200.71875 553.34064 200.71875 554.5125L200.71875 556.85626Q200.71875 559.3094 200.82812 559.96564Q200.9375 560.60626 201.28125 561.2L199.4375 561.2Q199.17188 560.65314 199.09375 559.91876ZM198.9375 555.9969Q197.98438 556.3875 196.0625 556.65314Q194.98438 556.8094 194.53125 557.0125Q194.09375 557.2 193.84375 557.575Q193.59375 557.95 193.59375 558.41876Q193.59375 559.1219 194.125 559.59064Q194.65625 560.0594 195.6875 560.0594Q196.70312 560.0594 197.48438 559.6219Q198.28125 559.16876 198.65625 558.40314Q198.9375 557.79376 198.9375 556.6375L198.9375 555.9969ZM203.28125 561.2L203.28125 546.8875L205.03125 546.8875L205.03125 561.2L203.28125 561.2ZM207.32812 548.90314L207.32812 546.8875L209.09375 546.8875L209.09375 548.90314L207.32812 548.90314ZM207.32812 561.2L207.32812 550.825L209.09375 550.825L209.09375 561.2L207.32812 561.2ZM210.39062 561.2L210.39062 559.77814L217.0 552.2Q215.875 552.2469 215.01562 552.2469L210.78125 552.2469L210.78125 550.825L219.26562 550.825L219.26562 551.9969L213.64062 558.575L212.5625 559.77814Q213.73438 559.6844 214.78125 559.6844L219.57812 559.6844L219.57812 561.2L210.39062 561.2ZM227.42188 557.85626L229.23438 558.09064Q228.8125 559.66876 227.64062 560.5594Q226.48438 561.4344 224.67188 561.4344Q222.40625 561.4344 221.0625 560.04376Q219.73438 558.6375 219.73438 556.10626Q219.73438 553.48126 221.07812 552.04376Q222.42188 550.59064 224.57812 550.59064Q226.65625 550.59064 227.96875 552.0125Q229.29688 553.41876 229.29688 555.9969Q229.29688 556.15314 229.28125 556.46564L221.54688 556.46564Q221.64062 558.16876 222.51562 559.075Q223.39062 559.98126 224.6875 559.98126Q225.65625 559.98126 226.32812 559.48126Q227.01562 558.96564 227.42188 557.85626ZM221.64062 555.0125L227.4375 555.0125Q227.32812 553.71564 226.78125 553.0594Q225.9375 552.04376 224.59375 552.04376Q223.39062 552.04376 222.5625 552.85626Q221.73438 553.65314 221.64062 555.0125ZM238.04688 561.2L238.04688 559.8875Q237.0625 561.4344 235.14062 561.4344Q233.90625 561.4344 232.85938 560.7469Q231.82812 560.0594 231.25 558.84064Q230.6875 557.6219 230.6875 556.02814Q230.6875 554.46564 231.20312 553.2Q231.71875 551.9344 232.75 551.2625Q233.79688 550.59064 235.0625 550.59064Q236.0 550.59064 236.73438 550.9969Q237.46875 551.3875 237.9375 552.0125L237.9375 546.8875L239.67188 546.8875L239.67188 561.2L238.04688 561.2ZM232.48438 556.02814Q232.48438 558.0125 233.32812 558.9969Q234.17188 559.98126 235.3125 559.98126Q236.46875 559.98126 237.26562 559.04376Q238.07812 558.10626 238.07812 556.16876Q238.07812 554.04376 237.25 553.04376Q236.4375 552.04376 235.23438 552.04376Q234.0625 552.04376 233.26562 553.0125Q232.48438 553.96564 232.48438 556.02814ZM248.85938 561.2L248.85938 546.8875L250.76562 546.8875L250.76562 561.2L248.85938 561.2ZM254.3125 561.2L254.3125 550.825L255.90625 550.825L255.90625 552.3094Q257.04688 550.59064 259.20312 550.59064Q260.14062 550.59064 260.92188 550.9344Q261.71875 551.2625 262.10938 551.8094Q262.5 552.35626 262.65625 553.10626Q262.75 553.60626 262.75 554.825L262.75 561.2L260.98438 561.2L260.98438 554.8875Q260.98438 553.8094 260.78125 553.27814Q260.57812 552.7469 260.04688 552.4344Q259.53125 552.1219 258.82812 552.1219Q257.70312 552.1219 256.89062 552.84064Q256.07812 553.54376 256.07812 555.52814L256.07812 561.2L254.3125 561.2ZM268.15625 559.6219L268.40625 561.1844Q267.67188 561.34064 267.07812 561.34064Q266.125 561.34064 265.59375 561.04376Q265.07812 560.73126 264.85938 560.2469Q264.64062 559.7469 264.64062 558.16876L264.64062 552.2L263.35938 552.2L263.35938 550.825L264.64062 550.825L264.64062 548.2625L266.39062 547.2L266.39062 550.825L268.15625 550.825L268.15625 552.2L266.39062 552.2L266.39062 558.2625Q266.39062 559.0125 266.48438 559.23126Q266.57812 559.4344 266.78125 559.575Q267.0 559.7 267.39062 559.7Q267.67188 559.7 268.15625 559.6219ZM277.42188 557.85626L279.23438 558.09064Q278.8125 559.66876 277.64062 560.5594Q276.48438 561.4344 274.67188 561.4344Q272.40625 561.4344 271.0625 560.04376Q269.73438 558.6375 269.73438 556.10626Q269.73438 553.48126 271.07812 552.04376Q272.42188 550.59064 274.57812 550.59064Q276.65625 550.59064 277.96875 552.0125Q279.29688 553.41876 279.29688 555.9969Q279.29688 556.15314 279.28125 556.46564L271.54688 556.46564Q271.64062 558.16876 272.51562 559.075Q273.39062 559.98126 274.6875 559.98126Q275.65625 559.98126 276.32812 559.48126Q277.01562 558.96564 277.42188 557.85626ZM271.64062 555.0125L277.4375 555.0125Q277.32812 553.71564 276.78125 553.0594Q275.9375 552.04376 274.59375 552.04376Q273.39062 552.04376 272.5625 552.85626Q271.73438 553.65314 271.64062 555.0125ZM281.29688 561.2L281.29688 550.825L282.875 550.825L282.875 552.40314Q283.48438 551.29376 284.0 550.95Q284.51562 550.59064 285.125 550.59064Q286.01562 550.59064 286.9375 551.15314L286.32812 552.79376Q285.6875 552.40314 285.04688 552.40314Q284.46875 552.40314 284.0 552.7625Q283.54688 553.10626 283.34375 553.71564Q283.0625 554.65314 283.0625 555.7625L283.0625 561.2L281.29688 561.2ZM295.09375 557.40314L296.8125 557.6219Q296.53125 559.41876 295.35938 560.4344Q294.20312 561.4344 292.5 561.4344Q290.375 561.4344 289.07812 560.04376Q287.78125 558.65314 287.78125 556.0594Q287.78125 554.3719 288.32812 553.1219Q288.89062 551.85626 290.03125 551.23126Q291.17188 550.59064 292.51562 550.59064Q294.20312 550.59064 295.26562 551.45Q296.34375 552.3094 296.65625 553.8719L294.9375 554.1375Q294.70312 553.09064 294.07812 552.575Q293.45312 552.04376 292.57812 552.04376Q291.25 552.04376 290.42188 552.9969Q289.59375 553.95 289.59375 555.9969Q289.59375 558.09064 290.39062 559.04376Q291.1875 559.98126 292.48438 559.98126Q293.51562 559.98126 294.20312 559.35626Q294.90625 558.71564 295.09375 557.40314ZM298.3125 561.2L298.3125 546.8875L300.07812 546.8875L300.07812 552.0125Q301.3125 550.59064 303.1875 550.59064Q304.32812 550.59064 305.17188 551.04376Q306.03125 551.4969 306.39062 552.3094Q306.76562 553.10626 306.76562 554.6219L306.76562 561.2L305.01562 561.2L305.01562 554.6219Q305.01562 553.3094 304.4375 552.71564Q303.85938 552.10626 302.82812 552.10626Q302.04688 552.10626 301.34375 552.5125Q300.65625 552.91876 300.35938 553.6219Q300.07812 554.3094 300.07812 555.52814L300.07812 561.2L298.3125 561.2ZM315.09375 559.91876Q314.10938 560.7469 313.20312 561.09064Q312.29688 561.4344 311.26562 561.4344Q309.5625 561.4344 308.64062 560.60626Q307.71875 559.7625 307.71875 558.46564Q307.71875 557.7 308.0625 557.075Q308.42188 556.45 308.98438 556.075Q309.54688 555.6844 310.25 555.48126Q310.76562 555.35626 311.8125 555.21564Q313.9375 554.96564 314.9375 554.6219Q314.95312 554.2625 314.95312 554.15314Q314.95312 553.09064 314.45312 552.6375Q313.78125 552.04376 312.45312 552.04376Q311.20312 552.04376 310.60938 552.48126Q310.03125 552.91876 309.75 554.02814L308.03125 553.79376Q308.26562 552.6844 308.79688 552.0125Q309.32812 551.325 310.34375 550.96564Q311.35938 550.59064 312.70312 550.59064Q314.03125 550.59064 314.85938 550.90314Q315.6875 551.21564 316.07812 551.7Q316.46875 552.16876 316.625 552.8875Q316.71875 553.34064 316.71875 554.5125L316.71875 556.85626Q316.71875 559.3094 316.82812 559.96564Q316.9375 560.60626 317.28125 561.2L315.4375 561.2Q315.17188 560.65314 315.09375 559.91876ZM314.9375 555.9969Q313.98438 556.3875 312.0625 556.65314Q310.98438 556.8094 310.53125 557.0125Q310.09375 557.2 309.84375 557.575Q309.59375 557.95 309.59375 558.41876Q309.59375 559.1219 310.125 559.59064Q310.65625 560.0594 311.6875 560.0594Q312.70312 560.0594 313.48438 559.6219Q314.28125 559.16876 314.65625 558.40314Q314.9375 557.79376 314.9375 556.6375L314.9375 555.9969ZM319.3125 561.2L319.3125 550.825L320.90625 550.825L320.90625 552.3094Q322.04688 550.59064 324.20312 550.59064Q325.14062 550.59064 325.92188 550.9344Q326.71875 551.2625 327.10938 551.8094Q327.5 552.35626 327.65625 553.10626Q327.75 553.60626 327.75 554.825L327.75 561.2L325.98438 561.2L325.98438 554.8875Q325.98438 553.8094 325.78125 553.27814Q325.57812 552.7469 325.04688 552.4344Q324.53125 552.1219 323.82812 552.1219Q322.70312 552.1219 321.89062 552.84064Q321.07812 553.54376 321.07812 555.52814L321.07812 561.2L319.3125 561.2ZM329.0 562.0594L330.70312 562.3094Q330.8125 563.10626 331.29688 563.46564Q331.95312 563.95 333.09375 563.95Q334.3125 563.95 334.96875 563.46564Q335.64062 562.98126 335.875 562.10626Q336.01562 561.5594 336.0 559.84064Q334.84375 561.2 333.125 561.2Q330.98438 561.2 329.8125 559.65314Q328.64062 558.10626 328.64062 555.95Q328.64062 554.46564 329.17188 553.21564Q329.71875 551.96564 330.73438 551.27814Q331.76562 550.59064 333.14062 550.59064Q334.96875 550.59064 336.17188 552.075L336.17188 550.825L337.78125 550.825L337.78125 559.79376Q337.78125 562.21564 337.28125 563.21564Q336.79688 564.23126 335.71875 564.8094Q334.65625 565.40314 333.09375 565.40314Q331.25 565.40314 330.09375 564.575Q328.95312 563.7469 329.0 562.0594ZM330.45312 555.825Q330.45312 557.8719 331.26562 558.8094Q332.07812 559.7469 333.29688 559.7469Q334.5 559.7469 335.3125 558.8094Q336.14062 557.8719 336.14062 555.8875Q336.14062 553.98126 335.29688 553.0125Q334.45312 552.04376 333.26562 552.04376Q332.09375 552.04376 331.26562 552.9969Q330.45312 553.95 330.45312 555.825ZM347.42188 557.85626L349.23438 558.09064Q348.8125 559.66876 347.64062 560.5594Q346.48438 561.4344 344.67188 561.4344Q342.40625 561.4344 341.0625 560.04376Q339.73438 558.6375 339.73438 556.10626Q339.73438 553.48126 341.07812 552.04376Q342.42188 550.59064 344.57812 550.59064Q346.65625 550.59064 347.96875 552.0125Q349.29688 553.41876 349.29688 555.9969Q349.29688 556.15314 349.28125 556.46564L341.54688 556.46564Q341.64062 558.16876 342.51562 559.075Q343.39062 559.98126 344.6875 559.98126Q345.65625 559.98126 346.32812 559.48126Q347.01562 558.96564 347.42188 557.85626ZM341.64062 555.0125L347.4375 555.0125Q347.32812 553.71564 346.78125 553.0594Q345.9375 552.04376 344.59375 552.04376Q343.39062 552.04376 342.5625 552.85626Q341.73438 553.65314 341.64062 555.0125ZM357.57812 561.2L357.57812 546.8875L363.92188 546.8875Q365.82812 546.8875 366.82812 547.27814Q367.82812 547.65314 368.42188 548.6375Q369.01562 549.60626 369.01562 550.79376Q369.01562 552.3094 368.03125 553.35626Q367.04688 554.40314 364.98438 554.6844Q365.73438 555.04376 366.125 555.40314Q366.95312 556.15314 367.70312 557.3094L370.1875 561.2L367.8125 561.2L365.90625 558.21564Q365.07812 556.9344 364.54688 556.2469Q364.01562 555.5594 363.57812 555.29376Q363.15625 555.0125 362.71875 554.90314Q362.39062 554.84064 361.67188 554.84064L359.46875 554.84064L359.46875 561.2L357.57812 561.2ZM359.46875 553.2L363.54688 553.2Q364.84375 553.2 365.5625 552.9344Q366.29688 552.66876 366.67188 552.075Q367.0625 551.48126 367.0625 550.79376Q367.0625 549.77814 366.32812 549.1219Q365.59375 548.46564 364.0 548.46564L359.46875 548.46564L359.46875 553.2ZM378.42188 557.85626L380.23438 558.09064Q379.8125 559.66876 378.64062 560.5594Q377.48438 561.4344 375.67188 561.4344Q373.40625 561.4344 372.0625 560.04376Q370.73438 558.6375 370.73438 556.10626Q370.73438 553.48126 372.07812 552.04376Q373.42188 550.59064 375.57812 550.59064Q377.65625 550.59064 378.96875 552.0125Q380.29688 553.41876 380.29688 555.9969Q380.29688 556.15314 380.28125 556.46564L372.54688 556.46564Q372.64062 558.16876 373.51562 559.075Q374.39062 559.98126 375.6875 559.98126Q376.65625 559.98126 377.32812 559.48126Q378.01562 558.96564 378.42188 557.85626ZM372.64062 555.0125L378.4375 555.0125Q378.32812 553.71564 377.78125 553.0594Q376.9375 552.04376 375.59375 552.04376Q374.39062 552.04376 373.5625 552.85626Q372.73438 553.65314 372.64062 555.0125ZM385.20312 561.2L381.25 550.825L383.10938 550.825L385.34375 557.04376Q385.70312 558.04376 386.0 559.1219Q386.23438 558.3094 386.65625 557.15314L388.95312 550.825L390.76562 550.825L386.84375 561.2L385.20312 561.2ZM398.42188 557.85626L400.23438 558.09064Q399.8125 559.66876 398.64062 560.5594Q397.48438 561.4344 395.67188 561.4344Q393.40625 561.4344 392.0625 560.04376Q390.73438 558.6375 390.73438 556.10626Q390.73438 553.48126 392.07812 552.04376Q393.42188 550.59064 395.57812 550.59064Q397.65625 550.59064 398.96875 552.0125Q400.29688 553.41876 400.29688 555.9969Q400.29688 556.15314 400.28125 556.46564L392.54688 556.46564Q392.64062 558.16876 393.51562 559.075Q394.39062 559.98126 395.6875 559.98126Q396.65625 559.98126 397.32812 559.48126Q398.01562 558.96564 398.42188 557.85626ZM392.64062 555.0125L398.4375 555.0125Q398.32812 553.71564 397.78125 553.0594Q396.9375 552.04376 395.59375 552.04376Q394.39062 552.04376 393.5625 552.85626Q392.73438 553.65314 392.64062 555.0125ZM402.3125 561.2L402.3125 550.825L403.90625 550.825L403.90625 552.3094Q405.04688 550.59064 407.20312 550.59064Q408.14062 550.59064 408.92188 550.9344Q409.71875 551.2625 410.10938 551.8094Q410.5 552.35626 410.65625 553.10626Q410.75 553.60626 410.75 554.825L410.75 561.2L408.98438 561.2L408.98438 554.8875Q408.98438 553.8094 408.78125 553.27814Q408.57812 552.7469 408.04688 552.4344Q407.53125 552.1219 406.82812 552.1219Q405.70312 552.1219 404.89062 552.84064Q404.07812 553.54376 404.07812 555.52814L404.07812 561.2L402.3125 561.2ZM419.10938 561.2L419.10938 559.66876Q417.90625 561.4344 415.82812 561.4344Q414.90625 561.4344 414.10938 561.09064Q413.3125 560.73126 412.92188 560.2Q412.54688 559.66876 412.39062 558.8875Q412.28125 558.3719 412.28125 557.2469L412.28125 550.825L414.03125 550.825L414.03125 556.575Q414.03125 557.95 414.14062 558.4344Q414.3125 559.1219 414.84375 559.52814Q415.39062 559.91876 416.17188 559.91876Q416.96875 559.91876 417.65625 559.5125Q418.35938 559.10626 418.64062 558.41876Q418.9375 557.71564 418.9375 556.3875L418.9375 550.825L420.6875 550.825L420.6875 561.2L419.10938 561.2ZM429.42188 557.85626L431.23438 558.09064Q430.8125 559.66876 429.64062 560.5594Q428.48438 561.4344 426.67188 561.4344Q424.40625 561.4344 423.0625 560.04376Q421.73438 558.6375 421.73438 556.10626Q421.73438 553.48126 423.07812 552.04376Q424.42188 550.59064 426.57812 550.59064Q428.65625 550.59064 429.96875 552.0125Q431.29688 553.41876 431.29688 555.9969Q431.29688 556.15314 431.28125 556.46564L423.54688 556.46564Q423.64062 558.16876 424.51562 559.075Q425.39062 559.98126 426.6875 559.98126Q427.65625 559.98126 428.32812 559.48126Q429.01562 558.96564 429.42188 557.85626ZM423.64062 555.0125L429.4375 555.0125Q429.32812 553.71564 428.78125 553.0594Q427.9375 552.04376 426.59375 552.04376Q425.39062 552.04376 424.5625 552.85626Q423.73438 553.65314 423.64062 555.0125ZM446.25 555.59064L446.25 553.90314L452.3125 553.8875L452.3125 559.2Q450.90625 560.325 449.42188 560.8875Q447.9375 561.45 446.375 561.45Q444.26562 561.45 442.54688 560.54376Q440.82812 559.6375 439.9375 557.9344Q439.0625 556.21564 439.0625 554.10626Q439.0625 552.0125 439.9375 550.21564Q440.8125 548.40314 442.45312 547.52814Q444.09375 546.6375 446.23438 546.6375Q447.78125 546.6375 449.03125 547.1375Q450.29688 547.6375 451.0 548.54376Q451.71875 549.4344 452.09375 550.8875L450.39062 551.35626Q450.0625 550.2625 449.57812 549.6375Q449.10938 549.0125 448.21875 548.6375Q447.32812 548.2625 446.25 548.2625Q444.9375 548.2625 443.98438 548.65314Q443.04688 549.04376 442.46875 549.7Q441.89062 550.34064 441.5625 551.10626Q441.01562 552.4344 441.01562 553.9969Q441.01562 555.90314 441.67188 557.2Q442.34375 558.48126 443.59375 559.10626Q444.85938 559.73126 446.26562 559.73126Q447.5 559.73126 448.67188 559.2625Q449.84375 558.79376 450.45312 558.2469L450.45312 555.59064L446.25 555.59064ZM455.29688 561.2L455.29688 550.825L456.875 550.825L456.875 552.40314Q457.48438 551.29376 458.0 550.95Q458.51562 550.59064 459.125 550.59064Q460.01562 550.59064 460.9375 551.15314L460.32812 552.79376Q459.6875 552.40314 459.04688 552.40314Q458.46875 552.40314 458.0 552.7625Q457.54688 553.10626 457.34375 553.71564Q457.0625 554.65314 457.0625 555.7625L457.0625 561.2L455.29688 561.2ZM461.67188 556.0125Q461.67188 553.1375 463.26562 551.7469Q464.60938 550.59064 466.53125 550.59064Q468.67188 550.59064 470.01562 551.9969Q471.375 553.40314 471.375 555.8719Q471.375 557.8719 470.78125 559.02814Q470.1875 560.16876 469.03125 560.8094Q467.89062 561.4344 466.53125 561.4344Q464.34375 561.4344 463.0 560.04376Q461.67188 558.6375 461.67188 556.0125ZM463.46875 556.0125Q463.46875 558.0125 464.32812 558.9969Q465.20312 559.98126 466.53125 559.98126Q467.84375 559.98126 468.70312 558.9969Q469.57812 557.9969 469.57812 555.95Q469.57812 554.02814 468.70312 553.04376Q467.82812 552.04376 466.53125 552.04376Q465.20312 552.04376 464.32812 553.04376Q463.46875 554.02814 463.46875 556.0125ZM475.23438 561.2L472.0625 550.825L473.875 550.825L475.53125 556.8094L476.14062 559.04376Q476.1875 558.8719 476.67188 556.90314L478.32812 550.825L480.14062 550.825L481.6875 556.84064L482.20312 558.825L482.79688 556.825L484.57812 550.825L486.28125 550.825L483.04688 561.2L481.21875 561.2L479.5625 554.98126L479.17188 553.21564L477.0625 561.2L475.23438 561.2ZM492.15625 559.6219L492.40625 561.1844Q491.67188 561.34064 491.07812 561.34064Q490.125 561.34064 489.59375 561.04376Q489.07812 560.73126 488.85938 560.2469Q488.64062 559.7469 488.64062 558.16876L488.64062 552.2L487.35938 552.2L487.35938 550.825L488.64062 550.825L488.64062 548.2625L490.39062 547.2L490.39062 550.825L492.15625 550.825L492.15625 552.2L490.39062 552.2L490.39062 558.2625Q490.39062 559.0125 490.48438 559.23126Q490.57812 559.4344 490.78125 559.575Q491.0 559.7 491.39062 559.7Q491.67188 559.7 492.15625 559.6219ZM494.3125 561.2L494.3125 546.8875L496.07812 546.8875L496.07812 552.0125Q497.3125 550.59064 499.1875 550.59064Q500.32812 550.59064 501.17188 551.04376Q502.03125 551.4969 502.39062 552.3094Q502.76562 553.10626 502.76562 554.6219L502.76562 561.2L501.01562 561.2L501.01562 554.6219Q501.01562 553.3094 500.4375 552.71564Q499.85938 552.10626 498.82812 552.10626Q498.04688 552.10626 497.34375 552.5125Q496.65625 552.91876 496.35938 553.6219Q496.07812 554.3094 496.07812 555.52814L496.07812 561.2L494.3125 561.2ZM510.57812 561.2L510.57812 546.8875L516.9219 546.8875Q518.8281 546.8875 519.8281 547.27814Q520.8281 547.65314 521.4219 548.6375Q522.0156 549.60626 522.0156 550.79376Q522.0156 552.3094 521.03125 553.35626Q520.0469 554.40314 517.9844 554.6844Q518.7344 555.04376 519.125 555.40314Q519.9531 556.15314 520.7031 557.3094L523.1875 561.2L520.8125 561.2L518.90625 558.21564Q518.0781 556.9344 517.5469 556.2469Q517.0156 555.5594 516.5781 555.29376Q516.15625 555.0125 515.71875 554.90314Q515.3906 554.84064 514.6719 554.84064L512.46875 554.84064L512.46875 561.2L510.57812 561.2ZM512.46875 553.2L516.5469 553.2Q517.84375 553.2 518.5625 552.9344Q519.2969 552.66876 519.6719 552.075Q520.0625 551.48126 520.0625 550.79376Q520.0625 549.77814 519.3281 549.1219Q518.59375 548.46564 517.0 548.46564L512.46875 548.46564L512.46875 553.2ZM531.09375 559.91876Q530.1094 560.7469 529.2031 561.09064Q528.2969 561.4344 527.2656 561.4344Q525.5625 561.4344 524.6406 560.60626Q523.71875 559.7625 523.71875 558.46564Q523.71875 557.7 524.0625 557.075Q524.4219 556.45 524.9844 556.075Q525.5469 555.6844 526.25 555.48126Q526.7656 555.35626 527.8125 555.21564Q529.9375 554.96564 530.9375 554.6219Q530.9531 554.2625 530.9531 554.15314Q530.9531 553.09064 530.4531 552.6375Q529.78125 552.04376 528.4531 552.04376Q527.2031 552.04376 526.6094 552.48126Q526.03125 552.91876 525.75 554.02814L524.03125 553.79376Q524.2656 552.6844 524.7969 552.0125Q525.3281 551.325 526.34375 550.96564Q527.3594 550.59064 528.7031 550.59064Q530.03125 550.59064 530.8594 550.90314Q531.6875 551.21564 532.0781 551.7Q532.46875 552.16876 532.625 552.8875Q532.71875 553.34064 532.71875 554.5125L532.71875 556.85626Q532.71875 559.3094 532.8281 559.96564Q532.9375 560.60626 533.28125 561.2L531.4375 561.2Q531.1719 560.65314 531.09375 559.91876ZM530.9375 555.9969Q529.9844 556.3875 528.0625 556.65314Q526.9844 556.8094 526.53125 557.0125Q526.09375 557.2 525.84375 557.575Q525.59375 557.95 525.59375 558.41876Q525.59375 559.1219 526.125 559.59064Q526.65625 560.0594 527.6875 560.0594Q528.7031 560.0594 529.4844 559.6219Q530.28125 559.16876 530.65625 558.40314Q530.9375 557.79376 530.9375 556.6375L530.9375 555.9969ZM539.15625 559.6219L539.40625 561.1844Q538.6719 561.34064 538.0781 561.34064Q537.125 561.34064 536.59375 561.04376Q536.0781 560.73126 535.8594 560.2469Q535.6406 559.7469 535.6406 558.16876L535.6406 552.2L534.3594 552.2L534.3594 550.825L535.6406 550.825L535.6406 548.2625L537.3906 547.2L537.3906 550.825L539.15625 550.825L539.15625 552.2L537.3906 552.2L537.3906 558.2625Q537.3906 559.0125 537.4844 559.23126Q537.5781 559.4344 537.78125 559.575Q538.0 559.7 538.3906 559.7Q538.6719 559.7 539.15625 559.6219ZM548.4219 557.85626L550.2344 558.09064Q549.8125 559.66876 548.6406 560.5594Q547.4844 561.4344 545.6719 561.4344Q543.40625 561.4344 542.0625 560.04376Q540.7344 558.6375 540.7344 556.10626Q540.7344 553.48126 542.0781 552.04376Q543.4219 550.59064 545.5781 550.59064Q547.65625 550.59064 548.96875 552.0125Q550.2969 553.41876 550.2969 555.9969Q550.2969 556.15314 550.28125 556.46564L542.5469 556.46564Q542.6406 558.16876 543.5156 559.075Q544.3906 559.98126 545.6875 559.98126Q546.65625 559.98126 547.3281 559.48126Q548.0156 558.96564 548.4219 557.85626ZM542.6406 555.0125L548.4375 555.0125Q548.3281 553.71564 547.78125 553.0594Q546.9375 552.04376 545.59375 552.04376Q544.3906 552.04376 543.5625 552.85626Q542.7344 553.65314 542.6406 555.0125Z" fill-rule="nonzero"/><path fill="#000000" d="M48.80001 462.85522L34.48751 462.85522L34.48751 456.51147Q34.48751 454.60522 34.878136 453.60522Q35.253136 452.60522 36.23751 452.01147Q37.20626 451.41772 38.39376 451.41772Q39.909386 451.41772 40.95626 452.4021Q42.003136 453.38647 42.284386 455.44897Q42.64376 454.69897 43.003136 454.30835Q43.753136 453.48022 44.909386 452.73022L48.80001 450.24585L48.80001 452.62085L45.815636 454.5271Q44.534386 455.35522 43.846886 455.88647Q43.159386 456.41772 42.89376 456.85522Q42.61251 457.2771 42.503136 457.7146Q42.440636 458.04272 42.440636 458.76147L42.440636 460.9646L48.80001 460.9646L48.80001 462.85522ZM40.80001 460.9646L40.80001 456.88647Q40.80001 455.5896 40.534386 454.87085Q40.26876 454.13647 39.67501 453.76147Q39.08126 453.37085 38.39376 453.37085Q37.378136 453.37085 36.721886 454.10522Q36.065636 454.8396 36.065636 456.43335L36.065636 460.9646L40.80001 460.9646ZM45.45626 442.01147L45.690636 440.19897Q47.26876 440.62085 48.159386 441.79272Q49.034386 442.94897 49.034386 444.76147Q49.034386 447.0271 47.64376 448.37085Q46.23751 449.69897 43.70626 449.69897Q41.08126 449.69897 39.64376 448.35522Q38.190636 447.01147 38.190636 444.85522Q38.190636 442.7771 39.61251 441.4646Q41.01876 440.13647 43.596886 440.13647Q43.753136 440.13647 44.065636 440.1521L44.065636 447.88647Q45.76876 447.79272 46.67501 446.91772Q47.58126 446.04272 47.58126 444.74585Q47.58126 443.7771 47.08126 443.10522Q46.565636 442.41772 45.45626 442.01147ZM42.61251 447.79272L42.61251 441.99585Q41.315636 442.10522 40.659386 442.6521Q39.64376 443.49585 39.64376 444.8396Q39.64376 446.04272 40.45626 446.87085Q41.253136 447.69897 42.61251 447.79272ZM48.80001 435.23022L38.42501 439.18335L38.42501 437.32397L44.64376 435.0896Q45.64376 434.73022 46.721886 434.43335Q45.909386 434.19897 44.753136 433.7771L38.42501 431.48022L38.42501 429.66772L48.80001 433.5896L48.80001 435.23022ZM45.45626 422.01147L45.690636 420.19897Q47.26876 420.62085 48.159386 421.79272Q49.034386 422.94897 49.034386 424.76147Q49.034386 427.0271 47.64376 428.37085Q46.23751 429.69897 43.70626 429.69897Q41.08126 429.69897 39.64376 428.35522Q38.190636 427.01147 38.190636 424.85522Q38.190636 422.7771 39.61251 421.4646Q41.01876 420.13647 43.596886 420.13647Q43.753136 420.13647 44.065636 420.1521L44.065636 427.88647Q45.76876 427.79272 46.67501 426.91772Q47.58126 426.04272 47.58126 424.74585Q47.58126 423.7771 47.08126 423.10522Q46.565636 422.41772 45.45626 422.01147ZM42.61251 427.79272L42.61251 421.99585Q41.315636 422.10522 40.659386 422.6521Q39.64376 423.49585 39.64376 424.8396Q39.64376 426.04272 40.45626 426.87085Q41.253136 427.69897 42.61251 427.79272ZM48.80001 418.12085L38.42501 418.12085L38.42501 416.5271L39.909386 416.5271Q38.190636 415.38647 38.190636 413.23022Q38.190636 412.29272 38.534386 411.51147Q38.86251 410.7146 39.409386 410.32397Q39.95626 409.93335 40.70626 409.7771Q41.20626 409.68335 42.42501 409.68335L48.80001 409.68335L48.80001 411.44897L42.48751 411.44897Q41.409386 411.44897 40.878136 411.6521Q40.346886 411.85522 40.034386 412.38647Q39.721886 412.9021 39.721886 413.60522Q39.721886 414.73022 40.440636 415.54272Q41.14376 416.35522 43.128136 416.35522L48.80001 416.35522L48.80001 418.12085ZM48.80001 401.32397L47.26876 401.32397Q49.034386 402.5271 49.034386 404.60522Q49.034386 405.5271 48.690636 406.32397Q48.33126 407.12085 47.80001 407.51147Q47.26876 407.88647 46.48751 408.04272Q45.971886 408.1521 44.846886 408.1521L38.42501 408.1521L38.42501 406.4021L44.17501 406.4021Q45.55001 406.4021 46.034386 406.29272Q46.721886 406.12085 47.128136 405.5896Q47.51876 405.04272 47.51876 404.26147Q47.51876 403.4646 47.11251 402.7771Q46.70626 402.07397 46.01876 401.79272Q45.315636 401.49585 43.98751 401.49585L38.42501 401.49585L38.42501 399.74585L48.80001 399.74585L48.80001 401.32397ZM45.45626 391.01147L45.690636 389.19897Q47.26876 389.62085 48.159386 390.79272Q49.034386 391.94897 49.034386 393.76147Q49.034386 396.0271 47.64376 397.37085Q46.23751 398.69897 43.70626 398.69897Q41.08126 398.69897 39.64376 397.35522Q38.190636 396.01147 38.190636 393.85522Q38.190636 391.7771 39.61251 390.4646Q41.01876 389.13647 43.596886 389.13647Q43.753136 389.13647 44.065636 389.1521L44.065636 396.88647Q45.76876 396.79272 46.67501 395.91772Q47.58126 395.04272 47.58126 393.74585Q47.58126 392.7771 47.08126 392.10522Q46.565636 391.41772 45.45626 391.01147ZM42.61251 396.79272L42.61251 390.99585Q41.315636 391.10522 40.659386 391.6521Q39.64376 392.49585 39.64376 393.8396Q39.64376 395.04272 40.45626 395.87085Q41.253136 396.69897 42.61251 396.79272ZM48.80001 380.88647L34.48751 380.88647L34.48751 375.9646Q34.48751 374.29272 34.690636 373.4021Q34.971886 372.18335 35.70626 371.30835Q36.67501 370.18335 38.159386 369.62085Q39.64376 369.05835 41.565636 369.05835Q43.190636 369.05835 44.45626 369.43335Q45.70626 369.80835 46.534386 370.41772Q47.36251 371.01147 47.846886 371.7146Q48.315636 372.41772 48.565636 373.41772Q48.80001 374.41772 48.80001 375.73022L48.80001 380.88647ZM47.11251 378.99585L47.11251 375.93335Q47.11251 374.5271 46.846886 373.73022Q46.58126 372.91772 46.096886 372.43335Q45.42501 371.76147 44.30001 371.38647Q43.159386 371.01147 41.534386 371.01147Q39.284386 371.01147 38.08126 371.74585Q36.878136 372.48022 36.471886 373.54272Q36.17501 374.29272 36.17501 375.98022L36.17501 378.99585L47.11251 378.99585ZM36.503136 367.10522L34.48751 367.10522L34.48751 365.3396L36.503136 365.3396L36.503136 367.10522ZM48.80001 367.10522L38.42501 367.10522L38.42501 365.3396L48.80001 365.3396L48.80001 367.10522ZM45.70626 363.82397L45.42501 362.07397Q46.471886 361.93335 47.034386 361.26147Q47.58126 360.5896 47.58126 359.38647Q47.58126 358.18335 47.096886 357.60522Q46.596886 357.01147 45.940636 357.01147Q45.346886 357.01147 45.003136 357.5271Q44.76876 357.88647 44.409386 359.32397Q43.909386 361.26147 43.565636 362.01147Q43.20626 362.74585 42.58126 363.13647Q41.940636 363.5271 41.17501 363.5271Q40.48751 363.5271 39.89376 363.2146Q39.30001 362.88647 38.909386 362.3396Q38.61251 361.93335 38.409386 361.23022Q38.190636 360.51147 38.190636 359.69897Q38.190636 358.48022 38.55001 357.55835Q38.89376 356.63647 39.503136 356.19897Q40.096886 355.76147 41.096886 355.5896L41.33126 357.30835Q40.534386 357.43335 40.096886 357.99585Q39.64376 358.55835 39.64376 359.57397Q39.64376 360.79272 40.05001 361.30835Q40.440636 361.82397 40.971886 361.82397Q41.315636 361.82397 41.596886 361.60522Q41.878136 361.4021 42.065636 360.93335Q42.159386 360.66772 42.503136 359.38647Q43.003136 357.51147 43.33126 356.7771Q43.64376 356.04272 44.253136 355.62085Q44.846886 355.19897 45.753136 355.19897Q46.628136 355.19897 47.409386 355.7146Q48.190636 356.23022 48.61251 357.19897Q49.034386 358.16772 49.034386 359.38647Q49.034386 361.4021 48.190636 362.4646Q47.346886 363.5271 45.70626 363.82397ZM47.221886 349.2771L48.784386 349.0271Q48.940636 349.76147 48.940636 350.35522Q48.940636 351.30835 48.64376 351.8396Q48.33126 352.35522 47.846886 352.57397Q47.346886 352.79272 45.76876 352.79272L39.80001 352.79272L39.80001 354.07397L38.42501 354.07397L38.42501 352.79272L35.86251 352.79272L34.80001 351.04272L38.42501 351.04272L38.42501 349.2771L39.80001 349.2771L39.80001 351.04272L45.86251 351.04272Q46.61251 351.04272 46.83126 350.94897Q47.034386 350.85522 47.17501 350.6521Q47.30001 350.43335 47.30001 350.04272Q47.30001 349.76147 47.221886 349.2771ZM48.80001 347.13647L38.42501 347.13647L38.42501 345.55835L40.003136 345.55835Q38.89376 344.94897 38.55001 344.43335Q38.190636 343.91772 38.190636 343.30835Q38.190636 342.41772 38.753136 341.49585L40.39376 342.10522Q40.003136 342.74585 40.003136 343.38647Q40.003136 343.9646 40.36251 344.43335Q40.70626 344.88647 41.315636 345.0896Q42.253136 345.37085 43.36251 345.37085L48.80001 345.37085L48.80001 347.13647ZM36.503136 340.10522L34.48751 340.10522L34.48751 338.3396L36.503136 338.3396L36.503136 340.10522ZM48.80001 340.10522L38.42501 340.10522L38.42501 338.3396L48.80001 338.3396L48.80001 340.10522ZM48.80001 334.49585L48.80001 336.12085L34.48751 336.12085L34.48751 334.37085L39.596886 334.37085Q38.190636 333.24585 38.190636 331.5271Q38.190636 330.57397 38.58126 329.7146Q38.971886 328.85522 39.67501 328.30835Q40.36251 327.76147 41.346886 327.44897Q42.33126 327.13647 43.45626 327.13647Q46.128136 327.13647 47.58126 328.44897Q49.034386 329.76147 49.034386 331.60522Q49.034386 333.44897 47.503136 334.49585L48.80001 334.49585ZM43.534386 334.51147Q45.39376 334.51147 46.23751 334.01147Q47.58126 333.16772 47.58126 331.76147Q47.58126 330.60522 46.58126 329.7771Q45.58126 328.93335 43.596886 328.93335Q41.565636 328.93335 40.61251 329.74585Q39.64376 330.54272 39.64376 331.68335Q39.64376 332.8396 40.64376 333.68335Q41.64376 334.51147 43.534386 334.51147ZM48.80001 318.32397L47.26876 318.32397Q49.034386 319.5271 49.034386 321.60522Q49.034386 322.5271 48.690636 323.32397Q48.33126 324.12085 47.80001 324.51147Q47.26876 324.88647 46.48751 325.04272Q45.971886 325.1521 44.846886 325.1521L38.42501 325.1521L38.42501 323.4021L44.17501 323.4021Q45.55001 323.4021 46.034386 323.29272Q46.721886 323.12085 47.128136 322.5896Q47.51876 322.04272 47.51876 321.26147Q47.51876 320.4646 47.11251 319.7771Q46.70626 319.07397 46.01876 318.79272Q45.315636 318.49585 43.98751 318.49585L38.42501 318.49585L38.42501 316.74585L48.80001 316.74585L48.80001 318.32397ZM47.221886 311.2771L48.784386 311.0271Q48.940636 311.76147 48.940636 312.35522Q48.940636 313.30835 48.64376 313.8396Q48.33126 314.35522 47.846886 314.57397Q47.346886 314.79272 45.76876 314.79272L39.80001 314.79272L39.80001 316.07397L38.42501 316.07397L38.42501 314.79272L35.86251 314.79272L34.80001 313.04272L38.42501 313.04272L38.42501 311.2771L39.80001 311.2771L39.80001 313.04272L45.86251 313.04272Q46.61251 313.04272 46.83126 312.94897Q47.034386 312.85522 47.17501 312.6521Q47.30001 312.43335 47.30001 312.04272Q47.30001 311.76147 47.221886 311.2771ZM45.45626 302.01147L45.690636 300.19897Q47.26876 300.62085 48.159386 301.79272Q49.034386 302.94897 49.034386 304.76147Q49.034386 307.0271 47.64376 308.37085Q46.23751 309.69897 43.70626 309.69897Q41.08126 309.69897 39.64376 308.35522Q38.190636 307.01147 38.190636 304.85522Q38.190636 302.7771 39.61251 301.4646Q41.01876 300.13647 43.596886 300.13647Q43.753136 300.13647 44.065636 300.1521L44.065636 307.88647Q45.76876 307.79272 46.67501 306.91772Q47.58126 306.04272 47.58126 304.74585Q47.58126 303.7771 47.08126 303.10522Q46.565636 302.41772 45.45626 302.01147ZM42.61251 307.79272L42.61251 301.99585Q41.315636 302.10522 40.659386 302.6521Q39.64376 303.49585 39.64376 304.8396Q39.64376 306.04272 40.45626 306.87085Q41.253136 307.69897 42.61251 307.79272ZM48.80001 291.38647L47.48751 291.38647Q49.034386 292.37085 49.034386 294.29272Q49.034386 295.5271 48.346886 296.57397Q47.659386 297.60522 46.440636 298.18335Q45.221886 298.74585 43.628136 298.74585Q42.065636 298.74585 40.80001 298.23022Q39.534386 297.7146 38.86251 296.68335Q38.190636 295.63647 38.190636 294.37085Q38.190636 293.43335 38.596886 292.69897Q38.98751 291.9646 39.61251 291.49585L34.48751 291.49585L34.48751 289.76147L48.80001 289.76147L48.80001 291.38647ZM43.628136 296.94897Q45.61251 296.94897 46.596886 296.10522Q47.58126 295.26147 47.58126 294.12085Q47.58126 292.9646 46.64376 292.16772Q45.70626 291.35522 43.76876 291.35522Q41.64376 291.35522 40.64376 292.18335Q39.64376 292.99585 39.64376 294.19897Q39.64376 295.37085 40.61251 296.16772Q41.565636 296.94897 43.628136 296.94897ZM47.221886 277.2771L48.784386 277.0271Q48.940636 277.76147 48.940636 278.35522Q48.940636 279.30835 48.64376 279.8396Q48.33126 280.35522 47.846886 280.57397Q47.346886 280.79272 45.76876 280.79272L39.80001 280.79272L39.80001 282.07397L38.42501 282.07397L38.42501 280.79272L35.86251 280.79272L34.80001 279.04272L38.42501 279.04272L38.42501 277.2771L39.80001 277.2771L39.80001 279.04272L45.86251 279.04272Q46.61251 279.04272 46.83126 278.94897Q47.034386 278.85522 47.17501 278.6521Q47.30001 278.43335 47.30001 278.04272Q47.30001 277.76147 47.221886 277.2771ZM43.61251 275.76147Q40.73751 275.76147 39.346886 274.16772Q38.190636 272.82397 38.190636 270.9021Q38.190636 268.76147 39.596886 267.41772Q41.003136 266.05835 43.471886 266.05835Q45.471886 266.05835 46.628136 266.6521Q47.76876 267.24585 48.409386 268.4021Q49.034386 269.54272 49.034386 270.9021Q49.034386 273.0896 47.64376 274.43335Q46.23751 275.76147 43.61251 275.76147ZM43.61251 273.9646Q45.61251 273.9646 46.596886 273.10522Q47.58126 272.23022 47.58126 270.9021Q47.58126 269.5896 46.596886 268.73022Q45.596886 267.85522 43.55001 267.85522Q41.628136 267.85522 40.64376 268.73022Q39.64376 269.60522 39.64376 270.9021Q39.64376 272.23022 40.64376 273.10522Q41.628136 273.9646 43.61251 273.9646ZM48.80001 254.24585L36.17501 254.24585L36.17501 258.9646L34.48751 258.9646L34.48751 247.62085L36.17501 247.62085L36.17501 252.35522L48.80001 252.35522L48.80001 254.24585ZM43.61251 246.76147Q40.73751 246.76147 39.346886 245.16772Q38.190636 243.82397 38.190636 241.9021Q38.190636 239.76147 39.596886 238.41772Q41.003136 237.05835 43.471886 237.05835Q45.471886 237.05835 46.628136 237.6521Q47.76876 238.24585 48.409386 239.4021Q49.034386 240.54272 49.034386 241.9021Q49.034386 244.0896 47.64376 245.43335Q46.23751 246.76147 43.61251 246.76147ZM43.61251 244.9646Q45.61251 244.9646 46.596886 244.10522Q47.58126 243.23022 47.58126 241.9021Q47.58126 240.5896 46.596886 239.73022Q45.596886 238.85522 43.55001 238.85522Q41.628136 238.85522 40.64376 239.73022Q39.64376 240.60522 39.64376 241.9021Q39.64376 243.23022 40.64376 244.10522Q41.628136 244.9646 43.61251 244.9646ZM48.80001 235.10522L34.48751 235.10522L34.48751 233.3396L42.64376 233.3396L38.42501 229.18335L38.42501 226.91772L42.26876 230.87085L48.80001 226.51147L48.80001 228.68335L43.503136 232.10522L44.690636 233.3396L48.80001 233.3396L48.80001 235.10522ZM45.45626 218.01147L45.690636 216.19897Q47.26876 216.62085 48.159386 217.79272Q49.034386 218.94897 49.034386 220.76147Q49.034386 223.0271 47.64376 224.37085Q46.23751 225.69897 43.70626 225.69897Q41.08126 225.69897 39.64376 224.35522Q38.190636 223.01147 38.190636 220.85522Q38.190636 218.7771 39.61251 217.4646Q41.01876 216.13647 43.596886 216.13647Q43.753136 216.13647 44.065636 216.1521L44.065636 223.88647Q45.76876 223.79272 46.67501 222.91772Q47.58126 222.04272 47.58126 220.74585Q47.58126 219.7771 47.08126 219.10522Q46.565636 218.41772 45.45626 218.01147ZM42.61251 223.79272L42.61251 217.99585Q41.315636 218.10522 40.659386 218.6521Q39.64376 219.49585 39.64376 220.8396Q39.64376 222.04272 40.45626 222.87085Q41.253136 223.69897 42.61251 223.79272ZM48.80001 214.12085L38.42501 214.12085L38.42501 212.5271L39.909386 212.5271Q38.190636 211.38647 38.190636 209.23022Q38.190636 208.29272 38.534386 207.51147Q38.86251 206.7146 39.409386 206.32397Q39.95626 205.93335 40.70626 205.7771Q41.20626 205.68335 42.42501 205.68335L48.80001 205.68335L48.80001 207.44897L42.48751 207.44897Q41.409386 207.44897 40.878136 207.6521Q40.346886 207.85522 40.034386 208.38647Q39.721886 208.9021 39.721886 209.60522Q39.721886 210.73022 40.440636 211.54272Q41.14376 212.35522 43.128136 212.35522L48.80001 212.35522L48.80001 214.12085ZM48.80001 197.82397L34.48751 197.82397L34.48751 195.93335L40.36251 195.93335L40.36251 188.49585L34.48751 188.49585L34.48751 186.60522L48.80001 186.60522L48.80001 188.49585L42.05001 188.49585L42.05001 195.93335L48.80001 195.93335L48.80001 197.82397ZM43.61251 185.76147Q40.73751 185.76147 39.346886 184.16772Q38.190636 182.82397 38.190636 180.9021Q38.190636 178.76147 39.596886 177.41772Q41.003136 176.05835 43.471886 176.05835Q45.471886 176.05835 46.628136 176.6521Q47.76876 177.24585 48.409386 178.4021Q49.034386 179.54272 49.034386 180.9021Q49.034386 183.0896 47.64376 184.43335Q46.23751 185.76147 43.61251 185.76147ZM43.61251 183.9646Q45.61251 183.9646 46.596886 183.10522Q47.58126 182.23022 47.58126 180.9021Q47.58126 179.5896 46.596886 178.73022Q45.596886 177.85522 43.55001 177.85522Q41.628136 177.85522 40.64376 178.73022Q39.64376 179.60522 39.64376 180.9021Q39.64376 182.23022 40.64376 183.10522Q41.628136 183.9646 43.61251 183.9646ZM48.80001 174.1521L34.48751 174.1521L34.48751 172.4021L48.80001 172.4021L48.80001 174.1521ZM48.80001 163.38647L47.48751 163.38647Q49.034386 164.37085 49.034386 166.29272Q49.034386 167.5271 48.346886 168.57397Q47.659386 169.60522 46.440636 170.18335Q45.221886 170.74585 43.628136 170.74585Q42.065636 170.74585 40.80001 170.23022Q39.534386 169.7146 38.86251 168.68335Q38.190636 167.63647 38.190636 166.37085Q38.190636 165.43335 38.596886 164.69897Q38.98751 163.9646 39.61251 163.49585L34.48751 163.49585L34.48751 161.76147L48.80001 161.76147L48.80001 163.38647ZM43.628136 168.94897Q45.61251 168.94897 46.596886 168.10522Q47.58126 167.26147 47.58126 166.12085Q47.58126 164.9646 46.64376 164.16772Q45.70626 163.35522 43.76876 163.35522Q41.64376 163.35522 40.64376 164.18335Q39.64376 164.99585 39.64376 166.19897Q39.64376 167.37085 40.61251 168.16772Q41.565636 168.94897 43.628136 168.94897ZM45.45626 152.01147L45.690636 150.19897Q47.26876 150.62085 48.159386 151.79272Q49.034386 152.94897 49.034386 154.76147Q49.034386 157.0271 47.64376 158.37085Q46.23751 159.69897 43.70626 159.69897Q41.08126 159.69897 39.64376 158.35522Q38.190636 157.01147 38.190636 154.85522Q38.190636 152.7771 39.61251 151.4646Q41.01876 150.13647 43.596886 150.13647Q43.753136 150.13647 44.065636 150.1521L44.065636 157.88647Q45.76876 157.79272 46.67501 156.91772Q47.58126 156.04272 47.58126 154.74585Q47.58126 153.7771 47.08126 153.10522Q46.565636 152.41772 45.45626 152.01147ZM42.61251 157.79272L42.61251 151.99585Q41.315636 152.10522 40.659386 152.6521Q39.64376 153.49585 39.64376 154.8396Q39.64376 156.04272 40.45626 156.87085Q41.253136 157.69897 42.61251 157.79272ZM48.80001 148.13647L38.42501 148.13647L38.42501 146.55835L40.003136 146.55835Q38.89376 145.94897 38.55001 145.43335Q38.190636 144.91772 38.190636 144.30835Q38.190636 143.41772 38.753136 142.49585L40.39376 143.10522Q40.003136 143.74585 40.003136 144.38647Q40.003136 144.9646 40.36251 145.43335Q40.70626 145.88647 41.315636 146.0896Q42.253136 146.37085 43.36251 146.37085L48.80001 146.37085L48.80001 148.13647ZM45.70626 141.82397L45.42501 140.07397Q46.471886 139.93335 47.034386 139.26147Q47.58126 138.5896 47.58126 137.38647Q47.58126 136.18335 47.096886 135.60522Q46.596886 135.01147 45.940636 135.01147Q45.346886 135.01147 45.003136 135.5271Q44.76876 135.88647 44.409386 137.32397Q43.909386 139.26147 43.565636 140.01147Q43.20626 140.74585 42.58126 141.13647Q41.940636 141.5271 41.17501 141.5271Q40.48751 141.5271 39.89376 141.2146Q39.30001 140.88647 38.909386 140.3396Q38.61251 139.93335 38.409386 139.23022Q38.190636 138.51147 38.190636 137.69897Q38.190636 136.48022 38.55001 135.55835Q38.89376 134.63647 39.503136 134.19897Q40.096886 133.76147 41.096886 133.5896L41.33126 135.30835Q40.534386 135.43335 40.096886 135.99585Q39.64376 136.55835 39.64376 137.57397Q39.64376 138.79272 40.05001 139.30835Q40.440636 139.82397 40.971886 139.82397Q41.315636 139.82397 41.596886 139.60522Q41.878136 139.4021 42.065636 138.93335Q42.159386 138.66772 42.503136 137.38647Q43.003136 135.51147 43.33126 134.7771Q43.64376 134.04272 44.253136 133.62085Q44.846886 133.19897 45.753136 133.19897Q46.628136 133.19897 47.409386 133.7146Q48.190636 134.23022 48.61251 135.19897Q49.034386 136.16772 49.034386 137.38647Q49.034386 139.4021 48.190636 140.4646Q47.346886 141.5271 45.70626 141.82397Z" fill-rule="nonzero"/><path fill="#000000" d="M84.31563 487.2625L84.31563 485.84064L88.62813 485.84064L88.62813 487.2625L84.31563 487.2625ZM94.76875 490.7L93.3625 490.7L93.3625 481.73126Q92.84688 482.21564 92.01875 482.7Q91.20625 483.1844 90.55 483.4344L90.55 482.075Q91.72188 481.5125 92.59688 480.73126Q93.4875 479.9344 93.8625 479.2L94.76875 479.2L94.76875 490.7ZM98.47188 485.04376Q98.47188 483.0125 98.87813 481.77814Q99.3 480.54376 100.12813 479.8719Q100.95625 479.2 102.20625 479.2Q103.12813 479.2 103.81563 479.575Q104.51875 479.9344 104.97188 480.6375Q105.425 481.34064 105.675 482.34064Q105.94063 483.34064 105.94063 485.04376Q105.94063 487.0594 105.51875 488.3094Q105.1125 489.54376 104.28438 490.23126Q103.45625 490.90314 102.20625 490.90314Q100.55 490.90314 99.59688 489.7Q98.47188 488.27814 98.47188 485.04376ZM99.90938 485.04376Q99.90938 487.8719 100.56563 488.8094Q101.2375 489.73126 102.20625 489.73126Q103.175 489.73126 103.83125 488.79376Q104.4875 487.85626 104.4875 485.04376Q104.4875 482.21564 103.83125 481.29376Q103.175 480.35626 102.19063 480.35626Q101.22188 480.35626 100.64375 481.1844Q99.90938 482.23126 99.90938 485.04376ZM107.7375 481.9969Q107.7375 480.7625 108.34688 479.90314Q108.97188 479.04376 110.14375 479.04376Q111.22188 479.04376 111.925 479.825Q112.62813 480.59064 112.62813 482.075Q112.62813 483.52814 111.90938 484.325Q111.20625 485.10626 110.15938 485.10626Q109.1125 485.10626 108.425 484.34064Q107.7375 483.5594 107.7375 481.9969ZM110.175 480.0125Q109.65938 480.0125 109.3 480.46564Q108.95625 480.91876 108.95625 482.1375Q108.95625 483.23126 109.3 483.6844Q109.65938 484.1375 110.175 484.1375Q110.70625 484.1375 111.05 483.6844Q111.40938 483.23126 111.40938 482.02814Q111.40938 480.91876 111.05 480.46564Q110.70625 480.0125 110.175 480.0125ZM110.19063 491.1219L116.45625 479.04376L117.59688 479.04376L111.34688 491.1219L110.19063 491.1219ZM115.14375 488.0125Q115.14375 486.77814 115.75313 485.91876Q116.37813 485.0594 117.55 485.0594Q118.62813 485.0594 119.33125 485.84064Q120.05 486.60626 120.05 488.09064Q120.05 489.54376 119.33125 490.34064Q118.6125 491.1219 117.56563 491.1219Q116.51875 491.1219 115.83125 490.34064Q115.14375 489.5594 115.14375 488.0125ZM117.59688 486.02814Q117.06563 486.02814 116.70625 486.48126Q116.3625 486.9344 116.3625 488.15314Q116.3625 489.2469 116.70625 489.7Q117.06563 490.15314 117.58125 490.15314Q118.12813 490.15314 118.47188 489.7Q118.81563 489.2469 118.81563 488.04376Q118.81563 486.9344 118.45625 486.48126Q118.1125 486.02814 117.59688 486.02814Z" fill-rule="nonzero"/><path fill="#000000" d="M98.47188 419.87152Q98.47188 417.84027 98.87813 416.6059Q99.3 415.37152 100.12813 414.69965Q100.95625 414.02777 102.20625 414.02777Q103.12813 414.02777 103.81563 414.40277Q104.51875 414.76215 104.97188 415.46527Q105.425 416.1684 105.675 417.1684Q105.94063 418.1684 105.94063 419.87152Q105.94063 421.88715 105.51875 423.13715Q105.1125 424.37152 104.28438 425.05902Q103.45625 425.7309 102.20625 425.7309Q100.55 425.7309 99.59688 424.52777Q98.47188 423.1059 98.47188 419.87152ZM99.90938 419.87152Q99.90938 422.69965 100.56563 423.63715Q101.2375 424.55902 102.20625 424.55902Q103.175 424.55902 103.83125 423.62152Q104.4875 422.68402 104.4875 419.87152Q104.4875 417.0434 103.83125 416.12152Q103.175 415.18402 102.19063 415.18402Q101.22188 415.18402 100.64375 416.01215Q99.90938 417.05902 99.90938 419.87152ZM107.7375 416.82465Q107.7375 415.59027 108.34688 414.7309Q108.97188 413.87152 110.14375 413.87152Q111.22188 413.87152 111.925 414.65277Q112.62813 415.4184 112.62813 416.90277Q112.62813 418.3559 111.90938 419.15277Q111.20625 419.93402 110.15938 419.93402Q109.1125 419.93402 108.425 419.1684Q107.7375 418.38715 107.7375 416.82465ZM110.175 414.84027Q109.65938 414.84027 109.3 415.2934Q108.95625 415.74652 108.95625 416.96527Q108.95625 418.05902 109.3 418.51215Q109.65938 418.96527 110.175 418.96527Q110.70625 418.96527 111.05 418.51215Q111.40938 418.05902 111.40938 416.8559Q111.40938 415.74652 111.05 415.2934Q110.70625 414.84027 110.175 414.84027ZM110.19063 425.94965L116.45625 413.87152L117.59688 413.87152L111.34688 425.94965L110.19063 425.94965ZM115.14375 422.84027Q115.14375 421.6059 115.75313 420.74652Q116.37813 419.88715 117.55 419.88715Q118.62813 419.88715 119.33125 420.6684Q120.05 421.43402 120.05 422.9184Q120.05 424.37152 119.33125 425.1684Q118.6125 425.94965 117.56563 425.94965Q116.51875 425.94965 115.83125 425.1684Q115.14375 424.38715 115.14375 422.84027ZM117.59688 420.8559Q117.06563 420.8559 116.70625 421.30902Q116.3625 421.76215 116.3625 422.9809Q116.3625 424.07465 116.70625 424.52777Q117.06563 424.9809 117.58125 424.9809Q118.12813 424.9809 118.47188 424.52777Q118.81563 424.07465 118.81563 422.87152Q118.81563 421.76215 118.45625 421.30902Q118.1125 420.8559 117.59688 420.8559Z" fill-rule="nonzero"/><path fill="#000000" d="M94.76875 360.35556L93.3625 360.35556L93.3625 351.3868Q92.84688 351.8712 92.01875 352.35556Q91.20625 352.83994 90.55 353.08994L90.55 351.73056Q91.72188 351.16806 92.59688 350.3868Q93.4875 349.58994 93.8625 348.85556L94.76875 348.85556L94.76875 360.35556ZM98.47188 354.6993Q98.47188 352.66806 98.87813 351.4337Q99.3 350.1993 100.12813 349.52744Q100.95625 348.85556 102.20625 348.85556Q103.12813 348.85556 103.81563 349.23056Q104.51875 349.58994 104.97188 350.29306Q105.425 350.9962 105.675 351.9962Q105.94063 352.9962 105.94063 354.6993Q105.94063 356.71494 105.51875 357.96494Q105.1125 359.1993 104.28438 359.8868Q103.45625 360.5587 102.20625 360.5587Q100.55 360.5587 99.59688 359.35556Q98.47188 357.9337 98.47188 354.6993ZM99.90938 354.6993Q99.90938 357.52744 100.56563 358.46494Q101.2375 359.3868 102.20625 359.3868Q103.175 359.3868 103.83125 358.4493Q104.4875 357.5118 104.4875 354.6993Q104.4875 351.8712 103.83125 350.9493Q103.175 350.0118 102.19063 350.0118Q101.22188 350.0118 100.64375 350.83994Q99.90938 351.8868 99.90938 354.6993ZM107.7375 351.65244Q107.7375 350.41806 108.34688 349.5587Q108.97188 348.6993 110.14375 348.6993Q111.22188 348.6993 111.925 349.48056Q112.62813 350.2462 112.62813 351.73056Q112.62813 353.1837 111.90938 353.98056Q111.20625 354.7618 110.15938 354.7618Q109.1125 354.7618 108.425 353.9962Q107.7375 353.21494 107.7375 351.65244ZM110.175 349.66806Q109.65938 349.66806 109.3 350.1212Q108.95625 350.5743 108.95625 351.79306Q108.95625 352.8868 109.3 353.33994Q109.65938 353.79306 110.175 353.79306Q110.70625 353.79306 111.05 353.33994Q111.40938 352.8868 111.40938 351.6837Q111.40938 350.5743 111.05 350.1212Q110.70625 349.66806 110.175 349.66806ZM110.19063 360.77744L116.45625 348.6993L117.59688 348.6993L111.34688 360.77744L110.19063 360.77744ZM115.14375 357.66806Q115.14375 356.4337 115.75313 355.5743Q116.37813 354.71494 117.55 354.71494Q118.62813 354.71494 119.33125 355.4962Q120.05 356.2618 120.05 357.7462Q120.05 359.1993 119.33125 359.9962Q118.6125 360.77744 117.56563 360.77744Q116.51875 360.77744 115.83125 359.9962Q115.14375 359.21494 115.14375 357.66806ZM117.59688 355.6837Q117.06563 355.6837 116.70625 356.1368Q116.3625 356.58994 116.3625 357.8087Q116.3625 358.90244 116.70625 359.35556Q117.06563 359.8087 117.58125 359.8087Q118.12813 359.8087 118.47188 359.35556Q118.81563 358.90244 118.81563 357.6993Q118.81563 356.58994 118.45625 356.1368Q118.1125 355.6837 117.59688 355.6837Z" fill-rule="nonzero"/><path fill="#000000" d="M96.8625 293.82394L96.8625 295.18332L89.28438 295.18332Q89.26875 294.6677 89.45625 294.19894Q89.7375 293.43332 90.37813 292.68332Q91.01875 291.93332 92.22188 290.94894Q94.08125 289.4177 94.7375 288.52707Q95.39375 287.62082 95.39375 286.82394Q95.39375 285.99582 94.8 285.4177Q94.20625 284.83957 93.2375 284.83957Q92.22188 284.83957 91.6125 285.44894Q91.00313 286.05832 91.00313 287.13644L89.55 286.99582Q89.70625 285.37082 90.675 284.52707Q91.64375 283.68332 93.26875 283.68332Q94.925 283.68332 95.87813 284.6052Q96.84688 285.51144 96.84688 286.8552Q96.84688 287.5427 96.56563 288.21457Q96.28438 288.87082 95.62813 289.6052Q94.97188 290.33957 93.45625 291.62082Q92.19063 292.68332 91.83125 293.07394Q91.47188 293.44894 91.2375 293.82394L96.8625 293.82394ZM98.47188 289.52707Q98.47188 287.49582 98.87813 286.26144Q99.3 285.02707 100.12813 284.3552Q100.95625 283.68332 102.20625 283.68332Q103.12813 283.68332 103.81563 284.05832Q104.51875 284.4177 104.97188 285.12082Q105.425 285.82394 105.675 286.82394Q105.94063 287.82394 105.94063 289.52707Q105.94063 291.5427 105.51875 292.7927Q105.1125 294.02707 104.28438 294.71457Q103.45625 295.38644 102.20625 295.38644Q100.55 295.38644 99.59688 294.18332Q98.47188 292.76144 98.47188 289.52707ZM99.90938 289.52707Q99.90938 292.3552 100.56563 293.2927Q101.2375 294.21457 102.20625 294.21457Q103.175 294.21457 103.83125 293.27707Q104.4875 292.33957 104.4875 289.52707Q104.4875 286.69894 103.83125 285.77707Q103.175 284.83957 102.19063 284.83957Q101.22188 284.83957 100.64375 285.6677Q99.90938 286.71457 99.90938 289.52707ZM107.7375 286.4802Q107.7375 285.24582 108.34688 284.38644Q108.97188 283.52707 110.14375 283.52707Q111.22188 283.52707 111.925 284.30832Q112.62813 285.07394 112.62813 286.55832Q112.62813 288.01144 111.90938 288.80832Q111.20625 289.58957 110.15938 289.58957Q109.1125 289.58957 108.425 288.82394Q107.7375 288.0427 107.7375 286.4802ZM110.175 284.49582Q109.65938 284.49582 109.3 284.94894Q108.95625 285.40207 108.95625 286.62082Q108.95625 287.71457 109.3 288.1677Q109.65938 288.62082 110.175 288.62082Q110.70625 288.62082 111.05 288.1677Q111.40938 287.71457 111.40938 286.51144Q111.40938 285.40207 111.05 284.94894Q110.70625 284.49582 110.175 284.49582ZM110.19063 295.6052L116.45625 283.52707L117.59688 283.52707L111.34688 295.6052L110.19063 295.6052ZM115.14375 292.49582Q115.14375 291.26144 115.75313 290.40207Q116.37813 289.5427 117.55 289.5427Q118.62813 289.5427 119.33125 290.32394Q120.05 291.08957 120.05 292.57394Q120.05 294.02707 119.33125 294.82394Q118.6125 295.6052 117.56563 295.6052Q116.51875 295.6052 115.83125 294.82394Q115.14375 294.0427 115.14375 292.49582ZM117.59688 290.51144Q117.06563 290.51144 116.70625 290.96457Q116.3625 291.4177 116.3625 292.63644Q116.3625 293.7302 116.70625 294.18332Q117.06563 294.63644 117.58125 294.63644Q118.12813 294.63644 118.47188 294.18332Q118.81563 293.7302 118.81563 292.52707Q118.81563 291.4177 118.45625 290.96457Q118.1125 290.51144 117.59688 290.51144Z" fill-rule="nonzero"/><path fill="#000000" d="M89.47188 226.97986L90.87813 226.79236Q91.12813 227.99548 91.70625 228.52673Q92.28438 229.04236 93.12813 229.04236Q94.1125 229.04236 94.8 228.35486Q95.4875 227.66736 95.4875 226.65173Q95.4875 225.68298 94.84688 225.05798Q94.22188 224.43298 93.2375 224.43298Q92.84688 224.43298 92.25313 224.58923L92.40938 223.35486Q92.55 223.37048 92.62813 223.37048Q93.53438 223.37048 94.25313 222.90173Q94.97188 222.43298 94.97188 221.44861Q94.97188 220.68298 94.44063 220.18298Q93.925 219.66736 93.09688 219.66736Q92.26875 219.66736 91.72188 220.18298Q91.175 220.69861 91.01875 221.72986L89.6125 221.47986Q89.87813 220.05798 90.78438 219.29236Q91.70625 218.51111 93.06563 218.51111Q94.00313 218.51111 94.78438 218.91736Q95.58125 219.30798 95.9875 220.01111Q96.40938 220.69861 96.40938 221.47986Q96.40938 222.22986 96.00313 222.83923Q95.6125 223.44861 94.83125 223.80798Q95.84688 224.04236 96.40938 224.77673Q96.97188 225.51111 96.97188 226.62048Q96.97188 228.12048 95.87813 229.16736Q94.78438 230.21423 93.1125 230.21423Q91.6125 230.21423 90.6125 229.32361Q89.6125 228.41736 89.47188 226.97986ZM98.47188 224.35486Q98.47188 222.32361 98.87813 221.08923Q99.3 219.85486 100.12813 219.18298Q100.95625 218.51111 102.20625 218.51111Q103.12813 218.51111 103.81563 218.88611Q104.51875 219.24548 104.97188 219.94861Q105.425 220.65173 105.675 221.65173Q105.94063 222.65173 105.94063 224.35486Q105.94063 226.37048 105.51875 227.62048Q105.1125 228.85486 104.28438 229.54236Q103.45625 230.21423 102.20625 230.21423Q100.55 230.21423 99.59688 229.01111Q98.47188 227.58923 98.47188 224.35486ZM99.90938 224.35486Q99.90938 227.18298 100.56563 228.12048Q101.2375 229.04236 102.20625 229.04236Q103.175 229.04236 103.83125 228.10486Q104.4875 227.16736 104.4875 224.35486Q104.4875 221.52673 103.83125 220.60486Q103.175 219.66736 102.19063 219.66736Q101.22188 219.66736 100.64375 220.49548Q99.90938 221.54236 99.90938 224.35486ZM107.7375 221.30798Q107.7375 220.07361 108.34688 219.21423Q108.97188 218.35486 110.14375 218.35486Q111.22188 218.35486 111.925 219.13611Q112.62813 219.90173 112.62813 221.38611Q112.62813 222.83923 111.90938 223.63611Q111.20625 224.41736 110.15938 224.41736Q109.1125 224.41736 108.425 223.65173Q107.7375 222.87048 107.7375 221.30798ZM110.175 219.32361Q109.65938 219.32361 109.3 219.77673Q108.95625 220.22986 108.95625 221.44861Q108.95625 222.54236 109.3 222.99548Q109.65938 223.44861 110.175 223.44861Q110.70625 223.44861 111.05 222.99548Q111.40938 222.54236 111.40938 221.33923Q111.40938 220.22986 111.05 219.77673Q110.70625 219.32361 110.175 219.32361ZM110.19063 230.43298L116.45625 218.35486L117.59688 218.35486L111.34688 230.43298L110.19063 230.43298ZM115.14375 227.32361Q115.14375 226.08923 115.75313 225.22986Q116.37813 224.37048 117.55 224.37048Q118.62813 224.37048 119.33125 225.15173Q120.05 225.91736 120.05 227.40173Q120.05 228.85486 119.33125 229.65173Q118.6125 230.43298 117.56563 230.43298Q116.51875 230.43298 115.83125 229.65173Q115.14375 228.87048 115.14375 227.32361ZM117.59688 225.33923Q117.06563 225.33923 116.70625 225.79236Q116.3625 226.24548 116.3625 227.46423Q116.3625 228.55798 116.70625 229.01111Q117.06563 229.46423 117.58125 229.46423Q118.12813 229.46423 118.47188 229.01111Q118.81563 228.55798 118.81563 227.35486Q118.81563 226.24548 118.45625 225.79236Q118.1125 225.33923 117.59688 225.33923Z" fill-rule="nonzero"/><path fill="#000000" d="M93.97188 164.83888L93.97188 162.08888L89.00313 162.08888L89.00313 160.80763L94.2375 153.38576L95.37813 153.38576L95.37813 160.80763L96.925 160.80763L96.925 162.08888L95.37813 162.08888L95.37813 164.83888L93.97188 164.83888ZM93.97188 160.80763L93.97188 155.63576L90.39375 160.80763L93.97188 160.80763ZM98.47188 159.18263Q98.47188 157.15138 98.87813 155.917Q99.3 154.68263 100.12813 154.01076Q100.95625 153.33888 102.20625 153.33888Q103.12813 153.33888 103.81563 153.71388Q104.51875 154.07326 104.97188 154.77638Q105.425 155.4795 105.675 156.4795Q105.94063 157.4795 105.94063 159.18263Q105.94063 161.19826 105.51875 162.44826Q105.1125 163.68263 104.28438 164.37013Q103.45625 165.042 102.20625 165.042Q100.55 165.042 99.59688 163.83888Q98.47188 162.417 98.47188 159.18263ZM99.90938 159.18263Q99.90938 162.01076 100.56563 162.94826Q101.2375 163.87013 102.20625 163.87013Q103.175 163.87013 103.83125 162.93263Q104.4875 161.99513 104.4875 159.18263Q104.4875 156.3545 103.83125 155.43263Q103.175 154.49513 102.19063 154.49513Q101.22188 154.49513 100.64375 155.32326Q99.90938 156.37013 99.90938 159.18263ZM107.7375 156.13576Q107.7375 154.90138 108.34688 154.042Q108.97188 153.18263 110.14375 153.18263Q111.22188 153.18263 111.925 153.96388Q112.62813 154.7295 112.62813 156.21388Q112.62813 157.667 111.90938 158.46388Q111.20625 159.24513 110.15938 159.24513Q109.1125 159.24513 108.425 158.4795Q107.7375 157.69826 107.7375 156.13576ZM110.175 154.15138Q109.65938 154.15138 109.3 154.6045Q108.95625 155.05763 108.95625 156.27638Q108.95625 157.37013 109.3 157.82326Q109.65938 158.27638 110.175 158.27638Q110.70625 158.27638 111.05 157.82326Q111.40938 157.37013 111.40938 156.167Q111.40938 155.05763 111.05 154.6045Q110.70625 154.15138 110.175 154.15138ZM110.19063 165.26076L116.45625 153.18263L117.59688 153.18263L111.34688 165.26076L110.19063 165.26076ZM115.14375 162.15138Q115.14375 160.917 115.75313 160.05763Q116.37813 159.19826 117.55 159.19826Q118.62813 159.19826 119.33125 159.9795Q120.05 160.74513 120.05 162.2295Q120.05 163.68263 119.33125 164.4795Q118.6125 165.26076 117.56563 165.26076Q116.51875 165.26076 115.83125 164.4795Q115.14375 163.69826 115.14375 162.15138ZM117.59688 160.167Q117.06563 160.167 116.70625 160.62013Q116.3625 161.07326 116.3625 162.292Q116.3625 163.38576 116.70625 163.83888Q117.06563 164.292 117.58125 164.292Q118.12813 164.292 118.47188 163.83888Q118.81563 163.38576 118.81563 162.18263Q118.81563 161.07326 118.45625 160.62013Q118.1125 160.167 117.59688 160.167Z" fill-rule="nonzero"/><path fill="#000000" d="M89.47188 96.666664L90.94063 96.541664Q91.1125 97.61979 91.70625 98.166664Q92.3 98.697914 93.14375 98.697914Q94.15938 98.697914 94.8625 97.93229Q95.56563 97.166664 95.56563 95.90104Q95.56563 94.697914 94.89375 94.010414Q94.22188 93.30729 93.12813 93.30729Q92.44063 93.30729 91.89375 93.61979Q91.34688 93.93229 91.03438 94.416664L89.72188 94.24479L90.83125 88.36979L96.51875 88.36979L96.51875 89.71354L91.95625 89.71354L91.33125 92.791664Q92.3625 92.072914 93.50313 92.072914Q95.00313 92.072914 96.03438 93.11979Q97.06563 94.15104 97.06563 95.77604Q97.06563 97.33854 96.15938 98.46354Q95.05 99.86979 93.14375 99.86979Q91.58125 99.86979 90.59688 98.99479Q89.6125 98.104164 89.47188 96.666664ZM98.47188 94.010414Q98.47188 91.979164 98.87813 90.74479Q99.3 89.510414 100.12813 88.83854Q100.95625 88.166664 102.20625 88.166664Q103.12813 88.166664 103.81563 88.541664Q104.51875 88.90104 104.97188 89.604164Q105.425 90.30729 105.675 91.30729Q105.94063 92.30729 105.94063 94.010414Q105.94063 96.02604 105.51875 97.27604Q105.1125 98.510414 104.28438 99.197914Q103.45625 99.86979 102.20625 99.86979Q100.55 99.86979 99.59688 98.666664Q98.47188 97.24479 98.47188 94.010414ZM99.90938 94.010414Q99.90938 96.83854 100.56563 97.77604Q101.2375 98.697914 102.20625 98.697914Q103.175 98.697914 103.83125 97.760414Q104.4875 96.822914 104.4875 94.010414Q104.4875 91.18229 103.83125 90.260414Q103.175 89.322914 102.19063 89.322914Q101.22188 89.322914 100.64375 90.15104Q99.90938 91.197914 99.90938 94.010414ZM107.7375 90.96354Q107.7375 89.729164 108.34688 88.86979Q108.97188 88.010414 110.14375 88.010414Q111.22188 88.010414 111.925 88.791664Q112.62813 89.55729 112.62813 91.041664Q112.62813 92.49479 111.90938 93.291664Q111.20625 94.072914 110.15938 94.072914Q109.1125 94.072914 108.425 93.30729Q107.7375 92.52604 107.7375 90.96354ZM110.175 88.979164Q109.65938 88.979164 109.3 89.43229Q108.95625 89.885414 108.95625 91.104164Q108.95625 92.197914 109.3 92.65104Q109.65938 93.104164 110.175 93.104164Q110.70625 93.104164 111.05 92.65104Q111.40938 92.197914 111.40938 90.99479Q111.40938 89.885414 111.05 89.43229Q110.70625 88.979164 110.175 88.979164ZM110.19063 100.08854L116.45625 88.010414L117.59688 88.010414L111.34688 100.08854L110.19063 100.08854ZM115.14375 96.979164Q115.14375 95.74479 115.75313 94.885414Q116.37813 94.02604 117.55 94.02604Q118.62813 94.02604 119.33125 94.80729Q120.05 95.572914 120.05 97.05729Q120.05 98.510414 119.33125 99.30729Q118.6125 100.08854 117.56563 100.08854Q116.51875 100.08854 115.83125 99.30729Q115.14375 98.52604 115.14375 96.979164ZM117.59688 94.99479Q117.06563 94.99479 116.70625 95.447914Q116.3625 95.90104 116.3625 97.11979Q116.3625 98.21354 116.70625 98.666664Q117.06563 99.11979 117.58125 99.11979Q118.12813 99.11979 118.47188 98.666664Q118.81563 98.21354 118.81563 97.010414Q118.81563 95.90104 118.45625 95.447914Q118.1125 94.99479 117.59688 94.99479Z" fill-rule="nonzero"/><path fill="#000000" d="M110.81563 504.7625L110.81563 503.34064L115.12813 503.34064L115.12813 504.7625L110.81563 504.7625ZM121.26875 508.2L119.8625 508.2L119.8625 499.23126Q119.34688 499.71564 118.51875 500.2Q117.70625 500.6844 117.05 500.9344L117.05 499.575Q118.22188 499.0125 119.09688 498.23126Q119.9875 497.4344 120.3625 496.7L121.26875 496.7L121.26875 508.2ZM124.97188 502.54376Q124.97188 500.5125 125.37813 499.27814Q125.8 498.04376 126.62813 497.3719Q127.45625 496.7 128.70625 496.7Q129.62813 496.7 130.31563 497.075Q131.01875 497.4344 131.47188 498.1375Q131.925 498.84064 132.175 499.84064Q132.44063 500.84064 132.44063 502.54376Q132.44063 504.5594 132.01875 505.8094Q131.6125 507.04376 130.78438 507.73126Q129.95625 508.40314 128.70625 508.40314Q127.05 508.40314 126.09688 507.2Q124.97188 505.77814 124.97188 502.54376ZM126.40938 502.54376Q126.40938 505.3719 127.06563 506.3094Q127.7375 507.23126 128.70625 507.23126Q129.675 507.23126 130.33125 506.29376Q130.9875 505.35626 130.9875 502.54376Q130.9875 499.71564 130.33125 498.79376Q129.675 497.85626 128.69063 497.85626Q127.72188 497.85626 127.14375 498.6844Q126.40938 499.73126 126.40938 502.54376ZM134.2375 499.4969Q134.2375 498.2625 134.84688 497.40314Q135.47188 496.54376 136.64375 496.54376Q137.72188 496.54376 138.425 497.325Q139.12813 498.09064 139.12813 499.575Q139.12813 501.02814 138.40938 501.825Q137.70625 502.60626 136.65938 502.60626Q135.6125 502.60626 134.925 501.84064Q134.2375 501.0594 134.2375 499.4969ZM136.675 497.5125Q136.15938 497.5125 135.8 497.96564Q135.45625 498.41876 135.45625 499.6375Q135.45625 500.73126 135.8 501.1844Q136.15938 501.6375 136.675 501.6375Q137.20625 501.6375 137.55 501.1844Q137.90938 500.73126 137.90938 499.52814Q137.90938 498.41876 137.55 497.96564Q137.20625 497.5125 136.675 497.5125ZM136.69063 508.6219L142.95625 496.54376L144.09688 496.54376L137.84688 508.6219L136.69063 508.6219ZM141.64375 505.5125Q141.64375 504.27814 142.25313 503.41876Q142.87813 502.5594 144.05 502.5594Q145.12813 502.5594 145.83125 503.34064Q146.55 504.10626 146.55 505.59064Q146.55 507.04376 145.83125 507.84064Q145.1125 508.6219 144.06563 508.6219Q143.01875 508.6219 142.33125 507.84064Q141.64375 507.0594 141.64375 505.5125ZM144.09688 503.52814Q143.56563 503.52814 143.20625 503.98126Q142.8625 504.4344 142.8625 505.65314Q142.8625 506.7469 143.20625 507.2Q143.56563 507.65314 144.08125 507.65314Q144.62813 507.65314 144.97188 507.2Q145.31563 506.7469 145.31563 505.54376Q145.31563 504.4344 144.95625 503.98126Q144.6125 503.52814 144.09688 503.52814Z" fill-rule="nonzero"/><path fill="#000000" d="M191.53854 502.54376Q191.53854 500.5125 191.9448 499.27814Q192.36667 498.04376 193.1948 497.3719Q194.02292 496.7 195.27292 496.7Q196.1948 496.7 196.8823 497.075Q197.58542 497.4344 198.03854 498.1375Q198.49167 498.84064 198.74167 499.84064Q199.0073 500.84064 199.0073 502.54376Q199.0073 504.5594 198.58542 505.8094Q198.17917 507.04376 197.35104 507.73126Q196.52292 508.40314 195.27292 508.40314Q193.61667 508.40314 192.66354 507.2Q191.53854 505.77814 191.53854 502.54376ZM192.97604 502.54376Q192.97604 505.3719 193.6323 506.3094Q194.30417 507.23126 195.27292 507.23126Q196.24167 507.23126 196.89792 506.29376Q197.55417 505.35626 197.55417 502.54376Q197.55417 499.71564 196.89792 498.79376Q196.24167 497.85626 195.2573 497.85626Q194.28854 497.85626 193.71042 498.6844Q192.97604 499.73126 192.97604 502.54376ZM200.80417 499.4969Q200.80417 498.2625 201.41354 497.40314Q202.03854 496.54376 203.21042 496.54376Q204.28854 496.54376 204.99167 497.325Q205.6948 498.09064 205.6948 499.575Q205.6948 501.02814 204.97604 501.825Q204.27292 502.60626 203.22604 502.60626Q202.17917 502.60626 201.49167 501.84064Q200.80417 501.0594 200.80417 499.4969ZM203.24167 497.5125Q202.72604 497.5125 202.36667 497.96564Q202.02292 498.41876 202.02292 499.6375Q202.02292 500.73126 202.36667 501.1844Q202.72604 501.6375 203.24167 501.6375Q203.77292 501.6375 204.11667 501.1844Q204.47604 500.73126 204.47604 499.52814Q204.47604 498.41876 204.11667 497.96564Q203.77292 497.5125 203.24167 497.5125ZM203.2573 508.6219L209.52292 496.54376L210.66354 496.54376L204.41354 508.6219L203.2573 508.6219ZM208.21042 505.5125Q208.21042 504.27814 208.8198 503.41876Q209.4448 502.5594 210.61667 502.5594Q211.6948 502.5594 212.39792 503.34064Q213.11667 504.10626 213.11667 505.59064Q213.11667 507.04376 212.39792 507.84064Q211.67917 508.6219 210.6323 508.6219Q209.58542 508.6219 208.89792 507.84064Q208.21042 507.0594 208.21042 505.5125ZM210.66354 503.52814Q210.1323 503.52814 209.77292 503.98126Q209.42917 504.4344 209.42917 505.65314Q209.42917 506.7469 209.77292 507.2Q210.1323 507.65314 210.64792 507.65314Q211.1948 507.65314 211.53854 507.2Q211.8823 506.7469 211.8823 505.54376Q211.8823 504.4344 211.52292 503.98126Q211.17917 503.52814 210.66354 503.52814Z" fill-rule="nonzero"/><path fill="#000000" d="M265.90207 508.2L264.49582 508.2L264.49582 499.23126Q263.9802 499.71564 263.15207 500.2Q262.33957 500.6844 261.68332 500.9344L261.68332 499.575Q262.8552 499.0125 263.7302 498.23126Q264.62082 497.4344 264.99582 496.7L265.90207 496.7L265.90207 508.2ZM269.6052 502.54376Q269.6052 500.5125 270.01144 499.27814Q270.43332 498.04376 271.26144 497.3719Q272.08957 496.7 273.33957 496.7Q274.26144 496.7 274.94894 497.075Q275.65207 497.4344 276.1052 498.1375Q276.55832 498.84064 276.80832 499.84064Q277.07394 500.84064 277.07394 502.54376Q277.07394 504.5594 276.65207 505.8094Q276.24582 507.04376 275.4177 507.73126Q274.58957 508.40314 273.33957 508.40314Q271.68332 508.40314 270.7302 507.2Q269.6052 505.77814 269.6052 502.54376ZM271.0427 502.54376Q271.0427 505.3719 271.69894 506.3094Q272.37082 507.23126 273.33957 507.23126Q274.30832 507.23126 274.96457 506.29376Q275.62082 505.35626 275.62082 502.54376Q275.62082 499.71564 274.96457 498.79376Q274.30832 497.85626 273.32394 497.85626Q272.3552 497.85626 271.77707 498.6844Q271.0427 499.73126 271.0427 502.54376ZM278.87082 499.4969Q278.87082 498.2625 279.4802 497.40314Q280.1052 496.54376 281.27707 496.54376Q282.3552 496.54376 283.05832 497.325Q283.76144 498.09064 283.76144 499.575Q283.76144 501.02814 283.0427 501.825Q282.33957 502.60626 281.2927 502.60626Q280.24582 502.60626 279.55832 501.84064Q278.87082 501.0594 278.87082 499.4969ZM281.30832 497.5125Q280.7927 497.5125 280.43332 497.96564Q280.08957 498.41876 280.08957 499.6375Q280.08957 500.73126 280.43332 501.1844Q280.7927 501.6375 281.30832 501.6375Q281.83957 501.6375 282.18332 501.1844Q282.5427 500.73126 282.5427 499.52814Q282.5427 498.41876 282.18332 497.96564Q281.83957 497.5125 281.30832 497.5125ZM281.32394 508.6219L287.58957 496.54376L288.7302 496.54376L282.4802 508.6219L281.32394 508.6219ZM286.27707 505.5125Q286.27707 504.27814 286.88644 503.41876Q287.51144 502.5594 288.68332 502.5594Q289.76144 502.5594 290.46457 503.34064Q291.18332 504.10626 291.18332 505.59064Q291.18332 507.04376 290.46457 507.84064Q289.74582 508.6219 288.69894 508.6219Q287.65207 508.6219 286.96457 507.84064Q286.27707 507.0594 286.27707 505.5125ZM288.7302 503.52814Q288.19894 503.52814 287.83957 503.98126Q287.49582 504.4344 287.49582 505.65314Q287.49582 506.7469 287.83957 507.2Q288.19894 507.65314 288.71457 507.65314Q289.26144 507.65314 289.6052 507.2Q289.94894 506.7469 289.94894 505.54376Q289.94894 504.4344 289.58957 503.98126Q289.24582 503.52814 288.7302 503.52814Z" fill-rule="nonzero"/><path fill="#000000" d="M341.5625 506.84064L341.5625 508.2L333.98438 508.2Q333.96875 507.6844 334.15625 507.21564Q334.4375 506.45 335.07812 505.7Q335.71875 504.95 336.92188 503.96564Q338.78125 502.4344 339.4375 501.54376Q340.09375 500.6375 340.09375 499.84064Q340.09375 499.0125 339.5 498.4344Q338.90625 497.85626 337.9375 497.85626Q336.92188 497.85626 336.3125 498.46564Q335.70312 499.075 335.70312 500.15314L334.25 500.0125Q334.40625 498.3875 335.375 497.54376Q336.34375 496.7 337.96875 496.7Q339.625 496.7 340.57812 497.6219Q341.54688 498.52814 341.54688 499.8719Q341.54688 500.5594 341.26562 501.23126Q340.98438 501.8875 340.32812 502.6219Q339.67188 503.35626 338.15625 504.6375Q336.89062 505.7 336.53125 506.09064Q336.17188 506.46564 335.9375 506.84064L341.5625 506.84064ZM343.17188 502.54376Q343.17188 500.5125 343.57812 499.27814Q344.0 498.04376 344.82812 497.3719Q345.65625 496.7 346.90625 496.7Q347.82812 496.7 348.51562 497.075Q349.21875 497.4344 349.67188 498.1375Q350.125 498.84064 350.375 499.84064Q350.64062 500.84064 350.64062 502.54376Q350.64062 504.5594 350.21875 505.8094Q349.8125 507.04376 348.98438 507.73126Q348.15625 508.40314 346.90625 508.40314Q345.25 508.40314 344.29688 507.2Q343.17188 505.77814 343.17188 502.54376ZM344.60938 502.54376Q344.60938 505.3719 345.26562 506.3094Q345.9375 507.23126 346.90625 507.23126Q347.875 507.23126 348.53125 506.29376Q349.1875 505.35626 349.1875 502.54376Q349.1875 499.71564 348.53125 498.79376Q347.875 497.85626 346.89062 497.85626Q345.92188 497.85626 345.34375 498.6844Q344.60938 499.73126 344.60938 502.54376ZM352.4375 499.4969Q352.4375 498.2625 353.04688 497.40314Q353.67188 496.54376 354.84375 496.54376Q355.92188 496.54376 356.625 497.325Q357.32812 498.09064 357.32812 499.575Q357.32812 501.02814 356.60938 501.825Q355.90625 502.60626 354.85938 502.60626Q353.8125 502.60626 353.125 501.84064Q352.4375 501.0594 352.4375 499.4969ZM354.875 497.5125Q354.35938 497.5125 354.0 497.96564Q353.65625 498.41876 353.65625 499.6375Q353.65625 500.73126 354.0 501.1844Q354.35938 501.6375 354.875 501.6375Q355.40625 501.6375 355.75 501.1844Q356.10938 500.73126 356.10938 499.52814Q356.10938 498.41876 355.75 497.96564Q355.40625 497.5125 354.875 497.5125ZM354.89062 508.6219L361.15625 496.54376L362.29688 496.54376L356.04688 508.6219L354.89062 508.6219ZM359.84375 505.5125Q359.84375 504.27814 360.45312 503.41876Q361.07812 502.5594 362.25 502.5594Q363.32812 502.5594 364.03125 503.34064Q364.75 504.10626 364.75 505.59064Q364.75 507.04376 364.03125 507.84064Q363.3125 508.6219 362.26562 508.6219Q361.21875 508.6219 360.53125 507.84064Q359.84375 507.0594 359.84375 505.5125ZM362.29688 503.52814Q361.76562 503.52814 361.40625 503.98126Q361.0625 504.4344 361.0625 505.65314Q361.0625 506.7469 361.40625 507.2Q361.76562 507.65314 362.28125 507.65314Q362.82812 507.65314 363.17188 507.2Q363.51562 506.7469 363.51562 505.54376Q363.51562 504.4344 363.15625 503.98126Q362.8125 503.52814 362.29688 503.52814Z" fill-rule="nonzero"/><path fill="#000000" d="M407.73856 505.16876L409.1448 504.98126Q409.3948 506.1844 409.97293 506.71564Q410.55106 507.23126 411.3948 507.23126Q412.37918 507.23126 413.06668 506.54376Q413.75418 505.85626 413.75418 504.84064Q413.75418 503.8719 413.11356 503.2469Q412.48856 502.6219 411.50418 502.6219Q411.11356 502.6219 410.5198 502.77814L410.67606 501.54376Q410.81668 501.5594 410.8948 501.5594Q411.80106 501.5594 412.5198 501.09064Q413.23856 500.6219 413.23856 499.6375Q413.23856 498.8719 412.7073 498.3719Q412.19168 497.85626 411.36356 497.85626Q410.53543 497.85626 409.98856 498.3719Q409.44168 498.8875 409.28543 499.91876L407.87918 499.66876Q408.1448 498.2469 409.05106 497.48126Q409.97293 496.7 411.3323 496.7Q412.2698 496.7 413.05106 497.10626Q413.84793 497.4969 414.25418 498.2Q414.67606 498.8875 414.67606 499.66876Q414.67606 500.41876 414.2698 501.02814Q413.87918 501.6375 413.09793 501.9969Q414.11356 502.23126 414.67606 502.96564Q415.23856 503.7 415.23856 504.8094Q415.23856 506.3094 414.1448 507.35626Q413.05106 508.40314 411.37918 508.40314Q409.87918 508.40314 408.87918 507.5125Q407.87918 506.60626 407.73856 505.16876ZM416.73856 502.54376Q416.73856 500.5125 417.1448 499.27814Q417.56668 498.04376 418.3948 497.3719Q419.22293 496.7 420.47293 496.7Q421.3948 496.7 422.0823 497.075Q422.78543 497.4344 423.23856 498.1375Q423.69168 498.84064 423.94168 499.84064Q424.2073 500.84064 424.2073 502.54376Q424.2073 504.5594 423.78543 505.8094Q423.37918 507.04376 422.55106 507.73126Q421.72293 508.40314 420.47293 508.40314Q418.81668 508.40314 417.86356 507.2Q416.73856 505.77814 416.73856 502.54376ZM418.17606 502.54376Q418.17606 505.3719 418.8323 506.3094Q419.50418 507.23126 420.47293 507.23126Q421.44168 507.23126 422.09793 506.29376Q422.75418 505.35626 422.75418 502.54376Q422.75418 499.71564 422.09793 498.79376Q421.44168 497.85626 420.4573 497.85626Q419.48856 497.85626 418.91043 498.6844Q418.17606 499.73126 418.17606 502.54376ZM426.00418 499.4969Q426.00418 498.2625 426.61356 497.40314Q427.23856 496.54376 428.41043 496.54376Q429.48856 496.54376 430.19168 497.325Q430.8948 498.09064 430.8948 499.575Q430.8948 501.02814 430.17606 501.825Q429.47293 502.60626 428.42606 502.60626Q427.37918 502.60626 426.69168 501.84064Q426.00418 501.0594 426.00418 499.4969ZM428.44168 497.5125Q427.92606 497.5125 427.56668 497.96564Q427.22293 498.41876 427.22293 499.6375Q427.22293 500.73126 427.56668 501.1844Q427.92606 501.6375 428.44168 501.6375Q428.97293 501.6375 429.31668 501.1844Q429.67606 500.73126 429.67606 499.52814Q429.67606 498.41876 429.31668 497.96564Q428.97293 497.5125 428.44168 497.5125ZM428.4573 508.6219L434.72293 496.54376L435.86356 496.54376L429.61356 508.6219L428.4573 508.6219ZM433.41043 505.5125Q433.41043 504.27814 434.0198 503.41876Q434.6448 502.5594 435.81668 502.5594Q436.8948 502.5594 437.59793 503.34064Q438.31668 504.10626 438.31668 505.59064Q438.31668 507.04376 437.59793 507.84064Q436.87918 508.6219 435.8323 508.6219Q434.78543 508.6219 434.09793 507.84064Q433.41043 507.0594 433.41043 505.5125ZM435.86356 503.52814Q435.3323 503.52814 434.97293 503.98126Q434.62918 504.4344 434.62918 505.65314Q434.62918 506.7469 434.97293 507.2Q435.3323 507.65314 435.84793 507.65314Q436.3948 507.65314 436.73856 507.2Q437.0823 506.7469 437.0823 505.54376Q437.0823 504.4344 436.72293 503.98126Q436.37918 503.52814 435.86356 503.52814Z" fill-rule="nonzero"/><path fill="#000000" d="M485.8052 508.2L485.8052 505.45L480.83646 505.45L480.83646 504.16876L486.07083 496.7469L487.21146 496.7469L487.21146 504.16876L488.75833 504.16876L488.75833 505.45L487.21146 505.45L487.21146 508.2L485.8052 508.2ZM485.8052 504.16876L485.8052 498.9969L482.22708 504.16876L485.8052 504.16876ZM490.3052 502.54376Q490.3052 500.5125 490.71146 499.27814Q491.13333 498.04376 491.96146 497.3719Q492.78958 496.7 494.03958 496.7Q494.96146 496.7 495.64896 497.075Q496.35208 497.4344 496.8052 498.1375Q497.25833 498.84064 497.50833 499.84064Q497.77396 500.84064 497.77396 502.54376Q497.77396 504.5594 497.35208 505.8094Q496.94583 507.04376 496.1177 507.73126Q495.28958 508.40314 494.03958 508.40314Q492.38333 508.40314 491.4302 507.2Q490.3052 505.77814 490.3052 502.54376ZM491.7427 502.54376Q491.7427 505.3719 492.39896 506.3094Q493.07083 507.23126 494.03958 507.23126Q495.00833 507.23126 495.66458 506.29376Q496.32083 505.35626 496.32083 502.54376Q496.32083 499.71564 495.66458 498.79376Q495.00833 497.85626 494.02396 497.85626Q493.0552 497.85626 492.47708 498.6844Q491.7427 499.73126 491.7427 502.54376ZM499.57083 499.4969Q499.57083 498.2625 500.1802 497.40314Q500.8052 496.54376 501.97708 496.54376Q503.0552 496.54376 503.75833 497.325Q504.46146 498.09064 504.46146 499.575Q504.46146 501.02814 503.7427 501.825Q503.03958 502.60626 501.9927 502.60626Q500.94583 502.60626 500.25833 501.84064Q499.57083 501.0594 499.57083 499.4969ZM502.00833 497.5125Q501.4927 497.5125 501.13333 497.96564Q500.78958 498.41876 500.78958 499.6375Q500.78958 500.73126 501.13333 501.1844Q501.4927 501.6375 502.00833 501.6375Q502.53958 501.6375 502.88333 501.1844Q503.2427 500.73126 503.2427 499.52814Q503.2427 498.41876 502.88333 497.96564Q502.53958 497.5125 502.00833 497.5125ZM502.02396 508.6219L508.28958 496.54376L509.4302 496.54376L503.1802 508.6219L502.02396 508.6219ZM506.97708 505.5125Q506.97708 504.27814 507.58646 503.41876Q508.21146 502.5594 509.38333 502.5594Q510.46146 502.5594 511.16458 503.34064Q511.88333 504.10626 511.88333 505.59064Q511.88333 507.04376 511.16458 507.84064Q510.44583 508.6219 509.39896 508.6219Q508.35208 508.6219 507.66458 507.84064Q506.97708 507.0594 506.97708 505.5125ZM509.4302 503.52814Q508.89896 503.52814 508.53958 503.98126Q508.19583 504.4344 508.19583 505.65314Q508.19583 506.7469 508.53958 507.2Q508.89896 507.65314 509.41458 507.65314Q509.96146 507.65314 510.3052 507.2Q510.64896 506.7469 510.64896 505.54376Q510.64896 504.4344 510.28958 503.98126Q509.94583 503.52814 509.4302 503.52814Z" fill-rule="nonzero"/><path fill="#000000" d="M554.8719 505.2L556.34064 505.075Q556.5125 506.15314 557.10626 506.7Q557.7 507.23126 558.54376 507.23126Q559.5594 507.23126 560.2625 506.46564Q560.96564 505.7 560.96564 504.4344Q560.96564 503.23126 560.29376 502.54376Q559.6219 501.84064 558.52814 501.84064Q557.84064 501.84064 557.29376 502.15314Q556.7469 502.46564 556.4344 502.95L555.1219 502.77814L556.23126 496.90314L561.91876 496.90314L561.91876 498.2469L557.35626 498.2469L556.73126 501.325Q557.7625 500.60626 558.90314 500.60626Q560.40314 500.60626 561.4344 501.65314Q562.46564 502.6844 562.46564 504.3094Q562.46564 505.8719 561.5594 506.9969Q560.45 508.40314 558.54376 508.40314Q556.98126 508.40314 555.9969 507.52814Q555.0125 506.6375 554.8719 505.2ZM563.8719 502.54376Q563.8719 500.5125 564.27814 499.27814Q564.7 498.04376 565.52814 497.3719Q566.35626 496.7 567.60626 496.7Q568.52814 496.7 569.21564 497.075Q569.91876 497.4344 570.3719 498.1375Q570.825 498.84064 571.075 499.84064Q571.34064 500.84064 571.34064 502.54376Q571.34064 504.5594 570.91876 505.8094Q570.5125 507.04376 569.6844 507.73126Q568.85626 508.40314 567.60626 508.40314Q565.95 508.40314 564.9969 507.2Q563.8719 505.77814 563.8719 502.54376ZM565.3094 502.54376Q565.3094 505.3719 565.96564 506.3094Q566.6375 507.23126 567.60626 507.23126Q568.575 507.23126 569.23126 506.29376Q569.8875 505.35626 569.8875 502.54376Q569.8875 499.71564 569.23126 498.79376Q568.575 497.85626 567.59064 497.85626Q566.6219 497.85626 566.04376 498.6844Q565.3094 499.73126 565.3094 502.54376ZM573.1375 499.4969Q573.1375 498.2625 573.7469 497.40314Q574.3719 496.54376 575.54376 496.54376Q576.6219 496.54376 577.325 497.325Q578.02814 498.09064 578.02814 499.575Q578.02814 501.02814 577.3094 501.825Q576.60626 502.60626 575.5594 502.60626Q574.5125 502.60626 573.825 501.84064Q573.1375 501.0594 573.1375 499.4969ZM575.575 497.5125Q575.0594 497.5125 574.7 497.96564Q574.35626 498.41876 574.35626 499.6375Q574.35626 500.73126 574.7 501.1844Q575.0594 501.6375 575.575 501.6375Q576.10626 501.6375 576.45 501.1844Q576.8094 500.73126 576.8094 499.52814Q576.8094 498.41876 576.45 497.96564Q576.10626 497.5125 575.575 497.5125ZM575.59064 508.6219L581.85626 496.54376L582.9969 496.54376L576.7469 508.6219L575.59064 508.6219ZM580.54376 505.5125Q580.54376 504.27814 581.15314 503.41876Q581.77814 502.5594 582.95 502.5594Q584.02814 502.5594 584.73126 503.34064Q585.45 504.10626 585.45 505.59064Q585.45 507.04376 584.73126 507.84064Q584.0125 508.6219 582.96564 508.6219Q581.91876 508.6219 581.23126 507.84064Q580.54376 507.0594 580.54376 505.5125ZM582.9969 503.52814Q582.46564 503.52814 582.10626 503.98126Q581.7625 504.4344 581.7625 505.65314Q581.7625 506.7469 582.10626 507.2Q582.46564 507.65314 582.98126 507.65314Q583.52814 507.65314 583.8719 507.2Q584.21564 506.7469 584.21564 505.54376Q584.21564 504.4344 583.85626 503.98126Q583.5125 503.52814 582.9969 503.52814Z" fill-rule="nonzero"/><path fill="black" d="M196.40625 57.8L196.40625 36.33125L199.25 36.33125L199.25 45.14375L210.40625 45.14375L210.40625 36.33125L213.25 36.33125L213.25 57.8L210.40625 57.8L210.40625 47.675L199.25 47.675L199.25 57.8L196.40625 57.8ZM228.625 52.784374L231.35938 53.128124Q230.70312 55.51875 228.95312 56.846874Q227.21875 58.159374 224.51562 58.159374Q221.09375 58.159374 219.09375 56.05Q217.09375 53.940624 217.09375 50.159374Q217.09375 46.221874 219.10938 44.065624Q221.14062 41.89375 224.35938 41.89375Q227.48438 41.89375 229.45312 44.01875Q231.4375 46.14375 231.4375 49.9875Q231.4375 50.221874 231.42188 50.690624L219.82812 50.690624Q219.96875 53.253124 221.26562 54.628124Q222.57812 55.9875 224.53125 55.9875Q225.96875 55.9875 227.0 55.221874Q228.03125 54.45625 228.625 52.784374ZM219.96875 48.534374L228.65625 48.534374Q228.48438 46.565624 227.65625 45.58125Q226.40625 44.065624 224.39062 44.065624Q222.57812 44.065624 221.34375 45.284374Q220.10938 46.4875 219.96875 48.534374ZM233.92188 57.8L233.92188 36.33125L236.5625 36.33125L236.5625 57.8L233.92188 57.8ZM240.92188 57.8L240.92188 36.33125L243.5625 36.33125L243.5625 57.8L240.92188 57.8ZM247.0 50.01875Q247.0 45.70625 249.40625 43.6125Q251.40625 41.89375 254.29688 41.89375Q257.5 41.89375 259.53125 44.003124Q261.57812 46.096874 261.57812 49.8Q261.57812 52.8 260.67188 54.534374Q259.76562 56.253124 258.04688 57.20625Q256.32812 58.159374 254.29688 58.159374Q251.03125 58.159374 249.01562 56.065624Q247.0 53.95625 247.0 50.01875ZM249.70312 50.01875Q249.70312 53.003124 251.0 54.503124Q252.3125 55.9875 254.29688 55.9875Q256.25 55.9875 257.54688 54.4875Q258.85938 52.9875 258.85938 49.940624Q258.85938 47.05 257.54688 45.565624Q256.23438 44.08125 254.29688 44.08125Q252.3125 44.08125 251.0 45.565624Q249.70312 47.034374 249.70312 50.01875ZM249.85938 39.83125L249.85938 37.659374L259.0 37.659374L259.0 39.83125L249.85938 39.83125ZM272.35938 57.8L272.35938 36.33125L281.875 36.33125Q284.75 36.33125 286.23438 36.909374Q287.73438 37.4875 288.625 38.95625Q289.53125 40.409374 289.53125 42.190624Q289.53125 44.471874 288.04688 46.034374Q286.5625 47.596874 283.48438 48.034374Q284.60938 48.565624 285.1875 49.096874Q286.4375 50.2375 287.54688 51.95625L291.28125 57.8L287.70312 57.8L284.875 53.33125Q283.625 51.39375 282.8125 50.378124Q282.01562 49.346874 281.375 48.940624Q280.73438 48.534374 280.07812 48.3625Q279.59375 48.26875 278.5 48.26875L275.20312 48.26875L275.20312 57.8L272.35938 57.8ZM275.20312 45.8L281.3125 45.8Q283.25 45.8 284.34375 45.409374Q285.45312 45.003124 286.01562 44.1125Q286.59375 43.221874 286.59375 42.190624Q286.59375 40.659374 285.48438 39.675Q284.39062 38.690624 282.0 38.690624L275.20312 38.690624L275.20312 45.8ZM304.17188 57.8L304.17188 55.51875Q302.35938 58.159374 299.23438 58.159374Q297.85938 58.159374 296.65625 57.628124Q295.46875 57.096874 294.89062 56.3Q294.3125 55.503124 294.07812 54.346874Q293.92188 53.565624 293.92188 51.878124L293.92188 42.2375L296.5625 42.2375L296.5625 50.878124Q296.5625 52.940624 296.71875 53.659374Q296.96875 54.690624 297.76562 55.284374Q298.57812 55.878124 299.76562 55.878124Q300.95312 55.878124 301.98438 55.26875Q303.03125 54.659374 303.45312 53.6125Q303.89062 52.565624 303.89062 50.58125L303.89062 42.2375L306.53125 42.2375L306.53125 57.8L304.17188 57.8ZM310.92188 57.8L310.92188 36.33125L313.5625 36.33125L313.5625 57.8L310.92188 57.8ZM328.625 52.784374L331.35938 53.128124Q330.70312 55.51875 328.95312 56.846874Q327.21875 58.159374 324.51562 58.159374Q321.09375 58.159374 319.09375 56.05Q317.09375 53.940624 317.09375 50.159374Q317.09375 46.221874 319.10938 44.065624Q321.14062 41.89375 324.35938 41.89375Q327.48438 41.89375 329.45312 44.01875Q331.4375 46.14375 331.4375 49.9875Q331.4375 50.221874 331.42188 50.690624L319.82812 50.690624Q319.96875 53.253124 321.26562 54.628124Q322.57812 55.9875 324.53125 55.9875Q325.96875 55.9875 327.0 55.221874Q328.03125 54.45625 328.625 52.784374ZM319.96875 48.534374L328.65625 48.534374Q328.48438 46.565624 327.65625 45.58125Q326.40625 44.065624 324.39062 44.065624Q322.57812 44.065624 321.34375 45.284374Q320.10938 46.4875 319.96875 48.534374ZM341.0 50.01875Q341.0 45.70625 343.40625 43.6125Q345.40625 41.89375 348.29688 41.89375Q351.5 41.89375 353.53125 44.003124Q355.57812 46.096874 355.57812 49.8Q355.57812 52.8 354.67188 54.534374Q353.76562 56.253124 352.04688 57.20625Q350.32812 58.159374 348.29688 58.159374Q345.03125 58.159374 343.01562 56.065624Q341.0 53.95625 341.0 50.01875ZM343.70312 50.01875Q343.70312 53.003124 345.0 54.503124Q346.3125 55.9875 348.29688 55.9875Q350.25 55.9875 351.54688 54.4875Q352.85938 52.9875 352.85938 49.940624Q352.85938 47.05 351.54688 45.565624Q350.23438 44.08125 348.29688 44.08125Q346.3125 44.08125 345.0 45.565624Q343.70312 47.034374 343.70312 50.01875ZM358.60938 57.8L358.60938 44.3L356.28125 44.3L356.28125 42.2375L358.60938 42.2375L358.60938 40.58125Q358.60938 39.01875 358.89062 38.253124Q359.26562 37.2375 360.21875 36.596874Q361.1875 35.95625 362.92188 35.95625Q364.03125 35.95625 365.375 36.221874L364.98438 38.51875Q364.15625 38.378124 363.42188 38.378124Q362.21875 38.378124 361.71875 38.89375Q361.23438 39.39375 361.23438 40.8L361.23438 42.2375L364.26562 42.2375L364.26562 44.3L361.23438 44.3L361.23438 57.8L358.60938 57.8ZM381.70312 57.8L381.70312 52.659374L372.375 52.659374L372.375 50.2375L382.1875 36.33125L384.32812 36.33125L384.32812 50.2375L387.23438 50.2375L387.23438 52.659374L384.32812 52.659374L384.32812 57.8L381.70312 57.8ZM381.70312 50.2375L381.70312 40.565624L374.96875 50.2375L381.70312 50.2375ZM390.25 47.20625Q390.25 43.39375 391.03125 41.08125Q391.8125 38.753124 393.35938 37.503124Q394.90625 36.2375 397.25 36.2375Q398.96875 36.2375 400.26562 36.940624Q401.57812 37.628124 402.42188 38.940624Q403.28125 40.253124 403.76562 42.14375Q404.25 44.01875 404.25 47.20625Q404.25 50.9875 403.46875 53.315624Q402.70312 55.628124 401.15625 56.89375Q399.60938 58.159374 397.25 58.159374Q394.14062 58.159374 392.375 55.940624Q390.25 53.253124 390.25 47.20625ZM392.95312 47.20625Q392.95312 52.503124 394.1875 54.253124Q395.4375 56.003124 397.25 56.003124Q399.0625 56.003124 400.29688 54.253124Q401.54688 52.4875 401.54688 47.20625Q401.54688 41.909374 400.29688 40.175Q399.0625 38.425 397.21875 38.425Q395.40625 38.425 394.3125 39.95625Q392.95312 41.925 392.95312 47.20625Z" fill-rule="nonzero"/></svg>