<svg width="414" height="564" viewBox="0 0 414 564" fill="none" xmlns="http://www.w3.org/2000/svg">
<g clip-path="url(#clip0)">
<rect width="414" height="644" rx="25" fill="white"/>
<rect x="63" y="329" width="288" height="58" rx="6" fill="#303030"/>
<path d="M131.654 357.892C131.654 359.151 131.432 360.256 130.986 361.205C130.541 362.154 129.902 362.887 129.07 363.402C128.244 363.918 127.295 364.176 126.223 364.176C125.162 364.176 124.216 363.921 123.384 363.411C122.552 362.901 121.907 362.175 121.45 361.231C120.993 360.282 120.762 359.192 120.756 357.962V357.329C120.756 356.069 120.981 354.962 121.433 354.007C121.89 353.046 122.531 352.311 123.357 351.801C124.189 351.285 125.139 351.027 126.205 351.027C127.271 351.027 128.218 351.285 129.044 351.801C129.876 352.311 130.518 353.046 130.969 354.007C131.426 354.962 131.654 356.066 131.654 357.32V357.892ZM128.982 357.312C128.982 355.97 128.742 354.95 128.262 354.253C127.781 353.556 127.096 353.207 126.205 353.207C125.32 353.207 124.638 353.553 124.157 354.244C123.677 354.93 123.434 355.938 123.428 357.268V357.892C123.428 359.198 123.668 360.212 124.148 360.933C124.629 361.653 125.32 362.014 126.223 362.014C127.107 362.014 127.787 361.668 128.262 360.977C128.736 360.279 128.977 359.266 128.982 357.936V357.312ZM129.255 349.981H123.19V348.514H129.255V349.981Z" fill="white"/>
<path d="M147.976 359.834C147.847 361.199 147.343 362.266 146.464 363.033C145.585 363.795 144.416 364.176 142.957 364.176C141.938 364.176 141.038 363.936 140.259 363.455C139.485 362.969 138.888 362.28 138.466 361.39C138.044 360.499 137.824 359.465 137.807 358.287V357.092C137.807 355.885 138.021 354.821 138.448 353.901C138.876 352.981 139.488 352.272 140.285 351.774C141.088 351.276 142.014 351.027 143.062 351.027C144.475 351.027 145.611 351.411 146.473 352.179C147.334 352.946 147.835 354.03 147.976 355.431H145.761C145.655 354.511 145.386 353.849 144.952 353.444C144.524 353.034 143.895 352.829 143.062 352.829C142.096 352.829 141.352 353.184 140.83 353.893C140.314 354.596 140.051 355.63 140.039 356.995V358.129C140.039 359.512 140.285 360.566 140.777 361.293C141.275 362.02 142.002 362.383 142.957 362.383C143.83 362.383 144.486 362.187 144.926 361.794C145.365 361.401 145.644 360.748 145.761 359.834H147.976Z" fill="white"/>
<path d="M149.364 359.157C149.364 358.226 149.549 357.388 149.918 356.644C150.287 355.894 150.806 355.319 151.474 354.921C152.142 354.517 152.909 354.314 153.776 354.314C155.06 354.314 156.1 354.728 156.896 355.554C157.699 356.38 158.133 357.476 158.197 358.841L158.206 359.342C158.206 360.279 158.024 361.117 157.661 361.855C157.304 362.594 156.788 363.165 156.114 363.569C155.446 363.974 154.673 364.176 153.794 364.176C152.452 364.176 151.377 363.73 150.568 362.84C149.766 361.943 149.364 360.751 149.364 359.263V359.157ZM151.5 359.342C151.5 360.32 151.702 361.088 152.106 361.645C152.511 362.195 153.073 362.471 153.794 362.471C154.515 362.471 155.074 362.189 155.473 361.627C155.877 361.064 156.079 360.241 156.079 359.157C156.079 358.196 155.871 357.435 155.455 356.872C155.045 356.31 154.485 356.028 153.776 356.028C153.079 356.028 152.525 356.307 152.115 356.863C151.705 357.414 151.5 358.24 151.5 359.342Z" fill="white"/>
<path d="M161.994 354.49L162.056 355.589C162.759 354.739 163.682 354.314 164.824 354.314C166.805 354.314 167.812 355.448 167.848 357.716V364H165.712V357.839C165.712 357.235 165.58 356.79 165.316 356.503C165.059 356.21 164.634 356.063 164.042 356.063C163.181 356.063 162.539 356.453 162.117 357.232V364H159.981V354.49H161.994Z" fill="white"/>
<path d="M172.708 352.179V354.49H174.387V356.072H172.708V361.381C172.708 361.744 172.778 362.008 172.919 362.172C173.065 362.33 173.323 362.409 173.692 362.409C173.938 362.409 174.188 362.38 174.439 362.321V363.974C173.953 364.108 173.484 364.176 173.033 364.176C171.393 364.176 170.572 363.271 170.572 361.46V356.072H169.008V354.49H170.572V352.179H172.708Z" fill="white"/>
<path d="M178.298 364H176.162V354.49H178.298V364ZM176.03 352.021C176.03 351.692 176.133 351.42 176.338 351.203C176.549 350.986 176.848 350.878 177.234 350.878C177.621 350.878 177.92 350.986 178.131 351.203C178.342 351.42 178.447 351.692 178.447 352.021C178.447 352.343 178.342 352.612 178.131 352.829C177.92 353.04 177.621 353.146 177.234 353.146C176.848 353.146 176.549 353.04 176.338 352.829C176.133 352.612 176.03 352.343 176.03 352.021Z" fill="white"/>
<path d="M182.613 354.49L182.675 355.589C183.378 354.739 184.301 354.314 185.443 354.314C187.424 354.314 188.432 355.448 188.467 357.716V364H186.331V357.839C186.331 357.235 186.199 356.79 185.936 356.503C185.678 356.21 185.253 356.063 184.661 356.063C183.8 356.063 183.158 356.453 182.736 357.232V364H180.601V354.49H182.613Z" fill="white"/>
<path d="M196.412 363.068C195.785 363.807 194.895 364.176 193.74 364.176C192.709 364.176 191.927 363.874 191.394 363.271C190.866 362.667 190.603 361.794 190.603 360.651V354.49H192.738V360.625C192.738 361.832 193.239 362.436 194.241 362.436C195.278 362.436 195.979 362.063 196.342 361.319V354.49H198.478V364H196.465L196.412 363.068Z" fill="white"/>
<path d="M204.841 364.176C203.487 364.176 202.389 363.751 201.545 362.901C200.707 362.046 200.288 360.909 200.288 359.491V359.228C200.288 358.278 200.47 357.432 200.833 356.688C201.202 355.938 201.718 355.354 202.38 354.938C203.042 354.522 203.78 354.314 204.595 354.314C205.89 354.314 206.889 354.728 207.592 355.554C208.301 356.38 208.655 357.549 208.655 359.061V359.922H202.441C202.506 360.707 202.767 361.328 203.224 361.785C203.687 362.242 204.267 362.471 204.964 362.471C205.942 362.471 206.739 362.075 207.354 361.284L208.506 362.383C208.125 362.951 207.615 363.394 206.977 363.71C206.344 364.021 205.632 364.176 204.841 364.176ZM204.586 356.028C204 356.028 203.525 356.233 203.162 356.644C202.805 357.054 202.576 357.625 202.477 358.357H206.546V358.199C206.499 357.484 206.309 356.945 205.975 356.582C205.641 356.213 205.178 356.028 204.586 356.028Z" fill="white"/>
<path d="M223.157 361.056L224.669 354.49H226.752L224.159 364H222.401L220.362 357.47L218.358 364H216.601L213.999 354.49H216.082L217.62 360.985L219.571 354.49H221.18L223.157 361.056Z" fill="white"/>
<path d="M230.452 364H228.316V354.49H230.452V364ZM228.185 352.021C228.185 351.692 228.287 351.42 228.492 351.203C228.703 350.986 229.002 350.878 229.389 350.878C229.775 350.878 230.074 350.986 230.285 351.203C230.496 351.42 230.602 351.692 230.602 352.021C230.602 352.343 230.496 352.612 230.285 352.829C230.074 353.04 229.775 353.146 229.389 353.146C229.002 353.146 228.703 353.04 228.492 352.829C228.287 352.612 228.185 352.343 228.185 352.021Z" fill="white"/>
<path d="M235.462 352.179V354.49H237.141V356.072H235.462V361.381C235.462 361.744 235.532 362.008 235.673 362.172C235.819 362.33 236.077 362.409 236.446 362.409C236.692 362.409 236.941 362.38 237.193 362.321V363.974C236.707 364.108 236.238 364.176 235.787 364.176C234.146 364.176 233.326 363.271 233.326 361.46V356.072H231.762V354.49H233.326V352.179H235.462Z" fill="white"/>
<path d="M240.885 355.527C241.582 354.719 242.464 354.314 243.53 354.314C245.558 354.314 246.586 355.472 246.615 357.786V364H244.479V357.865C244.479 357.209 244.336 356.746 244.049 356.477C243.768 356.201 243.352 356.063 242.801 356.063C241.945 356.063 241.307 356.444 240.885 357.206V364H238.749V350.5H240.885V355.527Z" fill="white"/>
<path d="M263.631 364H261.416V358.313H255.694V364H253.471V351.203H255.694V356.529H261.416V351.203H263.631V364Z" fill="white"/>
<path d="M270.249 364.176C268.896 364.176 267.797 363.751 266.953 362.901C266.115 362.046 265.696 360.909 265.696 359.491V359.228C265.696 358.278 265.878 357.432 266.241 356.688C266.61 355.938 267.126 355.354 267.788 354.938C268.45 354.522 269.188 354.314 270.003 354.314C271.298 354.314 272.297 354.728 273 355.554C273.709 356.38 274.063 357.549 274.063 359.061V359.922H267.85C267.914 360.707 268.175 361.328 268.632 361.785C269.095 362.242 269.675 362.471 270.372 362.471C271.351 362.471 272.147 362.075 272.763 361.284L273.914 362.383C273.533 362.951 273.023 363.394 272.385 363.71C271.752 364.021 271.04 364.176 270.249 364.176ZM269.994 356.028C269.408 356.028 268.934 356.233 268.57 356.644C268.213 357.054 267.984 357.625 267.885 358.357H271.954V358.199C271.907 357.484 271.717 356.945 271.383 356.582C271.049 356.213 270.586 356.028 269.994 356.028Z" fill="white"/>
<path d="M278.001 364H275.865V350.5H278.001V364Z" fill="white"/>
<path d="M282.606 364H280.471V350.5H282.606V364Z" fill="white"/>
<path d="M284.54 359.157C284.54 358.226 284.725 357.388 285.094 356.644C285.463 355.894 285.981 355.319 286.649 354.921C287.317 354.517 288.085 354.314 288.952 354.314C290.235 354.314 291.275 354.728 292.072 355.554C292.875 356.38 293.309 357.476 293.373 358.841L293.382 359.342C293.382 360.279 293.2 361.117 292.837 361.855C292.479 362.594 291.964 363.165 291.29 363.569C290.622 363.974 289.849 364.176 288.97 364.176C287.628 364.176 286.553 363.73 285.744 362.84C284.941 361.943 284.54 360.751 284.54 359.263V359.157ZM286.676 359.342C286.676 360.32 286.878 361.088 287.282 361.645C287.687 362.195 288.249 362.471 288.97 362.471C289.69 362.471 290.25 362.189 290.648 361.627C291.053 361.064 291.255 360.241 291.255 359.157C291.255 358.196 291.047 357.435 290.631 356.872C290.221 356.31 289.661 356.028 288.952 356.028C288.255 356.028 287.701 356.307 287.291 356.863C286.881 357.414 286.676 358.24 286.676 359.342ZM291.958 352.609H285.92V351.221H291.958V352.609Z" fill="white"/>
<rect x="153" y="47" width="107" height="33" fill="#C4C4C4" fill-opacity="0.2"/>
<rect x="63" y="107" width="288" height="20" fill="#C4C4C4" fill-opacity="0.2"/>
<rect x="63" y="139" width="288" height="20" fill="#C4C4C4" fill-opacity="0.2"/>
<rect x="63" y="175" width="288" height="52" fill="#C4C4C4" fill-opacity="0.2"/>
<rect x="127" y="269" width="160" height="20" fill="#C4C4C4" fill-opacity="0.2"/>
</g>
<defs>
<clipPath id="clip0">
<rect width="414" height="564" fill="white"/>
</clipPath>
</defs>
</svg>
