<svg width="359" height="368" viewBox="0 0 359 368" fill="none" xmlns="http://www.w3.org/2000/svg">
<path d="M186 175C186 180.57 183.788 185.911 179.849 189.849C175.911 193.788 170.57 196 165 196C159.43 196 154.089 193.788 150.151 189.849C146.212 185.911 144 180.57 144 175C144 169.43 146.212 164.089 150.151 160.151C154.089 156.212 159.43 154 165 154C170.57 154 175.911 156.212 179.849 160.151C183.788 164.089 186 169.43 186 175V175Z" stroke="white" stroke-width="2" stroke-linecap="round" stroke-linejoin="round"/>
<path d="M98.2061 175C107.124 146.601 133.661 126 165 126C196.346 126 222.876 146.601 231.794 175C222.876 203.399 196.346 224 165 224C133.661 224 107.124 203.399 98.2061 175V175Z" stroke="white" stroke-width="2" stroke-linecap="round" stroke-linejoin="round"/>
<line x1="88.576" y1="286.735" x2="123.576" y2="230.735" stroke="white" stroke-dasharray="2 2"/>
<line x1="46.2792" y1="107.585" x2="98.2792" y2="142.585" stroke="white" stroke-dasharray="2 2"/>
<line x1="317.971" y1="189.499" x2="248.971" y2="185.499" stroke="white" stroke-dasharray="2 2"/>
<line x1="214.514" y1="323.116" x2="192.514" y2="231.116" stroke="white" stroke-dasharray="2 2"/>
<line x1="231.442" y1="44.2334" x2="193.442" y2="116.233" stroke="white" stroke-dasharray="2 2"/>
<path fill-rule="evenodd" clip-rule="evenodd" d="M210.594 337.392C211.784 337.297 212.914 336.829 213.822 336.054C214.848 335.18 216.152 334.7 217.5 334.7C218.848 334.7 220.152 335.18 221.178 336.054C222.086 336.829 223.216 337.297 224.406 337.392C225.75 337.499 227.012 338.082 227.965 339.035C228.918 339.988 229.501 341.25 229.608 342.594C229.703 343.783 230.171 344.914 230.946 345.822C231.82 346.848 232.3 348.152 232.3 349.5C232.3 350.848 231.82 352.152 230.946 353.178C230.171 354.086 229.703 355.216 229.608 356.406C229.501 357.75 228.918 359.012 227.965 359.965C227.012 360.918 225.75 361.501 224.406 361.608C223.216 361.703 222.086 362.171 221.178 362.946C220.152 363.82 218.848 364.3 217.5 364.3C216.152 364.3 214.848 363.82 213.822 362.946C212.914 362.171 211.784 361.703 210.594 361.608C209.25 361.501 207.988 360.918 207.035 359.965C206.082 359.012 205.499 357.75 205.392 356.406C205.297 355.216 204.829 354.086 204.054 353.178C203.18 352.152 202.7 350.848 202.7 349.5C202.7 348.152 203.18 346.848 204.054 345.822C204.829 344.914 205.297 343.784 205.392 342.594C205.499 341.25 206.082 339.988 207.035 339.035C207.988 338.082 209.25 337.499 210.594 337.392V337.392ZM224.358 347.108C224.695 346.759 224.881 346.292 224.877 345.807C224.873 345.322 224.678 344.858 224.335 344.515C223.992 344.172 223.528 343.977 223.043 343.973C222.558 343.969 222.091 344.155 221.742 344.492L215.65 350.584L213.258 348.192C212.909 347.855 212.442 347.669 211.957 347.673C211.472 347.677 211.008 347.872 210.665 348.215C210.322 348.558 210.127 349.022 210.123 349.507C210.119 349.992 210.305 350.459 210.642 350.808L214.342 354.508C214.689 354.855 215.159 355.05 215.65 355.05C216.14 355.05 216.611 354.855 216.958 354.508L224.358 347.108V347.108Z" fill="white"/>
<path fill-rule="evenodd" clip-rule="evenodd" d="M11.5939 79.3917C12.7839 79.2967 13.9136 78.8287 14.8221 78.0542C15.8483 77.1802 17.1521 76.7003 18.4999 76.7003C19.8478 76.7003 21.1516 77.1802 22.1777 78.0542C23.0862 78.8287 24.216 79.2967 25.406 79.3917C26.7499 79.4992 28.0116 80.0817 28.9649 81.035C29.9182 81.9883 30.5008 83.2501 30.6082 84.5939C30.7025 85.7835 31.1706 86.9138 31.9457 87.8222C32.8197 88.8483 33.2997 90.1521 33.2997 91.5C33.2997 92.8479 32.8197 94.1517 31.9457 95.1778C31.1713 96.0863 30.7032 97.216 30.6082 98.406C30.5008 99.7499 29.9182 101.012 28.9649 101.965C28.0116 102.918 26.7499 103.501 25.406 103.608C24.216 103.703 23.0862 104.171 22.1777 104.946C21.1516 105.82 19.8478 106.3 18.4999 106.3C17.1521 106.3 15.8483 105.82 14.8221 104.946C13.9136 104.171 12.7839 103.703 11.5939 103.608C10.25 103.501 8.98829 102.918 8.03498 101.965C7.08167 101.012 6.49909 99.7499 6.39169 98.406C6.29667 97.216 5.8286 96.0863 5.05414 95.1778C4.18018 94.1517 3.7002 92.8479 3.7002 91.5C3.7002 90.1521 4.18018 88.8483 5.05414 87.8222C5.8286 86.9137 6.29667 85.784 6.39169 84.5939C6.49909 83.2501 7.08167 81.9883 8.03498 81.035C8.98829 80.0817 10.25 79.4992 11.5939 79.3917V79.3917ZM25.3579 89.1079C25.6949 88.759 25.8813 88.2917 25.8771 87.8067C25.8729 87.3216 25.6784 86.8576 25.3354 86.5146C24.9923 86.1716 24.5283 85.977 24.0433 85.9728C23.5582 85.9686 23.0909 86.1551 22.742 86.492L16.6499 92.5841L14.2579 90.192C13.909 89.8551 13.4417 89.6686 12.9566 89.6728C12.4715 89.677 12.0075 89.8716 11.6645 90.2146C11.3215 90.5576 11.127 91.0216 11.1227 91.5067C11.1185 91.9917 11.305 92.459 11.642 92.8079L15.342 96.5079C15.6889 96.8548 16.1594 97.0496 16.6499 97.0496C17.1405 97.0496 17.611 96.8548 17.9579 96.5079L25.3579 89.1079V89.1079Z" fill="white"/>
<path fill-rule="evenodd" clip-rule="evenodd" d="M241.594 6.39175C242.784 6.29673 243.914 5.82866 244.822 5.0542C245.848 4.18024 247.152 3.70026 248.5 3.70026C249.848 3.70026 251.152 4.18024 252.178 5.0542C253.086 5.82866 254.216 6.29673 255.406 6.39175C256.75 6.49915 258.012 7.08173 258.965 8.03504C259.918 8.98835 260.501 10.2501 260.608 11.5939C260.703 12.7835 261.171 13.9138 261.946 14.8222C262.82 15.8483 263.3 17.1521 263.3 18.5C263.3 19.8479 262.82 21.1517 261.946 22.1778C261.171 23.0863 260.703 24.216 260.608 25.406C260.501 26.7499 259.918 28.0116 258.965 28.965C258.012 29.9183 256.75 30.5008 255.406 30.6083C254.216 30.7033 253.086 31.1713 252.178 31.9458C251.152 32.8198 249.848 33.2997 248.5 33.2997C247.152 33.2997 245.848 32.8198 244.822 31.9458C243.914 31.1713 242.784 30.7033 241.594 30.6083C240.25 30.5008 238.988 29.9183 238.035 28.965C237.082 28.0116 236.499 26.7499 236.392 25.406C236.297 24.216 235.829 23.0863 235.054 22.1778C234.18 21.1517 233.7 19.8479 233.7 18.5C233.7 17.1521 234.18 15.8483 235.054 14.8222C235.829 13.9137 236.297 12.784 236.392 11.5939C236.499 10.2501 237.082 8.98835 238.035 8.03504C238.988 7.08173 240.25 6.49915 241.594 6.39175V6.39175ZM255.358 16.1079C255.695 15.759 255.881 15.2917 255.877 14.8067C255.873 14.3216 255.678 13.8576 255.335 13.5146C254.992 13.1716 254.528 12.977 254.043 12.9728C253.558 12.9686 253.091 13.1551 252.742 13.492L246.65 19.5841L244.258 17.192C243.909 16.8551 243.442 16.6686 242.957 16.6728C242.472 16.677 242.008 16.8716 241.665 17.2146C241.322 17.5576 241.127 18.0216 241.123 18.5067C241.119 18.9917 241.305 19.459 241.642 19.8079L245.342 23.5079C245.689 23.8548 246.159 24.0496 246.65 24.0496C247.14 24.0496 247.611 23.8548 247.958 23.5079L255.358 16.1079V16.1079Z" fill="white"/>
<path fill-rule="evenodd" clip-rule="evenodd" d="M342.5 205.7C346.001 205.7 349.358 204.309 351.834 201.834C354.309 199.358 355.7 196.001 355.7 192.5C355.7 188.999 354.309 185.642 351.834 183.166C349.358 180.691 346.001 179.3 342.5 179.3C338.999 179.3 335.641 180.691 333.166 183.166C330.691 185.642 329.3 188.999 329.3 192.5C329.3 196.001 330.691 199.358 333.166 201.834C335.641 204.309 338.999 205.7 342.5 205.7V205.7ZM340.366 188.033C340.055 187.733 339.638 187.567 339.206 187.57C338.773 187.574 338.359 187.748 338.053 188.054C337.747 188.359 337.574 188.773 337.57 189.206C337.566 189.639 337.733 190.055 338.033 190.367L340.167 192.5L338.033 194.633C337.876 194.786 337.75 194.968 337.663 195.169C337.577 195.37 337.531 195.587 337.53 195.806C337.528 196.025 337.569 196.242 337.652 196.445C337.735 196.648 337.858 196.832 338.013 196.987C338.168 197.142 338.352 197.264 338.555 197.347C338.758 197.43 338.975 197.472 339.194 197.47C339.413 197.468 339.629 197.423 339.831 197.336C340.032 197.25 340.214 197.124 340.366 196.967L342.5 194.833L344.633 196.967C344.944 197.267 345.361 197.433 345.794 197.43C346.226 197.426 346.64 197.252 346.946 196.946C347.252 196.641 347.426 196.227 347.429 195.794C347.433 195.361 347.267 194.945 346.966 194.633L344.833 192.5L346.966 190.367C347.267 190.055 347.433 189.639 347.429 189.206C347.426 188.773 347.252 188.359 346.946 188.054C346.64 187.748 346.226 187.574 345.794 187.57C345.361 187.567 344.944 187.733 344.633 188.033L342.5 190.167L340.366 188.033Z" fill="white"/>
<path fill-rule="evenodd" clip-rule="evenodd" d="M74.4998 318.7C78.0007 318.7 81.3581 317.309 83.8336 314.834C86.3091 312.358 87.6998 309.001 87.6998 305.5C87.6998 301.999 86.3091 298.642 83.8336 296.166C81.3581 293.691 78.0007 292.3 74.4998 292.3C70.9989 292.3 67.6415 293.691 65.166 296.166C62.6905 298.642 61.2998 301.999 61.2998 305.5C61.2998 309.001 62.6905 312.358 65.166 314.834C67.6415 317.309 70.9989 318.7 74.4998 318.7V318.7ZM72.3664 301.033C72.0552 300.733 71.6384 300.567 71.2057 300.57C70.7731 300.574 70.3593 300.748 70.0534 301.054C69.7474 301.359 69.5739 301.773 69.5701 302.206C69.5664 302.639 69.7327 303.055 70.0333 303.367L72.1667 305.5L70.0333 307.633C69.8757 307.786 69.75 307.968 69.6635 308.169C69.577 308.37 69.5315 308.587 69.5296 308.806C69.5277 309.025 69.5694 309.242 69.6524 309.445C69.7354 309.648 69.8579 309.832 70.0128 309.987C70.1677 310.142 70.352 310.264 70.5547 310.347C70.7575 310.43 70.9748 310.472 71.1939 310.47C71.413 310.468 71.6295 310.423 71.8308 310.336C72.0321 310.25 72.2141 310.124 72.3664 309.967L74.4998 307.833L76.6333 309.967C76.9444 310.267 77.3612 310.433 77.7939 310.43C78.2265 310.426 78.6403 310.252 78.9463 309.946C79.2522 309.641 79.4257 309.227 79.4295 308.794C79.4332 308.361 79.2669 307.945 78.9664 307.633L76.8329 305.5L78.9664 303.367C79.2669 303.055 79.4332 302.639 79.4295 302.206C79.4257 301.773 79.2522 301.359 78.9463 301.054C78.6403 300.748 78.2265 300.574 77.7939 300.57C77.3612 300.567 76.9444 300.733 76.6333 301.033L74.4998 303.167L72.3664 301.033Z" fill="white"/>
</svg>
