<svg width="218" height="236" viewBox="0 0 218 236" fill="none" xmlns="http://www.w3.org/2000/svg">
<path fill-rule="evenodd" clip-rule="evenodd" d="M78.3002 18.5C78.3002 22.4252 76.7409 26.1896 73.9654 28.9651C71.1898 31.7407 67.4254 33.2999 63.5002 33.2999C59.575 33.2999 55.8106 31.7407 53.035 28.9651C50.2595 26.1896 48.7002 22.4252 48.7002 18.5C48.7002 14.5747 50.2595 10.8103 53.035 8.03477C55.8106 5.25923 59.575 3.69995 63.5002 3.69995C67.4254 3.69995 71.1898 5.25923 73.9654 8.03477C76.7409 10.8103 78.3002 14.5747 78.3002 18.5V18.5ZM67.2002 12.95C67.2002 13.9313 66.8104 14.8724 66.1165 15.5662C65.4226 16.2601 64.4815 16.65 63.5002 16.65C62.5189 16.65 61.5778 16.2601 60.8839 15.5662C60.19 14.8724 59.8002 13.9313 59.8002 12.95C59.8002 11.9686 60.19 11.0275 60.8839 10.3337C61.5778 9.63977 62.5189 9.24995 63.5002 9.24995C64.4815 9.24995 65.4226 9.63977 66.1165 10.3337C66.8104 11.0275 67.2002 11.9686 67.2002 12.95V12.95ZM63.5002 20.35C61.729 20.3496 59.995 20.8578 58.5041 21.814C57.0133 22.7703 55.8283 24.1345 55.0901 25.7446C56.131 26.9556 57.4216 27.9271 58.8732 28.5926C60.3249 29.2581 61.9033 29.6017 63.5002 29.5999C65.0971 29.6017 66.6755 29.2581 68.1271 28.5926C69.5788 27.9271 70.8693 26.9556 71.9103 25.7446C71.1721 24.1345 69.9871 22.7703 68.4963 21.814C67.0054 20.8578 65.2714 20.3496 63.5002 20.35V20.35Z" fill="white"/>
<path fill-rule="evenodd" clip-rule="evenodd" d="M11.5939 6.39181C12.7839 6.29679 13.9136 5.82873 14.8221 5.05426C15.8483 4.1803 17.1521 3.70032 18.4999 3.70032C19.8478 3.70032 21.1516 4.1803 22.1777 5.05426C23.0862 5.82873 24.216 6.29679 25.406 6.39181C26.7499 6.49921 28.0116 7.08179 28.9649 8.0351C29.9182 8.98841 30.5008 10.2501 30.6082 11.594C30.7025 12.7836 31.1706 13.9139 31.9457 14.8223C32.8197 15.8484 33.2997 17.1522 33.2997 18.5001C33.2997 19.8479 32.8197 21.1517 31.9457 22.1779C31.1713 23.0864 30.7032 24.2161 30.6082 25.4061C30.5008 26.75 29.9182 28.0117 28.9649 28.965C28.0116 29.9183 26.7499 30.5009 25.406 30.6083C24.216 30.7033 23.0862 31.1714 22.1777 31.9459C21.1516 32.8198 19.8478 33.2998 18.4999 33.2998C17.1521 33.2998 15.8483 32.8198 14.8221 31.9459C13.9136 31.1714 12.7839 30.7033 11.5939 30.6083C10.25 30.5009 8.98829 29.9183 8.03498 28.965C7.08167 28.0117 6.49909 26.75 6.39169 25.4061C6.29667 24.2161 5.8286 23.0864 5.05414 22.1779C4.18018 21.1517 3.7002 19.8479 3.7002 18.5001C3.7002 17.1522 4.18018 15.8484 5.05414 14.8223C5.8286 13.9137 6.29667 12.784 6.39169 11.594C6.49909 10.2501 7.08167 8.98841 8.03498 8.0351C8.98829 7.08179 10.25 6.49921 11.5939 6.39181V6.39181ZM25.3579 16.108C25.6949 15.7591 25.8813 15.2918 25.8771 14.8067C25.8729 14.3217 25.6784 13.8577 25.3354 13.5146C24.9923 13.1716 24.5283 12.9771 24.0433 12.9729C23.5582 12.9686 23.0909 13.1551 22.742 13.4921L16.6499 19.5842L14.2579 17.1921C13.909 16.8551 13.4417 16.6686 12.9566 16.6729C12.4715 16.6771 12.0075 16.8716 11.6645 17.2146C11.3215 17.5577 11.127 18.0217 11.1227 18.5067C11.1185 18.9918 11.305 19.4591 11.642 19.808L15.342 23.508C15.6889 23.8548 16.1594 24.0497 16.6499 24.0497C17.1405 24.0497 17.611 23.8548 17.9579 23.508L25.3579 16.108V16.108Z" fill="white"/>
<rect x="101" y="3" width="117" height="31" fill="#C4C4C4" fill-opacity="0.3"/>
<path fill-rule="evenodd" clip-rule="evenodd" d="M78.3002 68.5C78.3002 72.4252 76.7409 76.1896 73.9654 78.9651C71.1898 81.7407 67.4254 83.2999 63.5002 83.2999C59.575 83.2999 55.8106 81.7407 53.035 78.9651C50.2595 76.1896 48.7002 72.4252 48.7002 68.5C48.7002 64.5747 50.2595 60.8103 53.035 58.0348C55.8106 55.2592 59.575 53.7 63.5002 53.7C67.4254 53.7 71.1898 55.2592 73.9654 58.0348C76.7409 60.8103 78.3002 64.5747 78.3002 68.5V68.5ZM67.2002 62.95C67.2002 63.9313 66.8104 64.8724 66.1165 65.5662C65.4226 66.2601 64.4815 66.65 63.5002 66.65C62.5189 66.65 61.5778 66.2601 60.8839 65.5662C60.19 64.8724 59.8002 63.9313 59.8002 62.95C59.8002 61.9686 60.19 61.0275 60.8839 60.3337C61.5778 59.6398 62.5189 59.25 63.5002 59.25C64.4815 59.25 65.4226 59.6398 66.1165 60.3337C66.8104 61.0275 67.2002 61.9686 67.2002 62.95V62.95ZM63.5002 70.35C61.729 70.3496 59.995 70.8578 58.5041 71.814C57.0133 72.7703 55.8283 74.1345 55.0901 75.7446C56.131 76.9556 57.4216 77.9271 58.8732 78.5926C60.3249 79.2581 61.9033 79.6017 63.5002 79.5999C65.0971 79.6017 66.6755 79.2581 68.1271 78.5926C69.5788 77.9271 70.8693 76.9556 71.9103 75.7446C71.1721 74.1345 69.9871 72.7703 68.4963 71.814C67.0054 70.8578 65.2714 70.3496 63.5002 70.35V70.35Z" fill="white"/>
<path fill-rule="evenodd" clip-rule="evenodd" d="M11.5939 56.3918C12.7839 56.2968 13.9136 55.8287 14.8221 55.0543C15.8483 54.1803 17.1521 53.7003 18.4999 53.7003C19.8478 53.7003 21.1516 54.1803 22.1777 55.0543C23.0862 55.8287 24.216 56.2968 25.406 56.3918C26.7499 56.4992 28.0116 57.0818 28.9649 58.0351C29.9182 58.9884 30.5008 60.2501 30.6082 61.594C30.7025 62.7836 31.1706 63.9139 31.9457 64.8223C32.8197 65.8484 33.2997 67.1522 33.2997 68.5001C33.2997 69.8479 32.8197 71.1517 31.9457 72.1779C31.1713 73.0864 30.7032 74.2161 30.6082 75.4061C30.5008 76.75 29.9182 78.0117 28.9649 78.965C28.0116 79.9183 26.7499 80.5009 25.406 80.6083C24.216 80.7033 23.0862 81.1714 22.1777 81.9459C21.1516 82.8198 19.8478 83.2998 18.4999 83.2998C17.1521 83.2998 15.8483 82.8198 14.8221 81.9459C13.9136 81.1714 12.7839 80.7033 11.5939 80.6083C10.25 80.5009 8.98829 79.9183 8.03498 78.965C7.08167 78.0117 6.49909 76.75 6.39169 75.4061C6.29667 74.2161 5.8286 73.0864 5.05414 72.1779C4.18018 71.1517 3.7002 69.8479 3.7002 68.5001C3.7002 67.1522 4.18018 65.8484 5.05414 64.8223C5.8286 63.9137 6.29667 62.784 6.39169 61.594C6.49909 60.2501 7.08167 58.9884 8.03498 58.0351C8.98829 57.0818 10.25 56.4992 11.5939 56.3918V56.3918ZM25.3579 66.108C25.6949 65.7591 25.8813 65.2918 25.8771 64.8067C25.8729 64.3217 25.6784 63.8577 25.3354 63.5146C24.9923 63.1716 24.5283 62.9771 24.0433 62.9729C23.5582 62.9686 23.0909 63.1551 22.742 63.4921L16.6499 69.5842L14.2579 67.1921C13.909 66.8551 13.4417 66.6686 12.9566 66.6729C12.4715 66.6771 12.0075 66.8716 11.6645 67.2146C11.3215 67.5577 11.127 68.0217 11.1227 68.5067C11.1185 68.9918 11.305 69.4591 11.642 69.808L15.342 73.508C15.6889 73.8548 16.1594 74.0497 16.6499 74.0497C17.1405 74.0497 17.611 73.8548 17.9579 73.508L25.3579 66.108V66.108Z" fill="white"/>
<rect x="101" y="53" width="117" height="31" fill="#C4C4C4" fill-opacity="0.3"/>
<path fill-rule="evenodd" clip-rule="evenodd" d="M78.3002 118.5C78.3002 122.425 76.7409 126.19 73.9654 128.965C71.1898 131.741 67.4254 133.3 63.5002 133.3C59.575 133.3 55.8106 131.741 53.035 128.965C50.2595 126.19 48.7002 122.425 48.7002 118.5C48.7002 114.575 50.2595 110.81 53.035 108.035C55.8106 105.259 59.575 103.7 63.5002 103.7C67.4254 103.7 71.1898 105.259 73.9654 108.035C76.7409 110.81 78.3002 114.575 78.3002 118.5V118.5ZM67.2002 112.95C67.2002 113.931 66.8104 114.872 66.1165 115.566C65.4226 116.26 64.4815 116.65 63.5002 116.65C62.5189 116.65 61.5778 116.26 60.8839 115.566C60.19 114.872 59.8002 113.931 59.8002 112.95C59.8002 111.969 60.19 111.028 60.8839 110.334C61.5778 109.64 62.5189 109.25 63.5002 109.25C64.4815 109.25 65.4226 109.64 66.1165 110.334C66.8104 111.028 67.2002 111.969 67.2002 112.95V112.95ZM63.5002 120.35C61.729 120.35 59.995 120.858 58.5041 121.814C57.0133 122.77 55.8283 124.135 55.0901 125.745C56.131 126.956 57.4216 127.927 58.8732 128.593C60.3249 129.258 61.9033 129.602 63.5002 129.6C65.0971 129.602 66.6755 129.258 68.1271 128.593C69.5788 127.927 70.8693 126.956 71.9103 125.745C71.1721 124.135 69.9871 122.77 68.4963 121.814C67.0054 120.858 65.2714 120.35 63.5002 120.35V120.35Z" fill="white"/>
<path fill-rule="evenodd" clip-rule="evenodd" d="M11.5939 106.392C12.7839 106.297 13.9136 105.829 14.8221 105.054C15.8483 104.18 17.1521 103.7 18.4999 103.7C19.8478 103.7 21.1516 104.18 22.1777 105.054C23.0862 105.829 24.216 106.297 25.406 106.392C26.7499 106.499 28.0116 107.082 28.9649 108.035C29.9182 108.988 30.5008 110.25 30.6082 111.594C30.7025 112.784 31.1706 113.914 31.9457 114.822C32.8197 115.848 33.2997 117.152 33.2997 118.5C33.2997 119.848 32.8197 121.152 31.9457 122.178C31.1713 123.086 30.7032 124.216 30.6082 125.406C30.5008 126.75 29.9182 128.012 28.9649 128.965C28.0116 129.918 26.7499 130.501 25.406 130.608C24.216 130.703 23.0862 131.171 22.1777 131.946C21.1516 132.82 19.8478 133.3 18.4999 133.3C17.1521 133.3 15.8483 132.82 14.8221 131.946C13.9136 131.171 12.7839 130.703 11.5939 130.608C10.25 130.501 8.98829 129.918 8.03498 128.965C7.08167 128.012 6.49909 126.75 6.39169 125.406C6.29667 124.216 5.8286 123.086 5.05414 122.178C4.18018 121.152 3.7002 119.848 3.7002 118.5C3.7002 117.152 4.18018 115.848 5.05414 114.822C5.8286 113.914 6.29667 112.784 6.39169 111.594C6.49909 110.25 7.08167 108.988 8.03498 108.035C8.98829 107.082 10.25 106.499 11.5939 106.392V106.392ZM25.3579 116.108C25.6949 115.759 25.8813 115.292 25.8771 114.807C25.8729 114.322 25.6784 113.858 25.3354 113.515C24.9923 113.172 24.5283 112.977 24.0433 112.973C23.5582 112.969 23.0909 113.155 22.742 113.492L16.6499 119.584L14.2579 117.192C13.909 116.855 13.4417 116.669 12.9566 116.673C12.4715 116.677 12.0075 116.872 11.6645 117.215C11.3215 117.558 11.127 118.022 11.1227 118.507C11.1185 118.992 11.305 119.459 11.642 119.808L15.342 123.508C15.6889 123.855 16.1594 124.05 16.6499 124.05C17.1405 124.05 17.611 123.855 17.9579 123.508L25.3579 116.108V116.108Z" fill="white"/>
<rect x="101" y="103" width="117" height="31" fill="#C4C4C4" fill-opacity="0.3"/>
<path fill-rule="evenodd" clip-rule="evenodd" d="M78.3002 167.5C78.3002 171.425 76.7409 175.19 73.9654 177.965C71.1898 180.741 67.4254 182.3 63.5002 182.3C59.575 182.3 55.8106 180.741 53.035 177.965C50.2595 175.19 48.7002 171.425 48.7002 167.5C48.7002 163.575 50.2595 159.81 53.035 157.035C55.8106 154.259 59.575 152.7 63.5002 152.7C67.4254 152.7 71.1898 154.259 73.9654 157.035C76.7409 159.81 78.3002 163.575 78.3002 167.5V167.5ZM67.2002 161.95C67.2002 162.931 66.8104 163.872 66.1165 164.566C65.4226 165.26 64.4815 165.65 63.5002 165.65C62.5189 165.65 61.5778 165.26 60.8839 164.566C60.19 163.872 59.8002 162.931 59.8002 161.95C59.8002 160.969 60.19 160.028 60.8839 159.334C61.5778 158.64 62.5189 158.25 63.5002 158.25C64.4815 158.25 65.4226 158.64 66.1165 159.334C66.8104 160.028 67.2002 160.969 67.2002 161.95V161.95ZM63.5002 169.35C61.729 169.35 59.995 169.858 58.5041 170.814C57.0133 171.77 55.8283 173.135 55.0901 174.745C56.131 175.956 57.4216 176.927 58.8732 177.593C60.3249 178.258 61.9033 178.602 63.5002 178.6C65.0971 178.602 66.6755 178.258 68.1271 177.593C69.5788 176.927 70.8693 175.956 71.9103 174.745C71.1721 173.135 69.9871 171.77 68.4963 170.814C67.0054 169.858 65.2714 169.35 63.5002 169.35V169.35Z" fill="white"/>
<path fill-rule="evenodd" clip-rule="evenodd" d="M11.5939 155.392C12.7839 155.297 13.9136 154.829 14.8221 154.054C15.8483 153.18 17.1521 152.7 18.4999 152.7C19.8478 152.7 21.1516 153.18 22.1777 154.054C23.0862 154.829 24.216 155.297 25.406 155.392C26.7499 155.499 28.0116 156.082 28.9649 157.035C29.9182 157.988 30.5008 159.25 30.6082 160.594C30.7025 161.784 31.1706 162.914 31.9457 163.822C32.8197 164.848 33.2997 166.152 33.2997 167.5C33.2997 168.848 32.8197 170.152 31.9457 171.178C31.1713 172.086 30.7032 173.216 30.6082 174.406C30.5008 175.75 29.9182 177.012 28.9649 177.965C28.0116 178.918 26.7499 179.501 25.406 179.608C24.216 179.703 23.0862 180.171 22.1777 180.946C21.1516 181.82 19.8478 182.3 18.4999 182.3C17.1521 182.3 15.8483 181.82 14.8221 180.946C13.9136 180.171 12.7839 179.703 11.5939 179.608C10.25 179.501 8.98829 178.918 8.03498 177.965C7.08167 177.012 6.49909 175.75 6.39169 174.406C6.29667 173.216 5.8286 172.086 5.05414 171.178C4.18018 170.152 3.7002 168.848 3.7002 167.5C3.7002 166.152 4.18018 164.848 5.05414 163.822C5.8286 162.914 6.29667 161.784 6.39169 160.594C6.49909 159.25 7.08167 157.988 8.03498 157.035C8.98829 156.082 10.25 155.499 11.5939 155.392V155.392ZM25.3579 165.108C25.6949 164.759 25.8813 164.292 25.8771 163.807C25.8729 163.322 25.6784 162.858 25.3354 162.515C24.9923 162.172 24.5283 161.977 24.0433 161.973C23.5582 161.969 23.0909 162.155 22.742 162.492L16.6499 168.584L14.2579 166.192C13.909 165.855 13.4417 165.669 12.9566 165.673C12.4715 165.677 12.0075 165.872 11.6645 166.215C11.3215 166.558 11.127 167.022 11.1227 167.507C11.1185 167.992 11.305 168.459 11.642 168.808L15.342 172.508C15.6889 172.855 16.1594 173.05 16.6499 173.05C17.1405 173.05 17.611 172.855 17.9579 172.508L25.3579 165.108V165.108Z" fill="white"/>
<rect x="101" y="152" width="117" height="31" fill="#C4C4C4" fill-opacity="0.3"/>
<path fill-rule="evenodd" clip-rule="evenodd" d="M78.3002 217.5C78.3002 221.425 76.7409 225.19 73.9654 227.965C71.1898 230.741 67.4254 232.3 63.5002 232.3C59.575 232.3 55.8106 230.741 53.035 227.965C50.2595 225.19 48.7002 221.425 48.7002 217.5C48.7002 213.575 50.2595 209.81 53.035 207.035C55.8106 204.259 59.575 202.7 63.5002 202.7C67.4254 202.7 71.1898 204.259 73.9654 207.035C76.7409 209.81 78.3002 213.575 78.3002 217.5V217.5ZM67.2002 211.95C67.2002 212.931 66.8104 213.872 66.1165 214.566C65.4226 215.26 64.4815 215.65 63.5002 215.65C62.5189 215.65 61.5778 215.26 60.8839 214.566C60.19 213.872 59.8002 212.931 59.8002 211.95C59.8002 210.969 60.19 210.028 60.8839 209.334C61.5778 208.64 62.5189 208.25 63.5002 208.25C64.4815 208.25 65.4226 208.64 66.1165 209.334C66.8104 210.028 67.2002 210.969 67.2002 211.95V211.95ZM63.5002 219.35C61.729 219.35 59.995 219.858 58.5041 220.814C57.0133 221.77 55.8283 223.135 55.0901 224.745C56.131 225.956 57.4216 226.927 58.8732 227.593C60.3249 228.258 61.9033 228.602 63.5002 228.6C65.0971 228.602 66.6755 228.258 68.1271 227.593C69.5788 226.927 70.8693 225.956 71.9103 224.745C71.1721 223.135 69.9871 221.77 68.4963 220.814C67.0054 219.858 65.2714 219.35 63.5002 219.35V219.35Z" fill="white"/>
<path fill-rule="evenodd" clip-rule="evenodd" d="M11.5939 205.392C12.7839 205.297 13.9136 204.829 14.8221 204.054C15.8483 203.18 17.1521 202.7 18.4999 202.7C19.8478 202.7 21.1516 203.18 22.1777 204.054C23.0862 204.829 24.216 205.297 25.406 205.392C26.7499 205.499 28.0116 206.082 28.9649 207.035C29.9182 207.988 30.5008 209.25 30.6082 210.594C30.7025 211.784 31.1706 212.914 31.9457 213.822C32.8197 214.848 33.2997 216.152 33.2997 217.5C33.2997 218.848 32.8197 220.152 31.9457 221.178C31.1713 222.086 30.7032 223.216 30.6082 224.406C30.5008 225.75 29.9182 227.012 28.9649 227.965C28.0116 228.918 26.7499 229.501 25.406 229.608C24.216 229.703 23.0862 230.171 22.1777 230.946C21.1516 231.82 19.8478 232.3 18.4999 232.3C17.1521 232.3 15.8483 231.82 14.8221 230.946C13.9136 230.171 12.7839 229.703 11.5939 229.608C10.25 229.501 8.98829 228.918 8.03498 227.965C7.08167 227.012 6.49909 225.75 6.39169 224.406C6.29667 223.216 5.8286 222.086 5.05414 221.178C4.18018 220.152 3.7002 218.848 3.7002 217.5C3.7002 216.152 4.18018 214.848 5.05414 213.822C5.8286 212.914 6.29667 211.784 6.39169 210.594C6.49909 209.25 7.08167 207.988 8.03498 207.035C8.98829 206.082 10.25 205.499 11.5939 205.392V205.392ZM25.3579 215.108C25.6949 214.759 25.8813 214.292 25.8771 213.807C25.8729 213.322 25.6784 212.858 25.3354 212.515C24.9923 212.172 24.5283 211.977 24.0433 211.973C23.5582 211.969 23.0909 212.155 22.742 212.492L16.6499 218.584L14.2579 216.192C13.909 215.855 13.4417 215.669 12.9566 215.673C12.4715 215.677 12.0075 215.872 11.6645 216.215C11.3215 216.558 11.127 217.022 11.1227 217.507C11.1185 217.992 11.305 218.459 11.642 218.808L15.342 222.508C15.6889 222.855 16.1594 223.05 16.6499 223.05C17.1405 223.05 17.611 222.855 17.9579 222.508L25.3579 215.108V215.108Z" fill="white"/>
<rect x="101" y="202" width="117" height="31" fill="#C4C4C4" fill-opacity="0.3"/>
</svg>
