<svg width="296" height="279" viewBox="0 0 296 279" fill="none" xmlns="http://www.w3.org/2000/svg">
<path d="M91.6579 118.583H106.083C110.017 118.583 113.79 120.146 116.572 122.928C119.354 125.71 120.917 129.483 120.917 133.417V140.833C120.917 144.767 122.479 148.54 125.261 151.322C128.043 154.104 131.816 155.667 135.75 155.667C139.684 155.667 143.457 157.229 146.239 160.011C149.021 162.793 150.583 166.566 150.583 170.5V192.342L91.6579 118.583ZM128.333 66.1846V77.7917C128.333 82.7092 130.287 87.4254 133.764 90.9026C137.241 94.3798 141.957 96.3333 146.875 96.3333H150.583C154.517 96.3333 158.29 97.8961 161.072 100.678C163.854 103.46 165.417 107.233 165.417 111.167C165.417 115.101 166.979 118.874 169.761 121.655C172.543 124.437 176.316 126 180.25 126C184.184 126 187.957 124.437 190.739 121.655C193.521 118.874 195.083 115.101 195.083 111.167C195.083 107.233 196.646 103.46 199.428 100.678C202.21 97.8961 205.983 96.3333 209.917 96.3333H217.808L128.333 66.1846ZM180.25 188.953V170.5C180.25 166.566 181.813 162.793 184.595 160.011C187.376 157.229 191.149 155.667 195.083 155.667H217.808L180.25 188.953ZM224.75 126C224.75 134.766 223.023 143.446 219.669 151.544C216.314 159.643 211.398 167.001 205.199 173.199C199.001 179.398 191.643 184.314 183.544 187.669C175.446 191.023 166.766 192.75 158 192.75C149.234 192.75 140.554 191.023 132.456 187.669C124.357 184.314 116.999 179.398 110.801 173.199C104.602 167.001 99.6855 159.643 96.331 151.544C92.9765 143.446 91.25 134.766 91.25 126C91.25 108.297 98.2826 91.3187 110.801 78.8006C123.319 66.2826 140.297 59.25 158 59.25C175.703 59.25 192.681 66.2826 205.199 78.8006C217.717 91.3187 224.75 108.297 224.75 126Z" stroke="white" stroke-width="2" stroke-linecap="round" stroke-linejoin="round"/>
<path fill-rule="evenodd" clip-rule="evenodd" d="M33.3002 174.5C33.3002 178.425 31.7409 182.19 28.9654 184.965C26.1898 187.741 22.4254 189.3 18.5002 189.3C14.575 189.3 10.8106 187.741 8.03501 184.965C5.25948 182.19 3.7002 178.425 3.7002 174.5C3.7002 170.575 5.25948 166.81 8.03501 164.035C10.8106 161.259 14.575 159.7 18.5002 159.7C22.4254 159.7 26.1898 161.259 28.9654 164.035C31.7409 166.81 33.3002 170.575 33.3002 174.5V174.5ZM22.2002 168.95C22.2002 169.931 21.8104 170.872 21.1165 171.566C20.4226 172.26 19.4815 172.65 18.5002 172.65C17.5189 172.65 16.5778 172.26 15.8839 171.566C15.19 170.872 14.8002 169.931 14.8002 168.95C14.8002 167.969 15.19 167.028 15.8839 166.334C16.5778 165.64 17.5189 165.25 18.5002 165.25C19.4815 165.25 20.4226 165.64 21.1165 166.334C21.8104 167.028 22.2002 167.969 22.2002 168.95V168.95ZM18.5002 176.35C16.729 176.35 14.995 176.858 13.5041 177.814C12.0133 178.77 10.8283 180.135 10.0901 181.745C11.131 182.956 12.4216 183.927 13.8732 184.593C15.3249 185.258 16.9033 185.602 18.5002 185.6C20.0971 185.602 21.6755 185.258 23.1271 184.593C24.5788 183.927 25.8693 182.956 26.9103 181.745C26.1721 180.135 24.9871 178.77 23.4963 177.814C22.0054 176.858 20.2714 176.35 18.5002 176.35V176.35Z" fill="white"/>
<path fill-rule="evenodd" clip-rule="evenodd" d="M159.3 260.5C159.3 264.425 157.741 268.19 154.965 270.965C152.19 273.741 148.425 275.3 144.5 275.3C140.575 275.3 136.811 273.741 134.035 270.965C131.259 268.19 129.7 264.425 129.7 260.5C129.7 256.575 131.259 252.81 134.035 250.035C136.811 247.259 140.575 245.7 144.5 245.7C148.425 245.7 152.19 247.259 154.965 250.035C157.741 252.81 159.3 256.575 159.3 260.5V260.5ZM148.2 254.95C148.2 255.931 147.81 256.872 147.116 257.566C146.423 258.26 145.481 258.65 144.5 258.65C143.519 258.65 142.578 258.26 141.884 257.566C141.19 256.872 140.8 255.931 140.8 254.95C140.8 253.969 141.19 253.028 141.884 252.334C142.578 251.64 143.519 251.25 144.5 251.25C145.481 251.25 146.423 251.64 147.116 252.334C147.81 253.028 148.2 253.969 148.2 254.95V254.95ZM144.5 262.35C142.729 262.35 140.995 262.858 139.504 263.814C138.013 264.77 136.828 266.135 136.09 267.745C137.131 268.956 138.422 269.927 139.873 270.593C141.325 271.258 142.903 271.602 144.5 271.6C146.097 271.602 147.676 271.258 149.127 270.593C150.579 269.927 151.869 268.956 152.91 267.745C152.172 266.135 150.987 264.77 149.496 263.814C148.005 262.858 146.271 262.35 144.5 262.35V262.35Z" fill="white"/>
<path fill-rule="evenodd" clip-rule="evenodd" d="M48.3002 40.5C48.3002 44.4252 46.7409 48.1897 43.9654 50.9652C41.1898 53.7407 37.4254 55.3 33.5002 55.3C29.575 55.3 25.8106 53.7407 23.035 50.9652C20.2595 48.1897 18.7002 44.4252 18.7002 40.5C18.7002 36.5748 20.2595 32.8104 23.035 30.0348C25.8106 27.2593 29.575 25.7 33.5002 25.7C37.4254 25.7 41.1898 27.2593 43.9654 30.0348C46.7409 32.8104 48.3002 36.5748 48.3002 40.5V40.5ZM37.2002 34.95C37.2002 35.9313 36.8104 36.8724 36.1165 37.5663C35.4226 38.2602 34.4815 38.65 33.5002 38.65C32.5189 38.65 31.5778 38.2602 30.8839 37.5663C30.19 36.8724 29.8002 35.9313 29.8002 34.95C29.8002 33.9687 30.19 33.0276 30.8839 32.3337C31.5778 31.6398 32.5189 31.25 33.5002 31.25C34.4815 31.25 35.4226 31.6398 36.1165 32.3337C36.8104 33.0276 37.2002 33.9687 37.2002 34.95V34.95ZM33.5002 42.35C31.729 42.3497 29.995 42.8578 28.5041 43.8141C27.0133 44.7704 25.8283 46.1346 25.0901 47.7446C26.131 48.9556 27.4216 49.9272 28.8732 50.5926C30.3249 51.2581 31.9033 51.6018 33.5002 51.6C35.0971 51.6018 36.6755 51.2581 38.1271 50.5926C39.5788 49.9272 40.8693 48.9556 41.9103 47.7446C41.1721 46.1346 39.9871 44.7704 38.4963 43.8141C37.0054 42.8578 35.2714 42.3497 33.5002 42.35V42.35Z" fill="white"/>
<path fill-rule="evenodd" clip-rule="evenodd" d="M277.3 18.5C277.3 22.4252 275.741 26.1897 272.965 28.9652C270.19 31.7407 266.425 33.3 262.5 33.3C258.575 33.3 254.811 31.7407 252.035 28.9652C249.259 26.1897 247.7 22.4252 247.7 18.5C247.7 14.5748 249.259 10.8104 252.035 8.03483C254.811 5.25929 258.575 3.70001 262.5 3.70001C266.425 3.70001 270.19 5.25929 272.965 8.03483C275.741 10.8104 277.3 14.5748 277.3 18.5V18.5ZM266.2 12.95C266.2 13.9313 265.81 14.8724 265.116 15.5663C264.423 16.2602 263.481 16.65 262.5 16.65C261.519 16.65 260.578 16.2602 259.884 15.5663C259.19 14.8724 258.8 13.9313 258.8 12.95C258.8 11.9687 259.19 11.0276 259.884 10.3337C260.578 9.63983 261.519 9.25001 262.5 9.25001C263.481 9.25001 264.423 9.63983 265.116 10.3337C265.81 11.0276 266.2 11.9687 266.2 12.95V12.95ZM262.5 20.35C260.729 20.3497 258.995 20.8578 257.504 21.8141C256.013 22.7704 254.828 24.1346 254.09 25.7446C255.131 26.9556 256.422 27.9272 257.873 28.5926C259.325 29.2581 260.903 29.6018 262.5 29.6C264.097 29.6018 265.676 29.2581 267.127 28.5926C268.579 27.9272 269.869 26.9556 270.91 25.7446C270.172 24.1346 268.987 22.7704 267.496 21.8141C266.005 20.8578 264.271 20.3497 262.5 20.35V20.35Z" fill="white"/>
<path fill-rule="evenodd" clip-rule="evenodd" d="M292.3 214.5C292.3 218.425 290.741 222.19 287.965 224.965C285.19 227.741 281.425 229.3 277.5 229.3C273.575 229.3 269.811 227.741 267.035 224.965C264.259 222.19 262.7 218.425 262.7 214.5C262.7 210.575 264.259 206.81 267.035 204.035C269.811 201.259 273.575 199.7 277.5 199.7C281.425 199.7 285.19 201.259 287.965 204.035C290.741 206.81 292.3 210.575 292.3 214.5V214.5ZM281.2 208.95C281.2 209.931 280.81 210.872 280.116 211.566C279.423 212.26 278.481 212.65 277.5 212.65C276.519 212.65 275.578 212.26 274.884 211.566C274.19 210.872 273.8 209.931 273.8 208.95C273.8 207.969 274.19 207.028 274.884 206.334C275.578 205.64 276.519 205.25 277.5 205.25C278.481 205.25 279.423 205.64 280.116 206.334C280.81 207.028 281.2 207.969 281.2 208.95V208.95ZM277.5 216.35C275.729 216.35 273.995 216.858 272.504 217.814C271.013 218.77 269.828 220.135 269.09 221.745C270.131 222.956 271.422 223.927 272.873 224.593C274.325 225.258 275.903 225.602 277.5 225.6C279.097 225.602 280.676 225.258 282.127 224.593C283.579 223.927 284.869 222.956 285.91 221.745C285.172 220.135 283.987 218.77 282.496 217.814C281.005 216.858 279.271 216.35 277.5 216.35V216.35Z" fill="white"/>
</svg>
