<?xml version="1.0" encoding="UTF-8" standalone="no"?>
<!DOCTYPE svg PUBLIC "-//W3C//DTD SVG 1.1//EN" "http://www.w3.org/Graphics/SVG/1.1/DTD/svg11.dtd">
<svg xmlns="http://www.w3.org/2000/svg" version="1.1" xmlns:xl="http://www.w3.org/1999/xlink" xmlns:dc="http://purl.org/dc/elements/1.1/" viewBox="146.75 900.5 801.4566 488.49095" width="801.4566" height="488.49095">
  <defs>
    <marker orient="auto" overflow="visible" markerUnits="strokeWidth" id="FilledArrow_Marker" stroke-linejoin="miter" stroke-miterlimit="10" viewBox="-1 -3 6 6" markerWidth="6" markerHeight="6" color="gray">
      <g>
        <path d="M 3.7333333 0 L 0 -1.4 L 0 1.4 Z" fill="currentColor" stroke="currentColor" stroke-width="1"/>
      </g>
    </marker>
    <marker orient="auto" overflow="visible" markerUnits="strokeWidth" id="FilledArrow_Marker_2" stroke-linejoin="miter" stroke-miterlimit="10" viewBox="-5 -3 6 6" markerWidth="6" markerHeight="6" color="gray">
      <g>
        <path d="M -3.7333333 0 L 0 1.4 L 0 -1.4 Z" fill="currentColor" stroke="currentColor" stroke-width="1"/>
      </g>
    </marker>
    <marker orient="auto" overflow="visible" markerUnits="strokeWidth" id="FilledArrow_Marker_3" stroke-linejoin="miter" stroke-miterlimit="10" viewBox="-1 -3 6 6" markerWidth="6" markerHeight="6" color="gray">
      <g>
        <path d="M 3.7333333 0 L 0 -1.4 L 0 1.4 Z" fill="currentColor" stroke="currentColor" stroke-width="1"/>
      </g>
    </marker>
    <marker orient="auto" overflow="visible" markerUnits="strokeWidth" id="FilledArrow_Marker_4" stroke-linejoin="miter" stroke-miterlimit="10" viewBox="-5 -3 6 6" markerWidth="6" markerHeight="6" color="gray">
      <g>
        <path d="M -3.7333333 0 L 0 1.4 L 0 -1.4 Z" fill="currentColor" stroke="currentColor" stroke-width="1"/>
      </g>
    </marker>
  </defs>
  <metadata> Produced by OmniGraffle 7.20\n2022-09-22 13:00:32 +0000</metadata>
  <g id="Canvas_1" stroke-dasharray="none" stroke-opacity="1" fill="none" fill-opacity="1" stroke="none">
    <title>Canvas 1</title>
    <g id="Canvas_1_Layer_1">
      <title>Layer 1</title>
      <g id="Graphic_326">
        <rect x="326.2066" y="1042.491" width="423" height="346" fill="#dbe5ff"/>
        <rect x="326.2066" y="1042.491" width="423" height="346" stroke="black" stroke-linecap="round" stroke-linejoin="round" stroke-width="1"/>
      </g>
      <g id="Graphic_325">
        <path d="M 361.7066 1069.9819 L 711.7066 1069.9819 C 714.468 1069.9819 716.7066 1072.2205 716.7066 1074.9819 L 716.7066 1094.9819 C 716.7066 1097.7433 714.468 1099.9819 711.7066 1099.9819 L 361.7066 1099.9819 C 358.9452 1099.9819 356.7066 1097.7433 356.7066 1094.9819 L 356.7066 1074.9819 C 356.7066 1072.2205 358.9452 1069.9819 361.7066 1069.9819 Z" fill="#d5c0ec"/>
        <path d="M 361.7066 1069.9819 L 711.7066 1069.9819 C 714.468 1069.9819 716.7066 1072.2205 716.7066 1074.9819 L 716.7066 1094.9819 C 716.7066 1097.7433 714.468 1099.9819 711.7066 1099.9819 L 361.7066 1099.9819 C 358.9452 1099.9819 356.7066 1097.7433 356.7066 1094.9819 L 356.7066 1074.9819 C 356.7066 1072.2205 358.9452 1069.9819 361.7066 1069.9819 Z" stroke="black" stroke-linecap="round" stroke-linejoin="round" stroke-width="1"/>
        <text transform="translate(361.7066 1075.4819)" fill="black">
          <tspan font-family="Helvetica" font-weight="bold" font-size="16" fill="black" x="91.85156" y="15">Orchestration Service</tspan>
        </text>
      </g>
      <g id="Graphic_324">
        <path d="M 360.2066 1156.491 L 518.4777 1156.491 C 521.23915 1156.491 523.4777 1158.7295 523.4777 1161.491 L 523.4777 1181.491 C 523.4777 1184.2524 521.23915 1186.491 518.4777 1186.491 L 360.2066 1186.491 C 357.4452 1186.491 355.2066 1184.2524 355.2066 1181.491 L 355.2066 1161.491 C 355.2066 1158.7295 357.4452 1156.491 360.2066 1156.491 Z" fill="#b6cdff"/>
        <path d="M 360.2066 1156.491 L 518.4777 1156.491 C 521.23915 1156.491 523.4777 1158.7295 523.4777 1161.491 L 523.4777 1181.491 C 523.4777 1184.2524 521.23915 1186.491 518.4777 1186.491 L 360.2066 1186.491 C 357.4452 1186.491 355.2066 1184.2524 355.2066 1181.491 L 355.2066 1161.491 C 355.2066 1158.7295 357.4452 1156.491 360.2066 1156.491 Z" stroke="black" stroke-linecap="round" stroke-linejoin="round" stroke-width="1"/>
        <text transform="translate(360.2066 1161.991)" fill="black">
          <tspan font-family="Helvetica" font-weight="bold" font-size="16" fill="black" x="25.475403" y="15">Token Service</tspan>
        </text>
      </g>
      <g id="Graphic_323">
        <path d="M 555.2066 1156.491 L 713.4777 1156.491 C 716.23915 1156.491 718.4777 1158.7295 718.4777 1161.491 L 718.4777 1181.491 C 718.4777 1184.2524 716.23915 1186.491 713.4777 1186.491 L 555.2066 1186.491 C 552.4452 1186.491 550.2066 1184.2524 550.2066 1181.491 L 550.2066 1161.491 C 550.2066 1158.7295 552.4452 1156.491 555.2066 1156.491 Z" fill="#e5af6d"/>
        <path d="M 555.2066 1156.491 L 713.4777 1156.491 C 716.23915 1156.491 718.4777 1158.7295 718.4777 1161.491 L 718.4777 1181.491 C 718.4777 1184.2524 716.23915 1186.491 713.4777 1186.491 L 555.2066 1186.491 C 552.4452 1186.491 550.2066 1184.2524 550.2066 1181.491 L 550.2066 1161.491 C 550.2066 1158.7295 552.4452 1156.491 555.2066 1156.491 Z" stroke="black" stroke-linecap="round" stroke-linejoin="round" stroke-width="1"/>
        <text transform="translate(555.2066 1161.991)" fill="black">
          <tspan font-family="Helvetica" font-weight="bold" font-size="16" fill="black" x="6.662903" y="15">Encryption Service</tspan>
        </text>
      </g>
      <g id="Graphic_322">
        <path d="M 555.2066 1239.491 L 713.4777 1239.491 C 716.23915 1239.491 718.4777 1241.7295 718.4777 1244.491 L 718.4777 1264.491 C 718.4777 1267.2524 716.23915 1269.491 713.4777 1269.491 L 555.2066 1269.491 C 552.4452 1269.491 550.2066 1267.2524 550.2066 1264.491 L 550.2066 1244.491 C 550.2066 1241.7295 552.4452 1239.491 555.2066 1239.491 Z" fill="#ffffbf"/>
        <path d="M 555.2066 1239.491 L 713.4777 1239.491 C 716.23915 1239.491 718.4777 1241.7295 718.4777 1244.491 L 718.4777 1264.491 C 718.4777 1267.2524 716.23915 1269.491 713.4777 1269.491 L 555.2066 1269.491 C 552.4452 1269.491 550.2066 1267.2524 550.2066 1264.491 L 550.2066 1244.491 C 550.2066 1241.7295 552.4452 1239.491 555.2066 1239.491 Z" stroke="black" stroke-linecap="round" stroke-linejoin="round" stroke-width="1"/>
        <text transform="translate(555.2066 1244.991)" fill="black">
          <tspan font-family="Helvetica" font-weight="bold" font-size="16" fill="black" x="18.658997" y="15">Storage Service</tspan>
        </text>
      </g>
      <g id="Graphic_321">
        <path d="M 594.3422 1362.991 L 594.3422 1326.991 C 594.3422 1324.507 612.2622 1322.491 634.3422 1322.491 C 656.4222 1322.491 674.3422 1324.507 674.3422 1326.991 L 674.3422 1362.991 C 674.3422 1365.475 656.4222 1367.491 634.3422 1367.491 C 612.2622 1367.491 594.3422 1365.475 594.3422 1362.991" fill="#ccc"/>
        <path d="M 594.3422 1362.991 L 594.3422 1326.991 C 594.3422 1324.507 612.2622 1322.491 634.3422 1322.491 C 656.4222 1322.491 674.3422 1324.507 674.3422 1326.991 L 674.3422 1362.991 C 674.3422 1365.475 656.4222 1367.491 634.3422 1367.491 C 612.2622 1367.491 594.3422 1365.475 594.3422 1362.991 M 594.3422 1326.991 C 594.3422 1329.475 612.2622 1331.491 634.3422 1331.491 C 656.4222 1331.491 674.3422 1329.475 674.3422 1326.991" stroke="black" stroke-linecap="round" stroke-linejoin="round" stroke-width="1"/>
        <text transform="translate(599.3422 1337.741)" fill="black">
          <tspan font-family="Helvetica" font-weight="bold" font-size="16" fill="black" x="23.445312" y="15">DB</tspan>
        </text>
      </g>
      <g id="Line_320">
        <line x1="636.5549" y1="1201.3884" x2="636.1295" y2="1224.9269" marker-end="url(#FilledArrow_Marker)" marker-start="url(#FilledArrow_Marker_2)" stroke="gray" stroke-linecap="round" stroke-linejoin="round" stroke-width="3"/>
      </g>
      <g id="Line_319">
        <line x1="636.5549" y1="1283.055" x2="636.1295" y2="1306.5935" marker-end="url(#FilledArrow_Marker)" marker-start="url(#FilledArrow_Marker_2)" stroke="gray" stroke-linecap="round" stroke-linejoin="round" stroke-width="3"/>
      </g>
      <g id="Line_318">
        <line x1="636.5549" y1="1115.8793" x2="636.1295" y2="1139.4178" marker-end="url(#FilledArrow_Marker)" marker-start="url(#FilledArrow_Marker_2)" stroke="gray" stroke-linecap="round" stroke-linejoin="round" stroke-width="3"/>
      </g>
      <g id="Line_317">
        <line x1="439.55487" y1="1115.8793" x2="439.12947" y2="1139.4178" marker-end="url(#FilledArrow_Marker)" marker-start="url(#FilledArrow_Marker_2)" stroke="gray" stroke-linecap="round" stroke-linejoin="round" stroke-width="3"/>
      </g>
      <g id="Line_316">
        <line x1="414.12064" y1="1023.7421" x2="413.95925" y2="1053.5912" marker-end="url(#FilledArrow_Marker)" marker-start="url(#FilledArrow_Marker_2)" stroke="gray" stroke-linecap="round" stroke-linejoin="round" stroke-width="3"/>
      </g>
      <g id="Line_315">
        <line x1="651.454" y1="1023.7421" x2="651.2926" y2="1053.5912" marker-end="url(#FilledArrow_Marker_3)" marker-start="url(#FilledArrow_Marker_4)" stroke="gray" stroke-linecap="round" stroke-linejoin="round" stroke-width="3"/>
      </g>
      <g id="Graphic_314">
        <text transform="translate(247.6391 1055.491)" fill="white">
          <tspan font-family="Helvetica Neue" font-size="17" fill="white" x="189182e-18" y="16">*</tspan>
        </text>
      </g>
      <g id="Graphic_313">
        <text transform="translate(247.6391 1140.491)" fill="white">
          <tspan font-family="Helvetica Neue" font-size="17" fill="white" x="189182e-18" y="16">*</tspan>
        </text>
      </g>
      <g id="Graphic_312">
        <text transform="translate(931.6448 1140.491)" fill="white">
          <tspan font-family="Helvetica Neue" font-size="17" fill="white" x="189182e-18" y="16">*</tspan>
        </text>
      </g>
      <g id="Graphic_311">
        <text transform="translate(931.6448 1229.491)" fill="white">
          <tspan font-family="Helvetica Neue" font-size="17" fill="white" x="189182e-18" y="16">*</tspan>
        </text>
      </g>
      <g id="Graphic_310">
        <text transform="translate(754.2066 1342.539)" fill="white">
          <tspan font-family="Helvetica Neue" font-size="17" fill="white" x="6.95" y="16">* example independent </tspan>
          <tspan font-family="Helvetica Neue" font-size="17" fill="white" x="3.0485" y="36.476">geopolitical jurisdictions</tspan>
        </text>
      </g>
      <g id="Graphic_309">
        <text transform="translate(487.8201 1046.015)" fill="black">
          <tspan font-family="Helvetica Neue" font-size="17" fill="black" x="5186962e-19" y="16">Hellō Service</tspan>
        </text>
      </g>
      <g id="Graphic_308">
        <title>Node</title>
        <path d="M 588.4777 1007.3514 L 588.4777 911.6351 L 601.4777 901 L 718.4777 901 L 718.4777 996.7163 L 705.4777 1007.3514 Z" fill="#ffc0c0"/>
        <path d="M 588.4777 1007.3514 L 588.4777 911.6351 L 601.4777 901 L 718.4777 901 L 718.4777 996.7163 L 705.4777 1007.3514 L 588.4777 1007.3514 M 588.4777 911.6351 L 705.4777 911.6351 L 718.4777 901 M 705.4777 911.6351 L 705.4777 1007.3514" stroke="black" stroke-linecap="round" stroke-linejoin="round" stroke-width="1"/>
        <text transform="translate(594.4777 926.4933)" fill="black">
          <tspan font-family="Avenir" font-weight="bold" font-size="16" fill="black" x="23.316" y="16">OpenID</tspan>
          <tspan font-family="Avenir" font-weight="bold" font-size="16" fill="black" x="20.788" y="38">Provider</tspan>
          <tspan font-family="Avenir" font-weight="bold" font-size="16" fill="black" x="8.356" y="60">op.example</tspan>
        </text>
      </g>
      <g id="Graphic_307">
        <title>Node</title>
        <path d="M 352.2066 1007.3514 L 352.2066 911.6351 L 365.2066 901 L 482.2066 901 L 482.2066 996.7163 L 469.2066 1007.3514 Z" fill="#c0ffbf"/>
        <path d="M 352.2066 1007.3514 L 352.2066 911.6351 L 365.2066 901 L 482.2066 901 L 482.2066 996.7163 L 469.2066 1007.3514 L 352.2066 1007.3514 M 352.2066 911.6351 L 469.2066 911.6351 L 482.2066 901 M 469.2066 911.6351 L 469.2066 1007.3514" stroke="black" stroke-linecap="round" stroke-linejoin="round" stroke-width="1"/>
        <text transform="translate(358.2066 937.4933)" fill="black">
          <tspan font-family="Avenir" font-weight="bold" font-size="16" fill="black" x="9.652" y="16">Application</tspan>
          <tspan font-family="Avenir" font-weight="bold" font-size="16" fill="black" x="3.9" y="38">example.app</tspan>
        </text>
      </g>
      <g id="Group_305">
        <g id="Graphic_306">
          <path d="M 269.98105 1079.0021 C 269.4863 1079.271 268.86873 1079.0884 268.6031 1078.597 C 268.33415 1078.1023 268.51677 1077.4847 269.0115 1077.219 C 271.34904 1075.9507 272.43813 1074.3104 272.65727 1072.7067 C 272.7735 1071.85 272.64067 1070.99 272.3186 1070.1931 C 271.98988 1069.3863 271.46858 1068.6525 270.80782 1068.0615 C 269.52284 1066.9126 267.71988 1066.3083 265.83722 1066.7765 C 265.07354 1066.9657 264.4128 1067.3476 263.83504 1067.8855 C 263.22077 1068.4566 262.6895 1069.2037 262.22466 1070.0869 C 261.96235 1070.585 261.34808 1070.7742 260.85334 1070.5152 C 260.3553 1070.2529 260.16603 1069.6386 260.42502 1069.1439 C 260.99612 1068.0615 261.66352 1067.1317 262.45376 1066.3946 C 263.28054 1065.6276 264.24013 1065.0764 265.35577 1064.8008 C 267.94566 1064.16 270.4127 1064.9768 272.16586 1066.544 C 273.0557 1067.3409 273.76296 1068.3337 274.2079 1069.4294 C 274.65614 1070.5351 274.83876 1071.7504 274.66942 1072.9822 C 274.36726 1075.1803 272.95943 1077.385 269.98105 1079.0021 Z M 262.19146 1087.0274 C 258.33982 1081.8543 258.24685 1076.9534 262.92194 1072.3979 L 259.55508 1070.5385 C 256.85894 1069.4892 251.91158 1077.2224 253.8241 1079.2876 L 256.4472 1083.1791 L 255.906 1084.308 C 255.75657 1084.6434 255.90267 1084.8791 256.2679 1085.0418 L 256.6232 1085.1381 L 249.79982 1098.6421 L 251.1811 1101.5873 L 253.94365 1100.7738 L 254.6542 1099.3925 L 253.97353 1098.1175 L 255.47434 1097.7954 L 255.82298 1097.118 L 255.03937 1095.9227 L 255.55403 1094.9233 L 257.05152 1094.734 L 257.5396 1093.7877 L 256.70288 1092.6953 L 257.23746 1091.6593 L 258.76483 1091.4103 L 260.84338 1087.4425 L 261.19534 1087.635 C 261.8063 1088.0069 262.12173 1087.7679 262.19146 1087.0274 Z M 269.43983 1090.2714 L 268.4238 1094.0633 L 267.01264 1094.6211 L 266.71712 1095.7268 L 267.74644 1096.6 L 267.4775 1097.6061 L 266.08293 1098.0975 L 265.79738 1099.1601 L 266.7968 1100.1396 L 266.60423 1100.8601 L 265.23292 1101.481 L 266.14934 1102.5601 L 265.7542 1104.031 L 263.28054 1105.3824 L 261.34808 1102.849 L 265.0337 1089.0927 L 264.1405 1088.8536 C 263.9579 1088.8038 263.845 1088.6146 263.8948 1088.4286 L 264.27 1087.0307 C 261.56723 1084.9821 260.2291 1081.4359 261.15882 1077.9595 C 262.35415 1073.4936 266.86322 1070.7974 271.33244 1071.8002 C 271.35236 1072.0393 271.34904 1072.2816 271.31584 1072.524 C 271.23283 1073.1283 270.97052 1073.7493 270.48575 1074.3502 C 270.41934 1074.4299 270.3496 1074.513 270.27656 1074.5926 C 268.8488 1074.4997 267.5107 1075.4227 267.12553 1076.8571 C 266.9595 1077.4747 266.99604 1078.099 267.19194 1078.6601 C 267.23842 1078.8593 267.3148 1079.0519 267.4144 1079.2411 C 267.65015 1079.6728 267.99547 1080.0015 268.40055 1080.2107 C 268.66618 1080.3867 268.96502 1080.5195 269.2871 1080.6091 C 270.89083 1081.0375 272.53442 1080.1144 273.01255 1078.5372 C 273.49733 1078.1089 273.919 1077.6573 274.28093 1077.1925 C 274.98485 1076.286 275.4663 1075.3231 275.75186 1074.3436 C 277.69096 1076.4354 278.5443 1079.447 277.75072 1082.4088 C 276.82102 1085.8852 273.8825 1088.2892 270.52227 1088.7109 L 270.14707 1090.1087 C 270.09726 1090.2914 269.908 1090.4042 269.72206 1090.3544 Z" fill="gray"/>
        </g>
      </g>
      <g id="Group_303">
        <g id="Graphic_304">
          <path d="M 271.53127 1163.5111 C 271.03654 1163.7801 270.41895 1163.5975 270.15332 1163.106 C 269.88437 1162.6113 270.067 1161.9937 270.56173 1161.7281 C 272.89927 1160.4597 273.98835 1158.8194 274.2075 1157.2157 C 274.3237 1156.359 274.1909 1155.4991 273.86882 1154.7022 C 273.5401 1153.8953 273.0188 1153.1615 272.35805 1152.5705 C 271.07306 1151.4217 269.2701 1150.8173 267.38745 1151.2855 C 266.62376 1151.4748 265.963 1151.8566 265.38526 1152.3945 C 264.771 1152.9656 264.23974 1153.7127 263.77488 1154.5959 C 263.51257 1155.094 262.8983 1155.2832 262.40357 1155.0243 C 261.9055 1154.762 261.71625 1154.1477 261.97524 1153.653 C 262.54634 1152.5705 263.21374 1151.6408 264.004 1150.9037 C 264.83076 1150.1367 265.79035 1149.5855 266.906 1149.3099 C 269.4959 1148.669 271.96292 1149.4859 273.71608 1151.0531 C 274.60594 1151.85 275.31318 1152.8428 275.7581 1153.9385 C 276.20636 1155.0442 276.38898 1156.2594 276.21964 1157.4913 C 275.9175 1159.6894 274.50965 1161.8941 271.53127 1163.5111 Z M 263.74168 1171.5365 C 259.89005 1166.3633 259.79708 1161.4625 264.47216 1156.9069 L 261.1053 1155.0475 C 258.40916 1153.9983 253.4618 1161.7314 255.37434 1163.7967 L 257.99743 1167.6882 L 257.4562 1168.8171 C 257.3068 1169.1524 257.4529 1169.3882 257.81813 1169.5509 L 258.1734 1169.6472 L 251.35005 1183.1511 L 252.73132 1186.0963 L 255.49387 1185.2828 L 256.20443 1183.9015 L 255.52376 1182.6265 L 257.02456 1182.3044 L 257.3732 1181.6271 L 256.5896 1180.4318 L 257.10425 1179.4323 L 258.60174 1179.243 L 259.08984 1178.2968 L 258.2531 1177.2043 L 258.78768 1176.1684 L 260.31505 1175.9194 L 262.3936 1171.9515 L 262.74557 1172.1441 C 263.35652 1172.516 263.67195 1172.2769 263.74168 1171.5365 Z M 270.99005 1174.7805 L 269.97402 1178.5723 L 268.56286 1179.1302 L 268.26735 1180.2358 L 269.29666 1181.1091 L 269.0277 1182.1152 L 267.63316 1182.6066 L 267.3476 1183.6691 L 268.34704 1184.6486 L 268.15445 1185.3691 L 266.78314 1185.99 L 267.69956 1187.0692 L 267.30444 1188.5401 L 264.83076 1189.8915 L 262.8983 1187.358 L 266.58392 1173.6017 L 265.69074 1173.3627 C 265.50812 1173.3129 265.39522 1173.1236 265.44503 1172.9377 L 265.82023 1171.5398 C 263.11745 1169.4911 261.77934 1165.945 262.70904 1162.4685 C 263.90438 1158.0026 268.41344 1155.3065 272.88267 1156.3092 C 272.9026 1156.5483 272.89927 1156.7907 272.86606 1157.0331 C 272.78305 1157.6374 272.52075 1158.2583 272.03597 1158.8593 C 271.96956 1158.939 271.89984 1159.022 271.8268 1159.1017 C 270.39903 1159.0087 269.06092 1159.9318 268.67575 1161.3662 C 268.50973 1161.9838 268.54626 1162.608 268.74216 1163.1691 C 268.78865 1163.3684 268.865 1163.561 268.96463 1163.7502 C 269.20037 1164.1818 269.5457 1164.5106 269.95078 1164.7197 C 270.2164 1164.8957 270.51524 1165.0285 270.83732 1165.1182 C 272.44106 1165.5465 274.08464 1164.6235 274.56277 1163.0463 C 275.04755 1162.618 275.46924 1162.1664 275.83116 1161.7015 C 276.53508 1160.795 277.01653 1159.8322 277.30208 1158.8526 C 279.24118 1160.9445 280.0945 1163.956 279.30095 1166.9178 C 278.37124 1170.3943 275.4327 1172.7982 272.0725 1173.2199 L 271.6973 1174.6178 C 271.6475 1174.8004 271.45823 1174.9133 271.2723 1174.8635 Z" fill="gray"/>
        </g>
      </g>
      <g id="Group_301">
        <g id="Graphic_302">
          <path d="M 808.102 1163.5111 C 808.6065 1163.7801 809.2363 1163.5975 809.50715 1163.106 C 809.7814 1162.6113 809.5952 1161.9937 809.0907 1161.7281 C 806.7071 1160.4597 805.5965 1158.8194 805.3731 1157.2157 C 805.2546 1156.359 805.39 1155.4991 805.7184 1154.7022 C 806.0536 1153.8953 806.5852 1153.1615 807.259 1152.5705 C 808.5693 1151.4217 810.4078 1150.8173 812.3275 1151.2855 C 813.1063 1151.4748 813.7801 1151.8566 814.3692 1152.3945 C 814.9956 1152.9656 815.5373 1153.7127 816.0113 1154.5959 C 816.2788 1155.094 816.9052 1155.2832 817.4097 1155.0243 C 817.9175 1154.762 818.1105 1154.1477 817.8464 1153.653 C 817.2641 1152.5705 816.5835 1151.6408 815.7777 1150.9037 C 814.9346 1150.1367 813.9561 1149.5855 812.8185 1149.3099 C 810.1775 1148.669 807.6619 1149.4859 805.8742 1151.0531 C 804.9668 1151.85 804.2456 1152.8428 803.7919 1153.9385 C 803.3348 1155.0442 803.1486 1156.2594 803.32125 1157.4913 C 803.6294 1159.6894 805.0649 1161.8941 808.102 1163.5111 Z M 816.0452 1171.5365 C 819.9727 1166.3633 820.0675 1161.4625 815.3003 1156.9069 L 818.7335 1155.0475 C 821.4828 1153.9983 826.5277 1161.7314 824.57745 1163.7967 L 821.90265 1167.6882 L 822.4545 1168.8171 C 822.6069 1169.1524 822.4579 1169.3882 822.0855 1169.5509 L 821.7232 1169.6472 L 828.6811 1183.1511 L 827.2726 1186.0963 L 824.4556 1185.2828 L 823.731 1183.9015 L 824.4251 1182.6265 L 822.8947 1182.3044 L 822.5392 1181.6271 L 823.3382 1180.4318 L 822.8134 1179.4323 L 821.2864 1179.243 L 820.7887 1178.2968 L 821.6419 1177.2043 L 821.0968 1176.1684 L 819.5393 1175.9194 L 817.4198 1171.9515 L 817.0609 1172.1441 C 816.4379 1172.516 816.1163 1172.2769 816.0452 1171.5365 Z M 808.6539 1174.7805 L 809.69 1178.5723 L 811.129 1179.1302 L 811.4303 1180.2358 L 810.3807 1181.1091 L 810.6549 1182.1152 L 812.077 1182.6066 L 812.3682 1183.6691 L 811.349 1184.6486 L 811.5454 1185.3691 L 812.9438 1185.99 L 812.0093 1187.0692 L 812.4122 1188.5401 L 814.9346 1189.8915 L 816.9052 1187.358 L 813.1469 1173.6017 L 814.0577 1173.3627 C 814.2439 1173.3129 814.359 1173.1236 814.3082 1172.9377 L 813.92565 1171.5398 C 816.6817 1169.4911 818.0462 1165.945 817.0982 1162.4685 C 815.8793 1158.0026 811.2813 1155.3065 806.724 1156.3092 C 806.7037 1156.5483 806.7071 1156.7907 806.7409 1157.0331 C 806.8256 1157.6374 807.0931 1158.2583 807.5874 1158.8593 C 807.6551 1158.939 807.7262 1159.022 807.8007 1159.1017 C 809.2566 1159.0087 810.6211 1159.9318 811.0138 1161.3662 C 811.1831 1161.9838 811.1459 1162.608 810.9461 1163.1691 C 810.8987 1163.3684 810.82085 1163.561 810.7193 1163.7502 C 810.4789 1164.1818 810.1268 1164.5106 809.7137 1164.7197 C 809.4428 1164.8957 809.1381 1165.0285 808.8097 1165.1182 C 807.1743 1165.5465 805.4983 1164.6235 805.0108 1163.0463 C 804.5164 1162.618 804.0864 1162.1664 803.7174 1161.7015 C 802.9996 1160.795 802.50865 1159.8322 802.2175 1158.8526 C 800.24015 1160.9445 799.37 1163.956 800.1792 1166.9178 C 801.1272 1170.3943 804.1237 1172.7982 807.5501 1173.2199 L 807.9327 1174.6178 C 807.9835 1174.8004 808.1765 1174.9133 808.3661 1174.8635 Z" fill="gray"/>
        </g>
      </g>
      <g id="Group_299">
        <g id="Graphic_300">
          <path d="M 809.602 1245.1106 C 810.1065 1245.3795 810.7363 1245.1969 811.00715 1244.7055 C 811.2814 1244.2108 811.0952 1243.5932 810.5907 1243.3275 C 808.2071 1242.0592 807.0965 1240.4189 806.8731 1238.8152 C 806.7546 1237.9585 806.89 1237.0985 807.2184 1236.3016 C 807.5536 1235.4948 808.0852 1234.761 808.759 1234.17 C 810.0693 1233.0211 811.9078 1232.4168 813.8275 1232.885 C 814.6063 1233.0742 815.2801 1233.4561 815.8692 1233.994 C 816.4956 1234.5651 817.0373 1235.3122 817.5113 1236.1954 C 817.7788 1236.6934 818.4052 1236.8827 818.9097 1236.6237 C 819.4175 1236.3614 819.6105 1235.7471 819.3464 1235.2524 C 818.7641 1234.17 818.0835 1233.2403 817.2777 1232.5031 C 816.4346 1231.7361 815.4561 1231.185 814.3185 1230.9094 C 811.6775 1230.2685 809.1619 1231.0853 807.3742 1232.6525 C 806.4668 1233.4494 805.7456 1234.4422 805.2919 1235.538 C 804.8348 1236.6436 804.6486 1237.8589 804.82125 1239.0908 C 805.1294 1241.2888 806.5649 1243.4936 809.602 1245.1106 Z M 817.5452 1253.136 C 821.4727 1247.9628 821.5675 1243.0619 816.8003 1238.5064 L 820.2335 1236.647 C 822.9828 1235.5977 828.0277 1243.3309 826.07745 1245.3961 L 823.40265 1249.2876 L 823.9545 1250.4165 C 824.1069 1250.7519 823.9579 1250.9876 823.5855 1251.1503 L 823.2232 1251.2466 L 830.1811 1264.7506 L 828.7726 1267.6958 L 825.9556 1266.8823 L 825.231 1265.501 L 825.9251 1264.226 L 824.3947 1263.9039 L 824.0392 1263.2265 L 824.8382 1262.0312 L 824.3134 1261.0318 L 822.7864 1260.8425 L 822.2887 1259.8962 L 823.1419 1258.8038 L 822.5968 1257.7679 L 821.0393 1257.5188 L 818.9198 1253.551 L 818.5609 1253.7436 C 817.9379 1254.1154 817.6163 1253.8764 817.5452 1253.136 Z M 810.1539 1256.38 L 811.19 1260.1718 L 812.629 1260.7296 L 812.9303 1261.8353 L 811.8807 1262.7086 L 812.1549 1263.7146 L 813.577 1264.206 L 813.8682 1265.2686 L 812.849 1266.2481 L 813.0454 1266.9686 L 814.4438 1267.5895 L 813.5093 1268.6686 L 813.9122 1270.1396 L 816.4346 1271.491 L 818.4052 1268.9575 L 814.6469 1255.2012 L 815.5577 1254.9621 C 815.7439 1254.9123 815.859 1254.723 815.8082 1254.5371 L 815.42565 1253.1392 C 818.1817 1251.0906 819.5462 1247.5444 818.5982 1244.068 C 817.3793 1239.6021 812.7813 1236.906 808.224 1237.9087 C 808.2037 1238.1478 808.2071 1238.3902 808.2409 1238.6325 C 808.3256 1239.2368 808.5931 1239.8578 809.0874 1240.4587 C 809.1551 1240.5384 809.2262 1240.6214 809.3007 1240.7011 C 810.7566 1240.6082 812.1211 1241.5312 812.5138 1242.9656 C 812.6831 1243.5832 812.6459 1244.2074 812.4461 1244.7686 C 812.3987 1244.9678 812.3208 1245.1604 812.2193 1245.3497 C 811.9789 1245.7813 811.6268 1246.11 811.2137 1246.3192 C 810.9428 1246.4952 810.6381 1246.628 810.3097 1246.7176 C 808.6743 1247.146 806.9983 1246.2229 806.5108 1244.6457 C 806.0164 1244.2174 805.5864 1243.7658 805.2174 1243.301 C 804.4996 1242.3945 804.00865 1241.4316 803.7175 1240.4521 C 801.74015 1242.544 800.87 1245.5555 801.6792 1248.5173 C 802.6272 1251.9937 805.6237 1254.3977 809.0501 1254.8194 L 809.4327 1256.2172 C 809.4835 1256.3999 809.6765 1256.5127 809.8661 1256.463 Z" fill="gray"/>
        </g>
      </g>
      <g id="Group_297">
        <g id="Graphic_298">
          <path d="M 286.7066 1082.0098 L 335.6494 1082.0098 L 335.6494 1071.6422 L 352.7066 1084.9819 L 335.6494 1098.3216 L 335.6494 1087.954 L 286.7066 1087.954 Z" fill="gray"/>
        </g>
      </g>
      <g id="Group_295">
        <g id="Graphic_296">
          <path d="M 286.7066 1168.5188 L 335.6494 1168.5188 L 335.6494 1158.1512 L 352.7066 1171.491 L 335.6494 1184.8307 L 335.6494 1174.463 L 286.7066 1174.463 Z" fill="gray"/>
        </g>
      </g>
      <g id="Group_293">
        <g id="Graphic_294">
          <path d="M 791.6923 1168.5188 L 743.4698 1168.5188 L 743.4698 1158.1512 L 726.6637 1171.491 L 743.4698 1184.8307 L 743.4698 1174.463 L 791.6923 1174.463 Z" fill="gray"/>
        </g>
      </g>
      <g id="Group_291">
        <g id="Graphic_292">
          <path d="M 792.4423 1249.8586 L 744.2198 1249.8586 L 744.2198 1239.491 L 727.4137 1252.8307 L 744.2198 1266.1704 L 744.2198 1255.8028 L 792.4423 1255.8028 Z" fill="gray"/>
        </g>
      </g>
      <g id="Group_288">
        <g id="Graphic_290">
          <rect x="147" y="1135.491" width="95.6391" height="71.72932" fill="#005293"/>
        </g>
        <g id="Graphic_289">
          <path d="M 173.30075 1135.491 L 173.30075 1164.1827 L 147 1164.1827 L 147 1178.5285 L 173.30075 1178.5285 L 173.30075 1207.2203 L 187.64662 1207.2203 L 187.64662 1178.5285 L 242.6391 1178.5285 L 242.6391 1164.1827 L 187.64662 1164.1827 L 187.64662 1135.491 Z" fill="#fecb00"/>
        </g>
      </g>
      <g id="Group_285">
        <g id="Graphic_287">
          <rect x="833.2066" y="1137.6113" width="95.6391" height="63.7594" fill="white"/>
          <rect x="833.2066" y="1137.6113" width="95.6391" height="63.7594" stroke="black" stroke-linecap="butt" stroke-linejoin="round" stroke-width=".5"/>
        </g>
        <g id="Graphic_286">
          <circle cx="881.0333" cy="1169.4939" r="19.8190855333129" fill="#bc002d"/>
          <circle cx="881.0333" cy="1169.4939" r="19.8190855333129" stroke="black" stroke-linecap="butt" stroke-linejoin="round" stroke-width=".5"/>
        </g>
      </g>
      <g id="Group_280">
        <g id="Graphic_284">
          <rect x="833.2066" y="1226.491" width="95.6391" height="71.72932" fill="red"/>
        </g>
        <g id="Group_281">
          <g id="Graphic_283">
            <rect x="858.6107" y="1255.631" width="44.830827" height="13.449248" fill="white"/>
          </g>
          <g id="Graphic_282">
            <rect x="874.3015" y="1239.9402" width="13.449248" height="44.830827" fill="white"/>
          </g>
        </g>
      </g>
      <g id="Group_265">
        <g id="Graphic_279">
          <rect x="147" y="1050.491" width="95.6391" height="67.7062" fill="white"/>
          <rect x="147" y="1050.491" width="95.6391" height="67.7062" stroke="black" stroke-linecap="round" stroke-linejoin="round" stroke-width=".5"/>
        </g>
        <g id="Graphic_278">
          <path d="M 167.95865 1076.1852 L 177.21972 1062.2762 Z M 164.47704 1073.87 L 173.75552 1059.9609 Z M 161.01284 1071.5547 L 170.29132 1057.6457 Z" fill="#252422"/>
        </g>
        <g id="Graphic_277">
          <path d="M 167.95865 1076.1852 L 177.21972 1062.2762 M 164.47704 1073.87 L 173.75552 1059.9609 M 161.01284 1071.5547 L 170.29132 1057.6457" fill="white"/>
          <path d="M 167.95865 1076.1852 L 177.21972 1062.2762 M 164.47704 1073.87 L 173.75552 1059.9609 M 161.01284 1071.5547 L 170.29132 1057.6457" stroke="#252422" stroke-linecap="butt" stroke-linejoin="round" stroke-width="1.6002"/>
        </g>
        <g id="Graphic_276">
          <path d="M 218.94677 1110.1831 L 228.22525 1096.2741 Z M 215.46516 1107.8678 L 224.74364 1093.9588 Z M 211.98356 1105.5526 L 221.26204 1091.6435 Z" fill="#252422"/>
        </g>
        <g id="Graphic_275">
          <path d="M 218.94677 1110.1831 L 228.22525 1096.2741 M 215.46516 1107.8678 L 224.74364 1093.9588 M 211.98356 1105.5526 L 221.26204 1091.6435" fill="white"/>
          <path d="M 218.94677 1110.1831 L 228.22525 1096.2741 M 215.46516 1107.8678 L 224.74364 1093.9588 M 211.98356 1105.5526 L 221.26204 1091.6435" stroke="#252422" stroke-linecap="butt" stroke-linejoin="round" stroke-width="1.6002"/>
        </g>
        <g id="Line_274">
          <line x1="214.31623" y1="1097.04" x2="225.89257" y2="1104.7692" stroke="#fefefe" stroke-linecap="butt" stroke-linejoin="round" stroke-width=".7999"/>
        </g>
        <g id="Graphic_273">
          <path d="M 180.70132 1074.6533 C 185.81928 1066.9764 196.19447 1064.9048 203.87141 1070.0228 C 211.54835 1075.1407 213.6199 1085.5159 208.50195 1093.1929 C 203.384 1100.8698 193.0088 1102.9413 185.33186 1097.8234 C 177.65492 1092.7054 175.58336 1082.3302 180.70132 1074.6533 Z" fill="#c62631"/>
        </g>
        <g id="Graphic_272">
          <path d="M 180.70132 1074.6533 C 178.14234 1078.5005 179.18683 1083.6881 183.0166 1086.247 C 186.86377 1088.806 192.05136 1087.7615 194.61034 1083.9318 C 197.16932 1080.0846 202.35691 1079.0575 206.2041 1081.6165 C 210.05126 1084.1755 211.07834 1089.3631 208.51936 1093.2103 C 203.4014 1100.8872 193.0262 1102.9588 185.34927 1097.8408 C 177.65492 1092.7054 175.58336 1082.3302 180.70132 1074.6533 Z" fill="#303c70"/>
        </g>
        <g id="Graphic_271">
          <path d="M 177.21972 1105.5526 L 167.95865 1091.6435 Z M 173.75552 1107.8678 L 164.47704 1093.9588 Z M 170.27391 1110.1831 L 160.99543 1096.2741 Z" fill="#252422"/>
        </g>
        <g id="Graphic_270">
          <path d="M 177.21972 1105.5526 L 167.95865 1091.6435 M 173.75552 1107.8678 L 164.47704 1093.9588 M 170.27391 1110.1831 L 160.99543 1096.2741" fill="white"/>
          <path d="M 177.21972 1105.5526 L 167.95865 1091.6435 M 173.75552 1107.8678 L 164.47704 1093.9588 M 170.27391 1110.1831 L 160.99543 1096.2741" stroke="#252422" stroke-linecap="butt" stroke-linejoin="round" stroke-width="1.6002"/>
        </g>
        <g id="Graphic_269">
          <path d="M 228.20784 1071.5547 L 218.92936 1057.6457 Z M 224.74364 1073.87 L 215.46516 1059.9609 Z M 221.26204 1076.1852 L 211.98356 1062.2762 Z" fill="#252422"/>
        </g>
        <g id="Graphic_268">
          <path d="M 228.20784 1071.5547 L 218.92936 1057.6457 M 224.74364 1073.87 L 215.46516 1059.9609 M 221.26204 1076.1852 L 211.98356 1062.2762" fill="white"/>
          <path d="M 228.20784 1071.5547 L 218.92936 1057.6457 M 224.74364 1073.87 L 215.46516 1059.9609 M 221.26204 1076.1852 L 211.98356 1062.2762" stroke="#252422" stroke-linecap="butt" stroke-linejoin="round" stroke-width="1.6002"/>
        </g>
        <g id="Graphic_267">
          <path d="M 221.8365 1065.7578 L 225.3181 1063.4425 Z M 214.31623 1070.7887 L 218.3723 1068.0905 Z M 167.38418 1102.071 L 170.86579 1099.7557 Z" fill="#252422"/>
        </g>
        <g id="Graphic_266">
          <path d="M 221.8365 1065.7578 L 225.3181 1063.4425 M 214.31623 1070.7887 L 218.3723 1068.0905 M 167.38418 1102.071 L 170.86579 1099.7557" fill="white"/>
          <path d="M 221.8365 1065.7578 L 225.3181 1063.4425 M 214.31623 1070.7887 L 218.3723 1068.0905 M 167.38418 1102.071 L 170.86579 1099.7557" stroke="#fefefe" stroke-linecap="butt" stroke-linejoin="round" stroke-width=".7999"/>
        </g>
      </g>
    </g>
  </g>
</svg>
