<?xml version="1.0" encoding="UTF-8" standalone="no"?>
<!DOCTYPE svg PUBLIC "-//W3C//DTD SVG 1.1//EN" "http://www.w3.org/Graphics/SVG/1.1/DTD/svg11.dtd">
<svg xmlns="http://www.w3.org/2000/svg" version="1.1" xmlns:xl="http://www.w3.org/1999/xlink" xmlns:dc="http://purl.org/dc/elements/1.1/" viewBox="122.54339 199.00905 801.4566 488.49095" width="801.4566" height="488.49095">
  <defs>
    <marker orient="auto" overflow="visible" markerUnits="strokeWidth" id="FilledArrow_Marker" stroke-linejoin="miter" stroke-miterlimit="10" viewBox="-1 -3 6 6" markerWidth="6" markerHeight="6" color="black">
      <g>
        <path d="M 3.7333333 0 L 0 -1.4 L 0 1.4 Z" fill="currentColor" stroke="currentColor" stroke-width="1"/>
      </g>
    </marker>
    <marker orient="auto" overflow="visible" markerUnits="strokeWidth" id="FilledArrow_Marker_2" stroke-linejoin="miter" stroke-miterlimit="10" viewBox="-5 -3 6 6" markerWidth="6" markerHeight="6" color="black">
      <g>
        <path d="M -3.7333333 0 L 0 1.4 L 0 -1.4 Z" fill="currentColor" stroke="currentColor" stroke-width="1"/>
      </g>
    </marker>
  </defs>
  <metadata> Produced by OmniGraffle 7.20\n2022-09-22 13:00:32 +0000</metadata>
  <g id="Canvas_1" stroke-dasharray="none" stroke-opacity="1" fill="none" fill-opacity="1" stroke="none">
    <title>Canvas 1</title>
    <g id="Canvas_1_Layer_1">
      <title>Layer 1</title>
      <g id="Graphic_2">
        <rect x="302" y="341" width="423" height="346" fill="#dbe5ff"/>
        <rect x="302" y="341" width="423" height="346" stroke="black" stroke-linecap="round" stroke-linejoin="round" stroke-width="1"/>
      </g>
      <g id="Graphic_5">
        <path d="M 337.5 368.49095 L 687.5 368.49095 C 690.2614 368.49095 692.5 370.72953 692.5 373.49095 L 692.5 393.49095 C 692.5 396.25238 690.2614 398.49095 687.5 398.49095 L 337.5 398.49095 C 334.73858 398.49095 332.5 396.25238 332.5 393.49095 L 332.5 373.49095 C 332.5 370.72953 334.73858 368.49095 337.5 368.49095 Z" fill="#d5c0ec"/>
        <path d="M 337.5 368.49095 L 687.5 368.49095 C 690.2614 368.49095 692.5 370.72953 692.5 373.49095 L 692.5 393.49095 C 692.5 396.25238 690.2614 398.49095 687.5 398.49095 L 337.5 398.49095 C 334.73858 398.49095 332.5 396.25238 332.5 393.49095 L 332.5 373.49095 C 332.5 370.72953 334.73858 368.49095 337.5 368.49095 Z" stroke="black" stroke-linecap="round" stroke-linejoin="round" stroke-width="1"/>
        <text transform="translate(337.5 373.99095)" fill="black">
          <tspan font-family="Helvetica" font-weight="bold" font-size="16" fill="black" x="91.85156" y="15">Orchestration Service</tspan>
        </text>
      </g>
      <g id="Graphic_6">
        <path d="M 336 455 L 494.2711 455 C 497.03254 455 499.2711 457.2386 499.2711 460 L 499.2711 480 C 499.2711 482.7614 497.03254 485 494.2711 485 L 336 485 C 333.23858 485 331 482.7614 331 480 L 331 460 C 331 457.2386 333.23858 455 336 455 Z" fill="#b6cdff"/>
        <path d="M 336 455 L 494.2711 455 C 497.03254 455 499.2711 457.2386 499.2711 460 L 499.2711 480 C 499.2711 482.7614 497.03254 485 494.2711 485 L 336 485 C 333.23858 485 331 482.7614 331 480 L 331 460 C 331 457.2386 333.23858 455 336 455 Z" stroke="black" stroke-linecap="round" stroke-linejoin="round" stroke-width="1"/>
        <text transform="translate(336 460.5)" fill="black">
          <tspan font-family="Helvetica" font-weight="bold" font-size="16" fill="black" x="25.475403" y="15">Token Service</tspan>
        </text>
      </g>
      <g id="Graphic_7">
        <path d="M 531 455 L 689.2711 455 C 692.0325 455 694.2711 457.2386 694.2711 460 L 694.2711 480 C 694.2711 482.7614 692.0325 485 689.2711 485 L 531 485 C 528.2386 485 526 482.7614 526 480 L 526 460 C 526 457.2386 528.2386 455 531 455 Z" fill="#e5af6d"/>
        <path d="M 531 455 L 689.2711 455 C 692.0325 455 694.2711 457.2386 694.2711 460 L 694.2711 480 C 694.2711 482.7614 692.0325 485 689.2711 485 L 531 485 C 528.2386 485 526 482.7614 526 480 L 526 460 C 526 457.2386 528.2386 455 531 455 Z" stroke="black" stroke-linecap="round" stroke-linejoin="round" stroke-width="1"/>
        <text transform="translate(531 460.5)" fill="black">
          <tspan font-family="Helvetica" font-weight="bold" font-size="16" fill="black" x="6.662903" y="15">Encryption Service</tspan>
        </text>
      </g>
      <g id="Graphic_8">
        <path d="M 531 538 L 689.2711 538 C 692.0325 538 694.2711 540.2386 694.2711 543 L 694.2711 563 C 694.2711 565.7614 692.0325 568 689.2711 568 L 531 568 C 528.2386 568 526 565.7614 526 563 L 526 543 C 526 540.2386 528.2386 538 531 538 Z" fill="#ffffbf"/>
        <path d="M 531 538 L 689.2711 538 C 692.0325 538 694.2711 540.2386 694.2711 543 L 694.2711 563 C 694.2711 565.7614 692.0325 568 689.2711 568 L 531 568 C 528.2386 568 526 565.7614 526 563 L 526 543 C 526 540.2386 528.2386 538 531 538 Z" stroke="black" stroke-linecap="round" stroke-linejoin="round" stroke-width="1"/>
        <text transform="translate(531 543.5)" fill="black">
          <tspan font-family="Helvetica" font-weight="bold" font-size="16" fill="black" x="18.658997" y="15">Storage Service</tspan>
        </text>
      </g>
      <g id="Graphic_9">
        <path d="M 570.13556 661.5 L 570.13556 625.5 C 570.13556 623.016 588.05556 621 610.13556 621 C 632.21556 621 650.13556 623.016 650.13556 625.5 L 650.13556 661.5 C 650.13556 663.984 632.21556 666 610.13556 666 C 588.05556 666 570.13556 663.984 570.13556 661.5" fill="#ccc"/>
        <path d="M 570.13556 661.5 L 570.13556 625.5 C 570.13556 623.016 588.05556 621 610.13556 621 C 632.21556 621 650.13556 623.016 650.13556 625.5 L 650.13556 661.5 C 650.13556 663.984 632.21556 666 610.13556 666 C 588.05556 666 570.13556 663.984 570.13556 661.5 M 570.13556 625.5 C 570.13556 627.984 588.05556 630 610.13556 630 C 632.21556 630 650.13556 627.984 650.13556 625.5" stroke="black" stroke-linecap="round" stroke-linejoin="round" stroke-width="1"/>
        <text transform="translate(575.13556 636.25)" fill="black">
          <tspan font-family="Helvetica" font-weight="bold" font-size="16" fill="black" x="23.445312" y="15">DB</tspan>
        </text>
      </g>
      <g id="Line_11">
        <line x1="612.34826" y1="499.8974" x2="611.92286" y2="523.4359" marker-end="url(#FilledArrow_Marker)" marker-start="url(#FilledArrow_Marker_2)" stroke="black" stroke-linecap="round" stroke-linejoin="round" stroke-width="3"/>
      </g>
      <g id="Line_12">
        <line x1="612.34826" y1="581.5641" x2="611.92286" y2="605.1026" marker-end="url(#FilledArrow_Marker)" marker-start="url(#FilledArrow_Marker_2)" stroke="black" stroke-linecap="round" stroke-linejoin="round" stroke-width="3"/>
      </g>
      <g id="Line_13">
        <line x1="612.34826" y1="414.38836" x2="611.92286" y2="437.9269" marker-end="url(#FilledArrow_Marker)" marker-start="url(#FilledArrow_Marker_2)" stroke="black" stroke-linecap="round" stroke-linejoin="round" stroke-width="3"/>
      </g>
      <g id="Line_14">
        <line x1="415.34826" y1="414.38836" x2="414.92286" y2="437.9269" marker-end="url(#FilledArrow_Marker)" marker-start="url(#FilledArrow_Marker_2)" stroke="black" stroke-linecap="round" stroke-linejoin="round" stroke-width="3"/>
      </g>
      <g id="Line_15">
        <line x1="389.91403" y1="322.2512" x2="389.75264" y2="352.10023" marker-end="url(#FilledArrow_Marker)" marker-start="url(#FilledArrow_Marker_2)" stroke="black" stroke-linecap="round" stroke-linejoin="round" stroke-width="3"/>
      </g>
      <g id="Line_16">
        <line x1="627.2474" y1="322.2512" x2="627.086" y2="352.10023" marker-end="url(#FilledArrow_Marker)" marker-start="url(#FilledArrow_Marker_2)" stroke="black" stroke-linecap="round" stroke-linejoin="round" stroke-width="3"/>
      </g>
      <g id="Graphic_29">
        <text transform="translate(223.43249 354)" fill="black">
          <tspan font-family="Helvetica Neue" font-size="17" fill="black" x="189182e-18" y="16">*</tspan>
        </text>
      </g>
      <g id="Graphic_30">
        <text transform="translate(223.43249 439)" fill="black">
          <tspan font-family="Helvetica Neue" font-size="17" fill="black" x="189182e-18" y="16">*</tspan>
        </text>
      </g>
      <g id="Graphic_31">
        <text transform="translate(907.4382 439)" fill="black">
          <tspan font-family="Helvetica Neue" font-size="17" fill="black" x="189182e-18" y="16">*</tspan>
        </text>
      </g>
      <g id="Graphic_32">
        <text transform="translate(907.4382 528)" fill="black">
          <tspan font-family="Helvetica Neue" font-size="17" fill="black" x="189182e-18" y="16">*</tspan>
        </text>
      </g>
      <g id="Graphic_33">
        <text transform="translate(730 641.048)" fill="black">
          <tspan font-family="Helvetica Neue" font-size="17" fill="black" x="6.95" y="16">* example independent </tspan>
          <tspan font-family="Helvetica Neue" font-size="17" fill="black" x="3.0485" y="36.476">geopolitical jurisdictions</tspan>
        </text>
      </g>
      <g id="Graphic_34">
        <text transform="translate(463.6135 344.524)" fill="black">
          <tspan font-family="Helvetica Neue" font-size="17" fill="black" x="5186962e-19" y="16">Hellō Service</tspan>
        </text>
      </g>
      <g id="Graphic_38">
        <title>Node</title>
        <path d="M 564.2711 305.86048 L 564.2711 210.1442 L 577.2711 199.50905 L 694.2711 199.50905 L 694.2711 295.22533 L 681.2711 305.86048 Z" fill="#ffc0c0"/>
        <path d="M 564.2711 305.86048 L 564.2711 210.1442 L 577.2711 199.50905 L 694.2711 199.50905 L 694.2711 295.22533 L 681.2711 305.86048 L 564.2711 305.86048 M 564.2711 210.1442 L 681.2711 210.1442 L 694.2711 199.50905 M 681.2711 210.1442 L 681.2711 305.86048" stroke="black" stroke-linecap="round" stroke-linejoin="round" stroke-width="1"/>
        <text transform="translate(570.2711 225.00233)" fill="black">
          <tspan font-family="Avenir" font-weight="bold" font-size="16" fill="black" x="23.316" y="16">OpenID</tspan>
          <tspan font-family="Avenir" font-weight="bold" font-size="16" fill="black" x="20.788" y="38">Provider</tspan>
          <tspan font-family="Avenir" font-weight="bold" font-size="16" fill="black" x="8.356" y="60">op.example</tspan>
        </text>
      </g>
      <g id="Graphic_41">
        <title>Node</title>
        <path d="M 328 305.86048 L 328 210.1442 L 341 199.50905 L 458 199.50905 L 458 295.22533 L 445 305.86048 Z" fill="#c0ffbf"/>
        <path d="M 328 305.86048 L 328 210.1442 L 341 199.50905 L 458 199.50905 L 458 295.22533 L 445 305.86048 L 328 305.86048 M 328 210.1442 L 445 210.1442 L 458 199.50905 M 445 210.1442 L 445 305.86048" stroke="black" stroke-linecap="round" stroke-linejoin="round" stroke-width="1"/>
        <text transform="translate(334 236.00233)" fill="black">
          <tspan font-family="Avenir" font-weight="bold" font-size="16" fill="black" x="9.652" y="16">Application</tspan>
          <tspan font-family="Avenir" font-weight="bold" font-size="16" fill="black" x="3.9" y="38">example.app</tspan>
        </text>
      </g>
      <g id="Group_205">
        <g id="Graphic_206">
          <path d="M 245.77444 377.51113 C 245.2797 377.7801 244.6621 377.59746 244.39648 377.10605 C 244.12753 376.6113 244.31015 375.9937 244.8049 375.7281 C 247.14243 374.4597 248.2315 372.81944 248.45066 371.2157 C 248.56687 370.35905 248.43406 369.49907 248.11198 368.7022 C 247.78326 367.89533 247.26197 367.16153 246.6012 366.5705 C 245.31623 365.42165 243.51326 364.81734 241.6306 365.2855 C 240.86693 365.47478 240.20617 365.8566 239.62843 366.3945 C 239.01416 366.96563 238.4829 367.7127 238.01805 368.59593 C 237.75574 369.094 237.14147 369.28325 236.64673 369.02426 C 236.14868 368.76195 235.95942 368.1477 236.2184 367.65294 C 236.7895 366.5705 237.4569 365.6408 238.24715 364.90367 C 239.07393 364.13667 240.0335 363.5855 241.14916 363.3099 C 243.73905 362.66906 246.2061 363.48587 247.95924 365.0531 C 248.8491 365.85 249.55634 366.84277 250.00127 367.9385 C 250.44952 369.0442 250.63214 370.25944 250.4628 371.4913 C 250.16065 373.6894 248.7528 375.8941 245.77444 377.51113 Z M 237.98484 385.53647 C 234.1332 380.36333 234.04024 375.46246 238.71533 370.9069 L 235.34847 369.0475 C 232.65232 367.99826 227.70497 375.7314 229.6175 377.7967 L 232.2406 381.68816 L 231.69938 382.8171 C 231.54996 383.15244 231.69606 383.3882 232.0613 383.5509 L 232.41658 383.6472 L 225.5932 397.15114 L 226.97449 400.0963 L 229.73704 399.2828 L 230.4476 397.90154 L 229.76692 396.6265 L 231.26773 396.30444 L 231.61637 395.6271 L 230.83276 394.43175 L 231.34742 393.4323 L 232.8449 393.24306 L 233.333 392.29675 L 232.49627 391.20435 L 233.03085 390.1684 L 234.55822 389.91936 L 236.63677 385.9515 L 236.98873 386.1441 C 237.59968 386.516 237.91512 386.2769 237.98484 385.53647 Z M 245.23322 388.78048 L 244.21718 392.57234 L 242.80602 393.13017 L 242.5105 394.23585 L 243.53983 395.1091 L 243.27088 396.1152 L 241.87632 396.6066 L 241.59077 397.6691 L 242.5902 398.64863 L 242.39762 399.36915 L 241.0263 399.99006 L 241.94273 401.0692 L 241.5476 402.5401 L 239.07393 403.8915 L 237.14147 401.35805 L 240.82708 387.60174 L 239.9339 387.3627 C 239.75128 387.31287 239.6384 387.1236 239.6882 386.93767 L 240.0634 385.5398 C 237.3606 383.4911 236.0225 379.94496 236.9522 376.46853 C 238.14754 372.00263 242.6566 369.3065 247.12583 370.30924 C 247.14575 370.5483 247.14243 370.7907 247.10923 371.0331 C 247.02622 371.6374 246.7639 372.2583 246.27914 372.8593 C 246.21273 372.93898 246.143 373.022 246.06995 373.10168 C 244.6422 373.0087 243.30408 373.93177 242.91892 375.36617 C 242.7529 375.98376 242.78942 376.608 242.98533 377.16913 C 243.0318 377.36835 243.10818 377.56094 243.2078 377.7502 C 243.44354 378.18185 243.78886 378.51056 244.19394 378.71975 C 244.45957 378.89573 244.7584 379.02854 245.08048 379.1182 C 246.68422 379.5465 248.3278 378.62346 248.80594 377.0463 C 249.2907 376.61795 249.7124 376.1664 250.07432 375.70153 C 250.77824 374.79507 251.2597 373.83216 251.54525 372.85265 C 253.48434 374.9445 254.33768 377.95606 253.5441 380.91783 C 252.6144 384.39426 249.67588 386.7982 246.31566 387.2199 L 245.94046 388.6178 C 245.89065 388.8004 245.7014 388.9133 245.51545 388.8635 Z" fill="black"/>
        </g>
      </g>
      <g id="Group_207">
        <g id="Graphic_208">
          <path d="M 247.32466 462.0202 C 246.82993 462.28913 246.21234 462.1065 245.9467 461.6151 C 245.67776 461.12036 245.86038 460.50277 246.3551 460.23714 C 248.69266 458.96876 249.78174 457.3285 250.00088 455.72475 C 250.1171 454.8681 249.98428 454.0081 249.6622 453.21123 C 249.3335 452.4044 248.8122 451.6706 248.15144 451.07955 C 246.86645 449.9307 245.0635 449.3264 243.18084 449.79456 C 242.41715 449.9838 241.7564 450.36567 241.17865 450.90357 C 240.56438 451.4747 240.03312 452.22176 239.56827 453.105 C 239.30596 453.60303 238.6917 453.7923 238.19696 453.5333 C 237.6989 453.271 237.50964 452.6567 237.76863 452.162 C 238.33973 451.07955 239.00713 450.14984 239.79738 449.4127 C 240.62415 448.6457 241.58374 448.09453 242.69938 447.81894 C 245.28927 447.1781 247.7563 447.9949 249.50947 449.56214 C 250.39933 450.35903 251.10657 451.3518 251.5515 452.44754 C 251.99975 453.55323 252.18237 454.7685 252.01303 456.00034 C 251.71088 458.19843 250.30304 460.40316 247.32466 462.0202 Z M 239.53507 470.0455 C 235.68343 464.8724 235.59046 459.9715 240.26555 455.41596 L 236.8987 453.55655 C 234.20255 452.5073 229.2552 460.24046 231.16773 462.30573 L 233.79082 466.1972 L 233.2496 467.32613 C 233.10018 467.6615 233.24628 467.89724 233.61152 468.05994 L 233.9668 468.15623 L 227.14343 481.6602 L 228.5247 484.60536 L 231.28726 483.79186 L 231.99782 482.4106 L 231.31714 481.13557 L 232.81795 480.8135 L 233.1666 480.13613 L 232.38298 478.9408 L 232.89764 477.94137 L 234.39513 477.7521 L 234.88322 476.8058 L 234.0465 475.7134 L 234.58107 474.67744 L 236.10844 474.4284 L 238.187 470.46057 L 238.53896 470.65315 C 239.1499 471.02503 239.46534 470.78596 239.53507 470.0455 Z M 246.78344 473.2895 L 245.7674 477.0814 L 244.35625 477.6392 L 244.06074 478.7449 L 245.09005 479.61816 L 244.8211 480.62423 L 243.42654 481.11564 L 243.141 482.17816 L 244.14042 483.1577 L 243.94784 483.8782 L 242.57653 484.4991 L 243.49295 485.5782 L 243.09783 487.04915 L 240.62415 488.40054 L 238.6917 485.8671 L 242.3773 472.1108 L 241.48413 471.8717 C 241.3015 471.8219 241.1886 471.63266 241.23842 471.4467 L 241.61362 470.04884 C 238.91084 468.00017 237.57273 464.454 238.50243 460.9776 C 239.69777 456.5117 244.20683 453.81554 248.67605 454.8183 C 248.69598 455.05736 248.69266 455.29974 248.65945 455.54213 C 248.57644 456.14644 248.31413 456.76735 247.82936 457.36834 C 247.76295 457.448 247.69322 457.53103 247.62018 457.6107 C 246.19242 457.51775 244.8543 458.4408 244.46914 459.8752 C 244.30312 460.4928 244.33965 461.11704 244.53555 461.6782 C 244.58203 461.8774 244.6584 462.07 244.758 462.25925 C 244.99376 462.6909 245.33908 463.0196 245.74416 463.2288 C 246.0098 463.4048 246.30863 463.5376 246.6307 463.62724 C 248.23444 464.05557 249.87803 463.1325 250.35616 461.5553 C 250.84094 461.127 251.26262 460.67543 251.62455 460.2106 C 252.32846 459.3041 252.80992 458.3412 253.09547 457.3617 C 255.03457 459.45353 255.8879 462.4651 255.09434 465.4269 C 254.16463 468.9033 251.2261 471.30726 247.86588 471.72895 L 247.49068 473.1268 C 247.44088 473.30945 247.2516 473.42234 247.06567 473.37253 Z" fill="black"/>
        </g>
      </g>
      <g id="Group_209">
        <g id="Graphic_210">
          <path d="M 783.8954 462.0202 C 784.3999 462.28913 785.0297 462.1065 785.3005 461.6151 C 785.5748 461.12036 785.3886 460.50277 784.8841 460.23714 C 782.5005 458.96876 781.3899 457.3285 781.1664 455.72475 C 781.0479 454.8681 781.1834 454.0081 781.5118 453.21123 C 781.847 452.4044 782.3786 451.6706 783.05235 451.07955 C 784.3627 449.9307 786.2012 449.3264 788.1209 449.79456 C 788.8997 449.9838 789.5734 450.36567 790.1626 450.90357 C 790.789 451.4747 791.3307 452.22176 791.8047 453.105 C 792.0722 453.60303 792.6986 453.7923 793.20305 453.5333 C 793.7109 453.271 793.9039 452.6567 793.6398 452.162 C 793.0575 451.07955 792.3769 450.14984 791.5711 449.4127 C 790.728 448.6457 789.7495 448.09453 788.6119 447.81894 C 785.9709 447.1781 783.4553 447.9949 781.66755 449.56214 C 780.76015 450.35903 780.039 451.3518 779.5853 452.44754 C 779.1282 453.55323 778.942 454.7685 779.1146 456.00034 C 779.42275 458.19843 780.8583 460.40316 783.8954 462.0202 Z M 791.8386 470.0455 C 795.7661 464.8724 795.8609 459.9715 791.0937 455.41596 L 794.5269 453.55655 C 797.2762 452.5073 802.3211 460.24046 800.3708 462.30573 L 797.696 466.1972 L 798.2479 467.32613 C 798.4003 467.6615 798.2513 467.89724 797.8789 468.05994 L 797.5166 468.15623 L 804.4745 481.6602 L 803.066 484.60536 L 800.24895 483.79186 L 799.5244 482.4106 L 800.2185 481.13557 L 798.6881 480.8135 L 798.3326 480.13613 L 799.1316 478.9408 L 798.6068 477.94137 L 797.0798 477.7521 L 796.5821 476.8058 L 797.4353 475.7134 L 796.8902 474.67744 L 795.3327 474.4284 L 793.2132 470.46057 L 792.8543 470.65315 C 792.2313 471.02503 791.9097 470.78596 791.8386 470.0455 Z M 784.4473 473.2895 L 785.4834 477.0814 L 786.9223 477.6392 L 787.2237 478.7449 L 786.1741 479.61816 L 786.4483 480.62423 L 787.8704 481.11564 L 788.1616 482.17816 L 787.1424 483.1577 L 787.3388 483.8782 L 788.73715 484.4991 L 787.8027 485.5782 L 788.2056 487.04915 L 790.728 488.40054 L 792.6986 485.8671 L 788.9403 472.1108 L 789.8511 471.8717 C 790.0373 471.8219 790.1524 471.63266 790.1016 471.4467 L 789.719 470.04884 C 792.4751 468.00017 793.8396 464.454 792.8916 460.9776 C 791.6727 456.5117 787.0747 453.81554 782.5174 454.8183 C 782.4971 455.05736 782.5005 455.29974 782.5343 455.54213 C 782.619 456.14644 782.8864 456.76735 783.3808 457.36834 C 783.4485 457.448 783.5196 457.53103 783.5941 457.6107 C 785.05 457.51775 786.4145 458.4408 786.8072 459.8752 C 786.9765 460.4928 786.9393 461.11704 786.7395 461.6782 C 786.6921 461.8774 786.6142 462.07 786.5127 462.25925 C 786.2723 462.6909 785.9201 463.0196 785.5071 463.2288 C 785.2362 463.4048 784.9315 463.5376 784.6031 463.62724 C 782.9677 464.05557 781.2917 463.1325 780.8042 461.5553 C 780.3098 461.127 779.8798 460.67543 779.5108 460.2106 C 778.793 459.3041 778.302 458.3412 778.0109 457.3617 C 776.0335 459.45353 775.1634 462.4651 775.9726 465.4269 C 776.9206 468.9033 779.9171 471.30726 783.3435 471.72895 L 783.7261 473.1268 C 783.7769 473.30945 783.9699 473.42234 784.1595 473.37253 Z" fill="black"/>
        </g>
      </g>
      <g id="Group_211">
        <g id="Graphic_212">
          <path d="M 785.3954 543.61964 C 785.8999 543.8886 786.5297 543.70597 786.8005 543.21455 C 787.0748 542.7198 786.8886 542.1022 786.3841 541.8366 C 784.0005 540.5682 782.8899 538.92795 782.6664 537.3242 C 782.5479 536.46755 782.6834 535.6076 783.0118 534.8107 C 783.347 534.00384 783.8786 533.27003 784.55235 532.679 C 785.8627 531.53016 787.7012 530.92585 789.6209 531.394 C 790.3997 531.5833 791.0734 531.9651 791.6626 532.503 C 792.289 533.0741 792.8307 533.8212 793.3047 534.70443 C 793.5722 535.2025 794.1986 535.39175 794.70305 535.13276 C 795.2109 534.87045 795.4039 534.2562 795.1398 533.76145 C 794.5575 532.679 793.8769 531.7493 793.0711 531.0122 C 792.228 530.2452 791.2495 529.694 790.1119 529.4184 C 787.4709 528.77757 784.9553 529.5944 783.16755 531.1616 C 782.26015 531.9585 781.539 532.9513 781.0853 534.047 C 780.6282 535.1527 780.442 536.36794 780.6146 537.5998 C 780.9227 539.7979 782.3583 542.0026 785.3954 543.61964 Z M 793.3386 551.645 C 797.2661 546.47184 797.3609 541.57097 792.5937 537.0154 L 796.0269 535.156 C 798.7762 534.10677 803.8211 541.8399 801.8708 543.9052 L 799.196 547.79667 L 799.7479 548.9256 C 799.9003 549.26095 799.7513 549.4967 799.3789 549.6594 L 799.0166 549.7557 L 805.9745 563.25964 L 804.566 566.2048 L 801.74895 565.3913 L 801.0244 564.01005 L 801.7185 562.735 L 800.1881 562.41295 L 799.8326 561.7356 L 800.6316 560.54026 L 800.1068 559.5408 L 798.5798 559.35156 L 798.0821 558.40526 L 798.9353 557.31285 L 798.3902 556.2769 L 796.8327 556.0279 L 794.7132 552.06 L 794.3543 552.2526 C 793.7313 552.6245 793.4097 552.3854 793.3386 551.645 Z M 785.9473 554.889 L 786.9834 558.68085 L 788.4223 559.2387 L 788.7237 560.34436 L 787.6741 561.2176 L 787.9483 562.2237 L 789.3704 562.7151 L 789.6616 563.7776 L 788.6424 564.7571 L 788.8388 565.47765 L 790.23715 566.09856 L 789.3027 567.1777 L 789.7056 568.6486 L 792.228 570 L 794.1986 567.46656 L 790.4403 553.71025 L 791.3511 553.4712 C 791.5373 553.4214 791.6524 553.2321 791.6016 553.0462 L 791.219 551.6483 C 793.9751 549.5996 795.3396 546.0535 794.3916 542.57704 C 793.1727 538.11114 788.5747 535.415 784.0174 536.41775 C 783.9971 536.6568 784.0005 536.8992 784.0343 537.1416 C 784.119 537.7459 784.3864 538.3668 784.8808 538.9678 C 784.9485 539.0475 785.0196 539.1305 785.0941 539.2102 C 786.55 539.1172 787.9145 540.0403 788.3072 541.4747 C 788.4765 542.09226 788.4393 542.7165 788.2395 543.27764 C 788.1921 543.47686 788.1142 543.66944 788.0127 543.8587 C 787.7723 544.29035 787.4201 544.6191 787.0071 544.82825 C 786.7362 545.0042 786.4315 545.13705 786.1031 545.2267 C 784.4677 545.655 782.7917 544.73196 782.3042 543.1548 C 781.8098 542.72646 781.3798 542.2749 781.0108 541.81003 C 780.293 540.9036 779.802 539.94066 779.5109 538.96115 C 777.5335 541.053 776.6634 544.06457 777.4726 547.02634 C 778.4206 550.5028 781.4171 552.9067 784.8435 553.3284 L 785.2261 554.7263 C 785.2769 554.9089 785.4699 555.0218 785.6595 554.972 Z" fill="black"/>
        </g>
      </g>
      <g id="Group_213">
        <g id="Graphic_214">
          <path d="M 262.5 380.51885 L 311.44278 380.51885 L 311.44278 370.15123 L 328.5 383.49095 L 311.44278 396.83067 L 311.44278 386.46306 L 262.5 386.46306 Z" fill="black"/>
        </g>
      </g>
      <g id="Group_215">
        <g id="Graphic_216">
          <path d="M 262.5 467.0279 L 311.44278 467.0279 L 311.44278 456.6603 L 328.5 470 L 311.44278 483.3397 L 311.44278 472.9721 L 262.5 472.9721 Z" fill="black"/>
        </g>
      </g>
      <g id="Group_217">
        <g id="Graphic_218">
          <path d="M 767.4857 467.0279 L 719.2632 467.0279 L 719.2632 456.6603 L 702.45704 470 L 719.2632 483.3397 L 719.2632 472.9721 L 767.4857 472.9721 Z" fill="black"/>
        </g>
      </g>
      <g id="Group_219">
        <g id="Graphic_220">
          <path d="M 768.2357 548.3676 L 720.0132 548.3676 L 720.0132 538 L 703.20704 551.3397 L 720.0132 564.67943 L 720.0132 554.3118 L 768.2357 554.3118 Z" fill="black"/>
        </g>
      </g>
      <g id="Group_240">
        <g id="Graphic_238">
          <rect x="122.79339" y="434" width="95.6391" height="71.72932" fill="#005293"/>
        </g>
        <g id="Graphic_239">
          <path d="M 149.09414 434 L 149.09414 462.69173 L 122.79339 462.69173 L 122.79339 477.0376 L 149.09414 477.0376 L 149.09414 505.7293 L 163.44 505.7293 L 163.44 477.0376 L 218.43249 477.0376 L 218.43249 462.69173 L 163.44 462.69173 L 163.44 434 Z" fill="#fecb00"/>
        </g>
      </g>
      <g id="Group_241">
        <g id="Graphic_243">
          <rect x="809" y="436.1203" width="95.6391" height="63.7594" fill="white"/>
          <rect x="809" y="436.1203" width="95.6391" height="63.7594" stroke="black" stroke-linecap="butt" stroke-linejoin="round" stroke-width=".5"/>
        </g>
        <g id="Graphic_242">
          <circle cx="856.8267" cy="468.00296" r="19.8190855333129" fill="#bc002d"/>
          <circle cx="856.8267" cy="468.00296" r="19.8190855333129" stroke="black" stroke-linecap="butt" stroke-linejoin="round" stroke-width=".5"/>
        </g>
      </g>
      <g id="Group_244">
        <g id="Graphic_248">
          <rect x="809" y="525" width="95.6391" height="71.72932" fill="red"/>
        </g>
        <g id="Group_245">
          <g id="Graphic_247">
            <rect x="834.4041" y="554.14004" width="44.830827" height="13.449248" fill="white"/>
          </g>
          <g id="Graphic_246">
            <rect x="850.0949" y="538.44925" width="13.449248" height="44.830827" fill="white"/>
          </g>
        </g>
      </g>
      <g id="Group_249">
        <g id="Graphic_264">
          <rect x="122.79339" y="349" width="95.6391" height="67.7062" fill="white"/>
          <rect x="122.79339" y="349" width="95.6391" height="67.7062" stroke="black" stroke-linecap="round" stroke-linejoin="round" stroke-width=".5"/>
        </g>
        <g id="Graphic_262">
          <path d="M 143.75203 374.69425 L 153.0131 360.78524 Z M 140.27043 372.379 L 149.5489 358.46997 Z M 136.80623 370.0637 L 146.08471 356.1547 Z" fill="#252422"/>
        </g>
        <g id="Graphic_261">
          <path d="M 143.75203 374.69425 L 153.0131 360.78524 M 140.27043 372.379 L 149.5489 358.46997 M 136.80623 370.0637 L 146.08471 356.1547" fill="white"/>
          <path d="M 143.75203 374.69425 L 153.0131 360.78524 M 140.27043 372.379 L 149.5489 358.46997 M 136.80623 370.0637 L 146.08471 356.1547" stroke="#252422" stroke-linecap="butt" stroke-linejoin="round" stroke-width="1.6002"/>
        </g>
        <g id="Graphic_260">
          <path d="M 194.74016 408.69214 L 204.01864 394.7831 Z M 191.25855 406.37687 L 200.53703 392.46785 Z M 187.77694 404.0616 L 197.05542 390.1526 Z" fill="#252422"/>
        </g>
        <g id="Graphic_259">
          <path d="M 194.74016 408.69214 L 204.01864 394.7831 M 191.25855 406.37687 L 200.53703 392.46785 M 187.77694 404.0616 L 197.05542 390.1526" fill="white"/>
          <path d="M 194.74016 408.69214 L 204.01864 394.7831 M 191.25855 406.37687 L 200.53703 392.46785 M 187.77694 404.0616 L 197.05542 390.1526" stroke="#252422" stroke-linecap="butt" stroke-linejoin="round" stroke-width="1.6002"/>
        </g>
        <g id="Line_258">
          <line x1="190.10962" y1="395.54907" x2="201.68596" y2="403.27824" stroke="#fefefe" stroke-linecap="butt" stroke-linejoin="round" stroke-width=".7999"/>
        </g>
        <g id="Graphic_257">
          <path d="M 156.49471 373.16235 C 161.61267 365.4854 171.98786 363.41385 179.6648 368.5318 C 187.34174 373.64977 189.4133 384.02496 184.29534 391.7019 C 179.17738 399.37884 168.80219 401.4504 161.12525 396.33244 C 153.4483 391.21447 151.37675 380.8393 156.49471 373.16235 Z" fill="#c62631"/>
        </g>
        <g id="Graphic_256">
          <path d="M 156.49471 373.16235 C 153.93573 377.0095 154.98021 382.1971 158.80998 384.7561 C 162.65715 387.31508 167.84475 386.2706 170.40373 382.44083 C 172.9627 378.59365 178.1503 377.5666 181.99748 380.12556 C 185.84465 382.68454 186.87173 387.87213 184.31275 391.7193 C 179.19478 399.39625 168.8196 401.4678 161.14266 396.34984 C 153.4483 391.21447 151.37675 380.8393 156.49471 373.16235 Z" fill="#303c70"/>
        </g>
        <g id="Graphic_255">
          <path d="M 153.0131 404.0616 L 143.75203 390.1526 Z M 149.5489 406.37687 L 140.27043 392.46785 Z M 146.0673 408.69214 L 136.78882 394.7831 Z" fill="#252422"/>
        </g>
        <g id="Graphic_254">
          <path d="M 153.0131 404.0616 L 143.75203 390.1526 M 149.5489 406.37687 L 140.27043 392.46785 M 146.0673 408.69214 L 136.78882 394.7831" fill="white"/>
          <path d="M 153.0131 404.0616 L 143.75203 390.1526 M 149.5489 406.37687 L 140.27043 392.46785 M 146.0673 408.69214 L 136.78882 394.7831" stroke="#252422" stroke-linecap="butt" stroke-linejoin="round" stroke-width="1.6002"/>
        </g>
        <g id="Graphic_253">
          <path d="M 204.00123 370.0637 L 194.72275 356.1547 Z M 200.53703 372.379 L 191.25855 358.46997 Z M 197.05542 374.69425 L 187.77694 360.78524 Z" fill="#252422"/>
        </g>
        <g id="Graphic_252">
          <path d="M 204.00123 370.0637 L 194.72275 356.1547 M 200.53703 372.379 L 191.25855 358.46997 M 197.05542 374.69425 L 187.77694 360.78524" fill="white"/>
          <path d="M 204.00123 370.0637 L 194.72275 356.1547 M 200.53703 372.379 L 191.25855 358.46997 M 197.05542 374.69425 L 187.77694 360.78524" stroke="#252422" stroke-linecap="butt" stroke-linejoin="round" stroke-width="1.6002"/>
        </g>
        <g id="Graphic_251">
          <path d="M 197.6299 364.26684 L 201.1115 361.95157 Z M 190.10962 369.29776 L 194.1657 366.5995 Z M 143.17757 400.58 L 146.65917 398.26473 Z" fill="#252422"/>
        </g>
        <g id="Graphic_250">
          <path d="M 197.6299 364.26684 L 201.1115 361.95157 M 190.10962 369.29776 L 194.1657 366.5995 M 143.17757 400.58 L 146.65917 398.26473" fill="white"/>
          <path d="M 197.6299 364.26684 L 201.1115 361.95157 M 190.10962 369.29776 L 194.1657 366.5995 M 143.17757 400.58 L 146.65917 398.26473" stroke="#fefefe" stroke-linecap="butt" stroke-linejoin="round" stroke-width=".7999"/>
        </g>
      </g>
    </g>
  </g>
</svg>
