<?xml version="1.0" encoding="UTF-8" standalone="no"?>
<!DOCTYPE svg PUBLIC "-//W3C//DTD SVG 1.1//EN" "http://www.w3.org/Graphics/SVG/1.1/DTD/svg11.dtd">
<svg xmlns="http://www.w3.org/2000/svg" version="1.1" xmlns:dc="http://purl.org/dc/elements/1.1/" xmlns:xl="http://www.w3.org/1999/xlink" viewBox="5160.5 13042.5 975 1321" width="975" height="1321">
  <defs>
    <marker orient="auto" overflow="visible" markerUnits="strokeWidth" id="UMLInheritance_Marker" stroke-linejoin="miter" stroke-miterlimit="10" viewBox="-1 -4 7 8" markerWidth="7" markerHeight="8" color="black">
      <g>
        <path d="M 4.8 0 L 0 -2.8 L 0 2.8 Z" fill="none" stroke="currentColor" stroke-width="1"/>
      </g>
    </marker>
    <marker orient="auto" overflow="visible" markerUnits="strokeWidth" id="FilledArrow_Marker" stroke-linejoin="miter" stroke-miterlimit="10" viewBox="-1 -4 8 8" markerWidth="8" markerHeight="8" color="#0076bc">
      <g>
        <path d="M 5.7599985 0 L 0 -2.1599994 L 0 2.1599994 Z" fill="currentColor" stroke="currentColor" stroke-width="1"/>
      </g>
    </marker>
    <marker orient="auto" overflow="visible" markerUnits="strokeWidth" id="FilledArrow_Marker_2" stroke-linejoin="miter" stroke-miterlimit="10" viewBox="-7 -4 8 8" markerWidth="8" markerHeight="8" color="#0076bc">
      <g>
        <path d="M -5.759999 0 L 0 2.1599997 L 0 -2.1599997 Z" fill="currentColor" stroke="currentColor" stroke-width="1"/>
      </g>
    </marker>
  </defs>
  <metadata> Produced by OmniGraffle 7.20\n2022-09-22 16:07:31 +0000</metadata>
  <g id="Canvas_1" fill-opacity="1" stroke-opacity="1" stroke="none" stroke-dasharray="none" fill="none">
    <title>Canvas 1</title>
    <g id="Canvas_1_main">
      <title>main</title>
      <g id="Graphic_8255">
        <path d="M 5161 13107.002 C 5161 13107.002 5226.997 13131.815 5340.012 13116.278 C 5453.0266 13100.741 5457.613 13026.174 5559.162 13046.477 C 5660.71 13066.781 5708.8434 13131.815 5808.3434 13124.394 C 5907.8434 13116.974 5939.46 13044.21 5992.592 13046.477 C 6045.724 13048.745 6135 13083.813 6135 13083.813 L 6135 14302.975 C 6135 14302.975 6064.571 14239.27 5990.9684 14273.669 C 5917.366 14308.069 5965.433 14311.623 5849.7384 14341.846 C 5734.044 14372.07 5729.457 14317.06 5628.965 14278.539 C 5528.473 14240.018 5528.473 14309.33 5466.632 14349.963 C 5404.7904 14390.596 5370.005 14327.366 5278.325 14281.785 C 5186.6454 14236.205 5161 14302.975 5161 14302.975 Z" fill="#dae5ff"/>
        <path d="M 5161 13107.002 C 5161 13107.002 5226.997 13131.815 5340.012 13116.278 C 5453.0266 13100.741 5457.613 13026.174 5559.162 13046.477 C 5660.71 13066.781 5708.8434 13131.815 5808.3434 13124.394 C 5907.8434 13116.974 5939.46 13044.21 5992.592 13046.477 C 6045.724 13048.745 6135 13083.813 6135 13083.813 L 6135 14302.975 C 6135 14302.975 6064.571 14239.27 5990.9684 14273.669 C 5917.366 14308.069 5965.433 14311.623 5849.7384 14341.846 C 5734.044 14372.07 5729.457 14317.06 5628.965 14278.539 C 5528.473 14240.018 5528.473 14309.33 5466.632 14349.963 C 5404.7904 14390.596 5370.005 14327.366 5278.325 14281.785 C 5186.6454 14236.205 5161 14302.975 5161 14302.975 Z" stroke="black" stroke-linecap="round" stroke-linejoin="round" stroke-width="1"/>
      </g>
      <g id="Line_8253">
        <line x1="6067.2956" y1="13928.518" x2="5859.173" y2="13928.518" marker-end="url(#UMLInheritance_Marker)" stroke="black" stroke-linecap="round" stroke-linejoin="round" stroke-width="4"/>
      </g>
      <g id="Line_8151">
        <line x1="5524.286" y1="13482.722" x2="5228.2306" y2="13482.722" marker-end="url(#UMLInheritance_Marker)" stroke="black" stroke-linecap="round" stroke-linejoin="round" stroke-width="4"/>
      </g>
      <g id="Line_8150">
        <line x1="5196.256" y1="13675.166" x2="5480.014" y2="13675.166" marker-end="url(#UMLInheritance_Marker)" stroke="black" stroke-linecap="round" stroke-linejoin="round" stroke-width="4"/>
      </g>
      <g id="Group_8147">
        <g id="Graphic_8149">
          <title>Class Name</title>
          <rect x="5903.7984" y="13915.869" width="145" height="26" fill="#f1d6b5"/>
          <rect x="5903.7984" y="13915.869" width="145" height="26" stroke="black" stroke-linecap="round" stroke-linejoin="round" stroke-width="1"/>
          <text transform="translate(5909.7984 13919.869)" fill="black">
            <tspan font-family="Avenir" font-weight="bold" font-size="13" fill="black" x="11.9585" y="13">Encrypted Record</tspan>
          </text>
        </g>
        <g id="Graphic_8148">
          <title>Attributes</title>
          <rect x="5903.7984" y="13941.869" width="145" height="30" fill="#f1d6b5"/>
          <rect x="5903.7984" y="13941.869" width="145" height="30" stroke="black" stroke-linecap="round" stroke-linejoin="round" stroke-width="1"/>
          <text transform="translate(5909.7984 13947.869)" fill="black">
            <tspan font-family="Avenir" font-size="13" fill="black" x="0" y="13">N3BuamdyM3ZwdnJr</tspan>
          </text>
        </g>
      </g>
      <g id="Line_8146">
        <line x1="5517.6015" y1="13754" x2="5780.848" y2="13754" marker-end="url(#UMLInheritance_Marker)" stroke="black" stroke-linecap="round" stroke-linejoin="round" stroke-width="4"/>
      </g>
      <g id="Line_8145">
        <line x1="5827.437" y1="14006.7" x2="5556.7" y2="14006.7" marker-end="url(#UMLInheritance_Marker)" stroke="black" stroke-linecap="round" stroke-linejoin="round" stroke-width="4"/>
      </g>
      <g id="Line_8144">
        <line x1="5523.755" y1="14098" x2="5227.7" y2="14098" marker-end="url(#UMLInheritance_Marker)" stroke="black" stroke-linecap="round" stroke-linejoin="round" stroke-width="4"/>
      </g>
      <g id="Graphic_8143">
        <path d="M 5254.335 13849.647 L 5280.0306 13862.647 L 5254.335 13875.647 L 5228.64 13862.647 Z" fill="#ccc"/>
        <path d="M 5254.335 13849.647 L 5280.0306 13862.647 L 5254.335 13875.647 L 5228.64 13862.647 Z" stroke="black" stroke-linecap="round" stroke-linejoin="round" stroke-width="1"/>
        <text transform="translate(5240.5777 13855.219)" fill="black">
          <tspan font-family="Helvetica Neue" font-size="12" fill="black" x=".38148914" y="11">Hash</tspan>
        </text>
      </g>
      <g id="Graphic_7528">
        <path d="M 5533.714 13124 L 5533.714 13615.734 C 5533.714 13618.496 5531.476 13620.734 5528.714 13620.734 L 5508.714 13620.734 C 5505.953 13620.734 5503.714 13618.496 5503.714 13615.734 L 5503.714 13124 C 5503.714 13121.239 5505.953 13119 5508.714 13119 L 5528.714 13119 C 5531.476 13119 5533.714 13121.239 5533.714 13124 Z" fill="#b6cdff"/>
        <path d="M 5533.714 13124 L 5533.714 13615.734 C 5533.714 13618.496 5531.476 13620.734 5528.714 13620.734 L 5508.714 13620.734 C 5505.953 13620.734 5503.714 13618.496 5503.714 13615.734 L 5503.714 13124 C 5503.714 13121.239 5505.953 13119 5508.714 13119 L 5528.714 13119 C 5531.476 13119 5533.714 13121.239 5533.714 13124 Z" stroke="black" stroke-linecap="round" stroke-linejoin="round" stroke-width="1"/>
        <text transform="translate(5528.214 13124) rotate(90)" fill="black">
          <tspan font-family="Helvetica" font-weight="bold" font-size="16" fill="black" x="192.20708" y="15">Token Service</tspan>
        </text>
      </g>
      <g id="Group_7525">
        <g id="Graphic_7527">
          <rect x="5277.2336" y="13465.84" width="180" height="149" fill="#ccc"/>
          <rect x="5277.2336" y="13465.84" width="180" height="149" stroke="black" stroke-linecap="round" stroke-linejoin="round" stroke-width="1"/>
        </g>
        <g id="Graphic_7526">
          <path d="M 5277.2336 13465.84 L 5344.4056 13465.84 L 5344.4056 13480.84 L 5338.808 13495.84 L 5277.2336 13495.84 Z" fill="#ccc"/>
          <path d="M 5277.2336 13465.84 L 5344.4056 13465.84 L 5344.4056 13480.84 L 5338.808 13495.84 L 5277.2336 13495.84 Z" stroke="black" stroke-linecap="round" stroke-linejoin="round" stroke-width="1"/>
          <text transform="translate(5282.2336 13473.84)" fill="black">
            <tspan font-family="Helvetica" font-size="12" fill="black" x="0" y="11">response</tspan>
          </text>
        </g>
      </g>
      <g id="Group_7519">
        <g id="Graphic_7524">
          <title>Attributes</title>
          <rect x="5294.7336" y="13566.527" width="50" height="30" fill="#b6cdff"/>
          <rect x="5294.7336" y="13566.527" width="50" height="30" stroke="black" stroke-linecap="round" stroke-linejoin="round" stroke-width="1"/>
          <text transform="translate(5300.7336 13572.527)" fill="black">
            <tspan font-family="Avenir" font-size="13" fill="black" x="0" y="13">hash</tspan>
          </text>
        </g>
        <g id="Graphic_7523">
          <title>Class Name</title>
          <rect x="5294.7336" y="13510.527" width="145" height="26" fill="#b6cdff"/>
          <rect x="5294.7336" y="13510.527" width="145" height="26" stroke="black" stroke-linecap="round" stroke-linejoin="round" stroke-width="1"/>
          <text transform="translate(5300.7336 13514.527)" fill="black">
            <tspan font-family="Avenir" font-weight="bold" font-size="13" fill="black" x="26.187" y="13">Access Token</tspan>
          </text>
        </g>
        <g id="Graphic_7522">
          <title>Attributes</title>
          <rect x="5345.0306" y="13566.527" width="94.70306" height="30" fill="#b6cdff"/>
          <rect x="5345.0306" y="13566.527" width="94.70306" height="30" stroke="black" stroke-linecap="round" stroke-linejoin="round" stroke-width="1"/>
          <text transform="translate(5351.0306 13572.527)" fill="black">
            <tspan font-family="Avenir" font-size="13" fill="black" x="0" y="13">dnA1NjRiYjZj</tspan>
          </text>
        </g>
        <g id="Graphic_7521">
          <title>Attributes</title>
          <rect x="5294.7336" y="13536.527" width="50" height="30" fill="#b6cdff"/>
          <rect x="5294.7336" y="13536.527" width="50" height="30" stroke="black" stroke-linecap="round" stroke-linejoin="round" stroke-width="1"/>
          <text transform="translate(5300.7336 13542.527)" fill="black">
            <tspan font-family="Avenir" font-size="13" fill="black" x="0" y="13">op</tspan>
          </text>
        </g>
        <g id="Graphic_7520">
          <title>Attributes</title>
          <rect x="5345.0306" y="13536.527" width="94.70306" height="30" fill="#b6cdff"/>
          <rect x="5345.0306" y="13536.527" width="94.70306" height="30" stroke="black" stroke-linecap="round" stroke-linejoin="round" stroke-width="1"/>
          <text transform="translate(5351.0306 13542.527)" fill="black">
            <tspan font-family="Avenir" font-size="13" fill="black" x="0" y="13">read</tspan>
          </text>
        </g>
      </g>
      <g id="Group_7515">
        <g id="Graphic_7517">
          <rect x="5275.5306" y="13665.166" width="180" height="139" fill="#ccc"/>
          <rect x="5275.5306" y="13665.166" width="180" height="139" stroke="black" stroke-linecap="round" stroke-linejoin="round" stroke-width="1"/>
        </g>
        <g id="Graphic_7516">
          <path d="M 5275.5306 13665.166 L 5342.7026 13665.166 L 5342.7026 13678.166 L 5337.105 13691.166 L 5275.5306 13691.166 Z" fill="#ccc"/>
          <path d="M 5275.5306 13665.166 L 5342.7026 13665.166 L 5342.7026 13678.166 L 5337.105 13691.166 L 5275.5306 13691.166 Z" stroke="black" stroke-linecap="round" stroke-linejoin="round" stroke-width="1"/>
          <text transform="translate(5280.5306 13671.166)" fill="black">
            <tspan font-family="Helvetica" font-size="12" fill="black" x="0" y="11">request</tspan>
          </text>
        </g>
      </g>
      <g id="Group_7509">
        <g id="Graphic_7514">
          <title>Attributes</title>
          <rect x="5293.0306" y="13759.479" width="50" height="30" fill="#b6cdff"/>
          <rect x="5293.0306" y="13759.479" width="50" height="30" stroke="black" stroke-linecap="round" stroke-linejoin="round" stroke-width="1"/>
          <text transform="translate(5299.0306 13765.479)" fill="black">
            <tspan font-family="Avenir" font-size="13" fill="black" x="0" y="13">hash</tspan>
          </text>
        </g>
        <g id="Graphic_7513">
          <title>Class Name</title>
          <rect x="5293.0306" y="13703.479" width="145" height="26" fill="#b6cdff"/>
          <rect x="5293.0306" y="13703.479" width="145" height="26" stroke="black" stroke-linecap="round" stroke-linejoin="round" stroke-width="1"/>
          <text transform="translate(5299.0306 13707.479)" fill="black">
            <tspan font-family="Avenir" font-weight="bold" font-size="13" fill="black" x="26.187" y="13">Access Token</tspan>
          </text>
        </g>
        <g id="Graphic_7512">
          <title>Attributes</title>
          <rect x="5342.5306" y="13759.479" width="95.5" height="30" fill="#b6cdff"/>
          <rect x="5342.5306" y="13759.479" width="95.5" height="30" stroke="black" stroke-linecap="round" stroke-linejoin="round" stroke-width="1"/>
          <text transform="translate(5348.5306 13765.479)" fill="black">
            <tspan font-family="Avenir" font-size="13" fill="black" x="0" y="13">dnA1NjRiYjZj</tspan>
          </text>
        </g>
        <g id="Graphic_7511">
          <title>Attributes</title>
          <rect x="5293.0306" y="13729.479" width="50" height="30" fill="#b6cdff"/>
          <rect x="5293.0306" y="13729.479" width="50" height="30" stroke="black" stroke-linecap="round" stroke-linejoin="round" stroke-width="1"/>
          <text transform="translate(5299.0306 13735.479)" fill="black">
            <tspan font-family="Avenir" font-size="13" fill="black" x="0" y="13">op</tspan>
          </text>
        </g>
        <g id="Graphic_7510">
          <title>Attributes</title>
          <rect x="5342.5306" y="13729.479" width="95.5" height="30" fill="#b6cdff"/>
          <rect x="5342.5306" y="13729.479" width="95.5" height="30" stroke="black" stroke-linecap="round" stroke-linejoin="round" stroke-width="1"/>
          <text transform="translate(5348.5306 13735.479)" fill="black">
            <tspan font-family="Avenir" font-size="13" fill="black" x="0" y="13">read</tspan>
          </text>
        </g>
      </g>
      <g id="Line_7508">
        <path d="M 5254.335 13849.647 L 5254.335 13774.547 L 5260.964 13774.547 L 5274.7106 13774.479 L 5277.7106 13774.479" marker-end="url(#FilledArrow_Marker)" stroke="#0076bc" stroke-linecap="round" stroke-linejoin="round" stroke-width="2"/>
      </g>
      <g id="Graphic_7507">
        <path d="M 5533.714 13664.547 L 5533.714 14117 C 5533.714 14119.761 5531.476 14122 5528.714 14122 L 5508.714 14122 C 5505.953 14122 5503.714 14119.761 5503.714 14117 L 5503.714 13664.547 C 5503.714 13661.785 5505.953 13659.547 5508.714 13659.547 L 5528.714 13659.547 C 5531.476 13659.547 5533.714 13661.785 5533.714 13664.547 Z" fill="#f1d6b5"/>
        <path d="M 5533.714 13664.547 L 5533.714 14117 C 5533.714 14119.761 5531.476 14122 5528.714 14122 L 5508.714 14122 C 5505.953 14122 5503.714 14119.761 5503.714 14117 L 5503.714 13664.547 C 5503.714 13661.785 5505.953 13659.547 5508.714 13659.547 L 5528.714 13659.547 C 5531.476 13659.547 5533.714 13661.785 5533.714 13664.547 Z" stroke="black" stroke-linecap="round" stroke-linejoin="round" stroke-width="1"/>
        <text transform="translate(5528.214 13664.547) rotate(90)" fill="black">
          <tspan font-family="Helvetica" font-weight="bold" font-size="16" fill="black" x="153.75397" y="15">Encryption Service</tspan>
        </text>
      </g>
      <g id="Group_7504">
        <g id="Graphic_7506">
          <rect x="5276.6953" y="14081" width="180" height="171.5" fill="#ccc"/>
          <rect x="5276.6953" y="14081" width="180" height="171.5" stroke="black" stroke-linecap="round" stroke-linejoin="round" stroke-width="1"/>
        </g>
        <g id="Graphic_7505">
          <path d="M 5276.6953 14081 L 5343.8673 14081 L 5343.8673 14096 L 5338.27 14111 L 5276.6953 14111 Z" fill="#ccc"/>
          <path d="M 5276.6953 14081 L 5343.8673 14081 L 5343.8673 14096 L 5338.27 14111 L 5276.6953 14111 Z" stroke="black" stroke-linecap="round" stroke-linejoin="round" stroke-width="1"/>
          <text transform="translate(5281.6953 14089)" fill="black">
            <tspan font-family="Helvetica" font-size="12" fill="black" x="0" y="11">response</tspan>
          </text>
        </g>
      </g>
      <g id="Group_7496">
        <g id="Graphic_7503">
          <title>Attributes</title>
          <rect x="5294.5306" y="14144.824" width="50" height="30" fill="#b6cdff"/>
          <rect x="5294.5306" y="14144.824" width="50" height="30" stroke="black" stroke-linecap="round" stroke-linejoin="round" stroke-width="1"/>
          <text transform="translate(5300.5306 14150.824)" fill="black">
            <tspan font-family="Avenir" font-size="13" fill="black" x="0" y="13">iss</tspan>
          </text>
        </g>
        <g id="Graphic_7502">
          <title>Class Name</title>
          <rect x="5294.5306" y="14118.824" width="145" height="26" fill="#b6cdff"/>
          <rect x="5294.5306" y="14118.824" width="145" height="26" stroke="black" stroke-linecap="round" stroke-linejoin="round" stroke-width="1"/>
          <text transform="translate(5300.5306 14122.824)" fill="black">
            <tspan font-family="Avenir" font-weight="bold" font-size="13" fill="black" x="20.506" y="13">Subject Record</tspan>
          </text>
        </g>
        <g id="Graphic_7501">
          <title>Attributes</title>
          <rect x="5344.5306" y="14144.824" width="95" height="30" fill="#b6cdff"/>
          <rect x="5344.5306" y="14144.824" width="95" height="30" stroke="black" stroke-linecap="round" stroke-linejoin="round" stroke-width="1"/>
          <text transform="translate(5350.5306 14150.824)" fill="black">
            <tspan font-family="Avenir" font-size="13" fill="black" x="0" y="13">op.example</tspan>
          </text>
        </g>
        <g id="Graphic_7500">
          <title>Attributes</title>
          <rect x="5294.5306" y="14174.824" width="50" height="30" fill="#b6cdff"/>
          <rect x="5294.5306" y="14174.824" width="50" height="30" stroke="black" stroke-linecap="round" stroke-linejoin="round" stroke-width="1"/>
          <text transform="translate(5300.5306 14180.824)" fill="black">
            <tspan font-family="Avenir" font-size="13" fill="black" x="0" y="13">sub</tspan>
          </text>
        </g>
        <g id="Graphic_7499">
          <title>Attributes</title>
          <rect x="5344.5306" y="14174.824" width="95" height="30" fill="#b6cdff"/>
          <rect x="5344.5306" y="14174.824" width="95" height="30" stroke="black" stroke-linecap="round" stroke-linejoin="round" stroke-width="1"/>
          <text transform="translate(5350.5306 14180.824)" fill="black">
            <tspan font-family="Avenir" font-size="13" fill="black" x="0" y="13">OP-123456</tspan>
          </text>
        </g>
        <g id="Graphic_7498">
          <title>Attributes</title>
          <rect x="5294.5306" y="14204.824" width="50" height="30" fill="#b6cdff"/>
          <rect x="5294.5306" y="14204.824" width="50" height="30" stroke="black" stroke-linecap="round" stroke-linejoin="round" stroke-width="1"/>
          <text transform="translate(5300.5306 14210.824)" fill="black">
            <tspan font-family="Avenir" font-size="13" fill="black" x="0" y="13">id</tspan>
          </text>
        </g>
        <g id="Graphic_7497">
          <title>Attributes</title>
          <rect x="5344.5306" y="14204.824" width="95" height="30" fill="#b6cdff"/>
          <rect x="5344.5306" y="14204.824" width="95" height="30" stroke="black" stroke-linecap="round" stroke-linejoin="round" stroke-width="1"/>
          <text transform="translate(5350.5306 14210.824)" fill="black">
            <tspan font-family="Avenir" font-size="13" fill="black" x="0" y="13">ABCD-0123</tspan>
          </text>
        </g>
      </g>
      <g id="Group_7493">
        <g id="Graphic_7495">
          <rect x="5577.164" y="13737.874" width="180" height="144" fill="#ccc"/>
          <rect x="5577.164" y="13737.874" width="180" height="144" stroke="black" stroke-linecap="round" stroke-linejoin="round" stroke-width="1"/>
        </g>
        <g id="Graphic_7494">
          <path d="M 5577.164 13737.874 L 5644.336 13737.874 L 5644.336 13750.874 L 5638.738 13763.874 L 5577.164 13763.873 Z" fill="#ccc"/>
          <path d="M 5577.164 13737.874 L 5644.336 13737.874 L 5644.336 13750.874 L 5638.738 13763.874 L 5577.164 13763.873 Z" stroke="black" stroke-linecap="round" stroke-linejoin="round" stroke-width="1"/>
          <text transform="translate(5582.164 13743.874)" fill="black">
            <tspan font-family="Helvetica" font-size="12" fill="black" x="0" y="11">request</tspan>
          </text>
        </g>
      </g>
      <g id="Group_7487">
        <g id="Graphic_7492">
          <title>Attributes</title>
          <rect x="5594.664" y="13829.694" width="50" height="30" fill="#b6cdff"/>
          <rect x="5594.664" y="13829.694" width="50" height="30" stroke="black" stroke-linecap="round" stroke-linejoin="round" stroke-width="1"/>
          <text transform="translate(5600.664 13835.694)" fill="black">
            <tspan font-family="Avenir" font-size="13" fill="black" x="0" y="13">hash</tspan>
          </text>
        </g>
        <g id="Graphic_7491">
          <title>Class Name</title>
          <rect x="5594.664" y="13773.694" width="145" height="26" fill="#b6cdff"/>
          <rect x="5594.664" y="13773.694" width="145" height="26" stroke="black" stroke-linecap="round" stroke-linejoin="round" stroke-width="1"/>
          <text transform="translate(5600.664 13777.694)" fill="black">
            <tspan font-family="Avenir" font-weight="bold" font-size="13" fill="black" x="26.187" y="13">Access Token</tspan>
          </text>
        </g>
        <g id="Graphic_7490">
          <title>Attributes</title>
          <rect x="5644.228" y="13829.694" width="95.43613" height="30" fill="#b6cdff"/>
          <rect x="5644.228" y="13829.694" width="95.43613" height="30" stroke="black" stroke-linecap="round" stroke-linejoin="round" stroke-width="1"/>
          <text transform="translate(5650.228 13835.694)" fill="black">
            <tspan font-family="Avenir" font-size="13" fill="black" x="0" y="13">dnA1NjRiYjZj</tspan>
          </text>
        </g>
        <g id="Graphic_7489">
          <title>Attributes</title>
          <rect x="5594.664" y="13799.694" width="50" height="30" fill="#b6cdff"/>
          <rect x="5594.664" y="13799.694" width="50" height="30" stroke="black" stroke-linecap="round" stroke-linejoin="round" stroke-width="1"/>
          <text transform="translate(5600.664 13805.694)" fill="black">
            <tspan font-family="Avenir" font-size="13" fill="black" x="0" y="13">op</tspan>
          </text>
        </g>
        <g id="Graphic_7488">
          <title>Attributes</title>
          <rect x="5644.228" y="13799.694" width="95.43613" height="30" fill="#b6cdff"/>
          <rect x="5644.228" y="13799.694" width="95.43613" height="30" stroke="black" stroke-linecap="round" stroke-linejoin="round" stroke-width="1"/>
          <text transform="translate(5650.228 13805.694)" fill="black">
            <tspan font-family="Avenir" font-size="13" fill="black" x="0" y="13">read</tspan>
          </text>
        </g>
      </g>
      <g id="Group_7484">
        <g id="Graphic_7486">
          <rect x="5581.525" y="13991.74" width="180" height="117" fill="#ccc"/>
          <rect x="5581.525" y="13991.74" width="180" height="117" stroke="black" stroke-linecap="round" stroke-linejoin="round" stroke-width="1"/>
        </g>
        <g id="Graphic_7485">
          <path d="M 5581.525 13991.74 L 5648.697 13991.74 L 5648.697 14006.74 L 5643.099 14021.74 L 5581.525 14021.74 Z" fill="#ccc"/>
          <path d="M 5581.525 13991.74 L 5648.697 13991.74 L 5648.697 14006.74 L 5643.099 14021.74 L 5581.525 14021.74 Z" stroke="black" stroke-linecap="round" stroke-linejoin="round" stroke-width="1"/>
          <text transform="translate(5586.525 13999.74)" fill="black">
            <tspan font-family="Helvetica" font-size="12" fill="black" x="0" y="11">response</tspan>
          </text>
        </g>
      </g>
      <g id="Group_7481">
        <g id="Graphic_7483">
          <title>Class Name</title>
          <rect x="5599.025" y="14032.63" width="145" height="26" fill="#f1d6b5"/>
          <rect x="5599.025" y="14032.63" width="145" height="26" stroke="black" stroke-linecap="round" stroke-linejoin="round" stroke-width="1"/>
          <text transform="translate(5605.025 14036.63)" fill="black">
            <tspan font-family="Avenir" font-weight="bold" font-size="13" fill="black" x="11.9585" y="13">Encrypted Record</tspan>
          </text>
        </g>
        <g id="Graphic_7482">
          <title>Attributes</title>
          <rect x="5599.025" y="14058.63" width="145" height="30" fill="#f1d6b5"/>
          <rect x="5599.025" y="14058.63" width="145" height="30" stroke="black" stroke-linecap="round" stroke-linejoin="round" stroke-width="1"/>
          <text transform="translate(5605.025 14064.63)" fill="black">
            <tspan font-family="Avenir" font-size="13" fill="black" x="0" y="13">N3BuamdyM3ZwdnJr</tspan>
          </text>
        </g>
      </g>
      <g id="Graphic_7479">
        <path d="M 6067.2956 13945.5 L 6067.2956 13879.1 C 6067.2956 13874.518 6079.3916 13870.8 6094.2956 13870.8 C 6109.1996 13870.8 6121.2956 13874.518 6121.2956 13879.1 L 6121.2956 13945.5 C 6121.2956 13950.082 6109.1996 13953.8 6094.2956 13953.8 C 6079.3916 13953.8 6067.2956 13950.082 6067.2956 13945.5" fill="#ccc"/>
        <path d="M 6067.2956 13945.5 L 6067.2956 13879.1 C 6067.2956 13874.518 6079.3916 13870.8 6094.2956 13870.8 C 6109.1996 13870.8 6121.2956 13874.518 6121.2956 13879.1 L 6121.2956 13945.5 C 6121.2956 13950.082 6109.1996 13953.8 6094.2956 13953.8 C 6079.3916 13953.8 6067.2956 13950.082 6067.2956 13945.5 M 6067.2956 13879.1 C 6067.2956 13883.682 6079.3916 13887.4 6094.2956 13887.4 C 6109.1996 13887.4 6121.2956 13883.682 6121.2956 13879.1" stroke="black" stroke-linecap="round" stroke-linejoin="round" stroke-width="1"/>
        <text transform="translate(6072.2956 13906.95)" fill="black">
          <tspan font-family="Helvetica" font-weight="bold" font-size="16" fill="black" x="10.445312" y="15">DB</tspan>
        </text>
      </g>
      <g id="Line_8498">
        <line x1="5837.868" y1="13896.867" x2="6043.5956" y2="13896.867" marker-end="url(#UMLInheritance_Marker)" stroke="black" stroke-linecap="round" stroke-linejoin="round" stroke-width="4"/>
      </g>
      <g id="Graphic_7480">
        <path d="M 5835.473 13671.547 L 5835.473 14060.547 C 5835.473 14063.308 5833.2345 14065.547 5830.473 14065.547 L 5810.473 14065.547 C 5807.712 14065.547 5805.473 14063.308 5805.473 14060.547 L 5805.473 13671.547 C 5805.473 13668.785 5807.712 13666.547 5810.473 13666.547 L 5830.473 13666.547 C 5833.2345 13666.547 5835.473 13668.785 5835.473 13671.547 Z" fill="#ffffc0"/>
        <path d="M 5835.473 13671.547 L 5835.473 14060.547 C 5835.473 14063.308 5833.2345 14065.547 5830.473 14065.547 L 5810.473 14065.547 C 5807.712 14065.547 5805.473 14063.308 5805.473 14060.547 L 5805.473 13671.547 C 5805.473 13668.785 5807.712 13666.547 5810.473 13666.547 L 5830.473 13666.547 C 5833.2345 13666.547 5835.473 13668.785 5835.473 13671.547 Z" stroke="black" stroke-linecap="round" stroke-linejoin="round" stroke-width="1"/>
        <text transform="translate(5829.973 13671.547) rotate(90)" fill="black">
          <tspan font-family="Helvetica" font-weight="bold" font-size="16" fill="black" x="134.02344" y="15">Storage Service</tspan>
        </text>
      </g>
      <g id="Line_8142">
        <path d="M 5294.0306 14189.824 L 5241.4876 14189.824 L 5241.4876 14106.5 C 5234.9876 14106.5 5234.9876 14089.5 5241.4876 14089.5 L 5241.4876 13883.967" marker-end="url(#FilledArrow_Marker)" stroke="#0076bc" stroke-linecap="round" stroke-linejoin="round" stroke-width="2"/>
      </g>
      <g id="Line_8141">
        <path d="M 5294.0306 14159.824 L 5267.183 14159.824 L 5267.183 14106.5 C 5260.683 14106.5 5260.683 14089.5 5267.183 14089.5 L 5267.183 13883.967" marker-end="url(#FilledArrow_Marker)" stroke="#0076bc" stroke-linecap="round" stroke-linejoin="round" stroke-width="2"/>
      </g>
      <g id="Graphic_7518">
        <path d="M 5204.5306 13146 L 5204.5306 14185.734 C 5204.5306 14188.496 5202.292 14190.734 5199.5306 14190.734 L 5179.5306 14190.734 C 5176.769 14190.734 5174.5306 14188.496 5174.5306 14185.734 L 5174.5306 13146 C 5174.5306 13143.239 5176.769 13141 5179.5306 13141 L 5199.5306 13141 C 5202.292 13141 5204.5306 13143.239 5204.5306 13146 Z" fill="#d5c0ec"/>
        <path d="M 5204.5306 13146 L 5204.5306 14185.734 C 5204.5306 14188.496 5202.292 14190.734 5199.5306 14190.734 L 5179.5306 14190.734 C 5176.769 14190.734 5174.5306 14188.496 5174.5306 14185.734 L 5174.5306 13146 C 5174.5306 13143.239 5176.769 13141 5179.5306 13141 L 5199.5306 13141 C 5202.292 13141 5204.5306 13143.239 5204.5306 13146 Z" stroke="black" stroke-linecap="round" stroke-linejoin="round" stroke-width="1"/>
        <text transform="translate(5199.0306 13146) rotate(90)" fill="black">
          <tspan font-family="Helvetica" font-weight="bold" font-size="16" fill="black" x="436.71863" y="15">Orchestration Service</tspan>
        </text>
      </g>
    </g>
    <g id="Canvas_1_circles">
      <title>circles</title>
      <g id="Graphic_8542">
        <circle cx="5482" cy="13483.222" r="16.0000255664302" fill="#333"/>
        <circle cx="5482" cy="13483.222" r="16.0000255664302" stroke="black" stroke-linecap="round" stroke-linejoin="round" stroke-width="1"/>
        <text transform="translate(5475.328 13475.548)" fill="white">
          <tspan font-family="Helvetica Neue" font-weight="bold" font-size="12" fill="white" x="4805045e-19" y="12">57</tspan>
        </text>
      </g>
      <g id="Graphic_8541">
        <path d="M 5265.768 13665.007 C 5272.0167 13671.255 5272.0167 13681.386 5265.768 13687.634 C 5259.52 13693.883 5249.389 13693.883 5243.141 13687.634 C 5236.8924 13681.386 5236.8924 13671.255 5243.141 13665.007 C 5249.389 13658.758 5259.52 13658.758 5265.768 13665.007" fill="#333"/>
        <path d="M 5265.768 13665.007 C 5272.0167 13671.255 5272.0167 13681.386 5265.768 13687.634 C 5259.52 13693.883 5249.389 13693.883 5243.141 13687.634 C 5236.8924 13681.386 5236.8924 13671.255 5243.141 13665.007 C 5249.389 13658.758 5259.52 13658.758 5265.768 13665.007" stroke="black" stroke-linecap="round" stroke-linejoin="round" stroke-width="1"/>
        <text transform="translate(5246.6546 13668.647)" fill="white">
          <tspan font-family="Helvetica Neue" font-weight="bold" font-size="12" fill="white" x="1.1280002" y="12">63</tspan>
        </text>
      </g>
      <g id="Graphic_8540">
        <circle cx="5555.4286" cy="13753.874" r="16.0000255664298" fill="#333"/>
        <circle cx="5555.4286" cy="13753.874" r="16.0000255664298" stroke="black" stroke-linecap="round" stroke-linejoin="round" stroke-width="1"/>
        <text transform="translate(5547.6286 13746.2)" fill="white">
          <tspan font-family="Helvetica Neue" font-weight="bold" font-size="12" fill="white" x="1.1280002" y="12">64</tspan>
        </text>
      </g>
      <g id="Graphic_8539">
        <path d="M 5794.91 13995.886 C 5801.158 14002.135 5801.158 14012.265 5794.91 14018.514 C 5788.6615 14024.762 5778.531 14024.762 5772.2825 14018.514 C 5766.034 14012.265 5766.034 14002.135 5772.2825 13995.886 C 5778.531 13989.638 5788.6615 13989.638 5794.91 13995.886" fill="#333"/>
        <path d="M 5794.91 13995.886 C 5801.158 14002.135 5801.158 14012.265 5794.91 14018.514 C 5788.6615 14024.762 5778.531 14024.762 5772.2825 14018.514 C 5766.034 14012.265 5766.034 14002.135 5772.2825 13995.886 C 5778.531 13989.638 5788.6615 13989.638 5794.91 13995.886" stroke="black" stroke-linecap="round" stroke-linejoin="round" stroke-width="1"/>
        <text transform="translate(5775.796 13999.526)" fill="white">
          <tspan font-family="Helvetica Neue" font-weight="bold" font-size="12" fill="white" x="1.1280002" y="12">66</tspan>
        </text>
      </g>
      <g id="Graphic_8538">
        <path d="M 5491.5185 14086.886 C 5497.767 14093.135 5497.767 14103.265 5491.5185 14109.514 C 5485.27 14115.762 5475.1395 14115.762 5468.891 14109.514 C 5462.643 14103.265 5462.643 14093.135 5468.891 14086.886 C 5475.1395 14080.638 5485.27 14080.638 5491.5185 14086.886" fill="#333"/>
        <path d="M 5491.5185 14086.886 C 5497.767 14093.135 5497.767 14103.265 5491.5185 14109.514 C 5485.27 14115.762 5475.1395 14115.762 5468.891 14109.514 C 5462.643 14103.265 5462.643 14093.135 5468.891 14086.886 C 5475.1395 14080.638 5485.27 14080.638 5491.5185 14086.886" stroke="black" stroke-linecap="round" stroke-linejoin="round" stroke-width="1"/>
        <text transform="translate(5472.405 14090.526)" fill="white">
          <tspan font-family="Helvetica Neue" font-weight="bold" font-size="12" fill="white" x="1.1280002" y="12">67</tspan>
        </text>
      </g>
      <g id="Graphic_8537">
        <path d="M 5255.9536 14176.686 C 5262.202 14182.935 5262.202 14193.065 5255.9536 14199.314 C 5249.705 14205.562 5239.5746 14205.562 5233.326 14199.314 C 5227.078 14193.065 5227.078 14182.935 5233.326 14176.686 C 5239.5746 14170.438 5249.705 14170.438 5255.9536 14176.686" fill="#333"/>
        <path d="M 5255.9536 14176.686 C 5262.202 14182.935 5262.202 14193.065 5255.9536 14199.314 C 5249.705 14205.562 5239.5746 14205.562 5233.326 14199.314 C 5227.078 14193.065 5227.078 14182.935 5233.326 14176.686 C 5239.5746 14170.438 5249.705 14170.438 5255.9536 14176.686" stroke="black" stroke-linecap="round" stroke-linejoin="round" stroke-width="1"/>
        <text transform="translate(5236.84 14180.326)" fill="white">
          <tspan font-family="Helvetica Neue" font-weight="bold" font-size="12" fill="white" x="1.1280002" y="12">68</tspan>
        </text>
      </g>
      <g id="Graphic_8536">
        <circle cx="5881" cy="13912.3" r="16.0000255664303" fill="#333"/>
        <circle cx="5881" cy="13912.3" r="16.0000255664303" stroke="black" stroke-linecap="round" stroke-linejoin="round" stroke-width="1"/>
        <text transform="translate(5873.2 13904.626)" fill="white">
          <tspan font-family="Helvetica Neue" font-weight="bold" font-size="12" fill="white" x="1.1280002" y="12">65</tspan>
        </text>
      </g>
      <g id="Line_9769">
        <line x1="5204.5306" y1="13152.378" x2="5481.3" y2="13152.378" marker-end="url(#UMLInheritance_Marker)" stroke="black" stroke-linecap="round" stroke-linejoin="round" stroke-width="4"/>
      </g>
      <g id="Group_9766">
        <g id="Graphic_9768">
          <rect x="5276.114" y="13136.878" width="180" height="306.5" fill="#ccc"/>
          <rect x="5276.114" y="13136.878" width="180" height="306.5" stroke="black" stroke-linecap="round" stroke-linejoin="round" stroke-width="1"/>
        </g>
        <g id="Graphic_9767">
          <path d="M 5276.114 13136.878 L 5371.2185 13136.878 L 5371.2185 13150.878 L 5363.293 13164.878 L 5276.114 13164.878 Z" fill="#ccc"/>
          <path d="M 5276.114 13136.878 L 5371.2185 13136.878 L 5371.2185 13150.878 L 5363.293 13164.878 L 5276.114 13164.878 Z" stroke="black" stroke-linecap="round" stroke-linejoin="round" stroke-width="1"/>
          <text transform="translate(5281.114 13143.878)" fill="black">
            <tspan font-family="Helvetica" font-size="12" fill="black" x="0" y="11">read user</tspan>
          </text>
        </g>
      </g>
      <g id="Group_9758">
        <g id="Graphic_9765">
          <title>Attributes</title>
          <rect x="5293.614" y="13334.136" width="50" height="30" fill="#ffc0c0"/>
          <rect x="5293.614" y="13334.136" width="50" height="30" stroke="black" stroke-linecap="round" stroke-linejoin="round" stroke-width="1"/>
          <text transform="translate(5299.614 13340.136)" fill="black">
            <tspan font-family="Avenir" font-size="13" fill="black" x="0" y="13">iss</tspan>
          </text>
        </g>
        <g id="Graphic_9764">
          <title>Class Name</title>
          <rect x="5293.614" y="13308.136" width="145" height="26" fill="#ffc0c0"/>
          <rect x="5293.614" y="13308.136" width="145" height="26" stroke="black" stroke-linecap="round" stroke-linejoin="round" stroke-width="1"/>
          <text transform="translate(5299.614 13312.136)" fill="black">
            <tspan font-family="Avenir" font-weight="bold" font-size="13" fill="black" x="39.9085" y="13">ID Token</tspan>
          </text>
        </g>
        <g id="Graphic_9763">
          <title>Attributes</title>
          <rect x="5343.5306" y="13334.136" width="95.08345" height="30" fill="#ffc0c0"/>
          <rect x="5343.5306" y="13334.136" width="95.08345" height="30" stroke="black" stroke-linecap="round" stroke-linejoin="round" stroke-width="1"/>
          <text transform="translate(5349.5306 13340.136)" fill="black">
            <tspan font-family="Avenir" font-size="13" fill="black" x="0" y="13">op.example</tspan>
          </text>
        </g>
        <g id="Graphic_9762">
          <title>Attributes</title>
          <rect x="5293.614" y="13394.136" width="50" height="30" fill="#ffc0c0"/>
          <rect x="5293.614" y="13394.136" width="50" height="30" stroke="black" stroke-linecap="round" stroke-linejoin="round" stroke-width="1"/>
          <text transform="translate(5299.614 13400.136)" fill="black">
            <tspan font-family="Avenir" font-size="13" fill="black" x="0" y="13">aud</tspan>
          </text>
        </g>
        <g id="Graphic_9761">
          <title>Attributes</title>
          <rect x="5343.5306" y="13394.136" width="95.08345" height="30" fill="#ffc0c0"/>
          <rect x="5343.5306" y="13394.136" width="95.08345" height="30" stroke="black" stroke-linecap="round" stroke-linejoin="round" stroke-width="1"/>
          <text transform="translate(5349.5306 13400.136)" fill="black">
            <tspan font-family="Avenir" font-size="13" fill="black" x="0" y="13">hello.coop</tspan>
          </text>
        </g>
        <g id="Graphic_9760">
          <title>Attributes</title>
          <rect x="5293.614" y="13364.136" width="50" height="30" fill="#ffc0c0"/>
          <rect x="5293.614" y="13364.136" width="50" height="30" stroke="black" stroke-linecap="round" stroke-linejoin="round" stroke-width="1"/>
          <text transform="translate(5299.614 13370.136)" fill="black">
            <tspan font-family="Avenir" font-size="13" fill="black" x="0" y="13">sub</tspan>
          </text>
        </g>
        <g id="Graphic_9759">
          <title>Attributes</title>
          <rect x="5343.5306" y="13364.136" width="95.08345" height="30" fill="#ffc0c0"/>
          <rect x="5343.5306" y="13364.136" width="95.08345" height="30" stroke="black" stroke-linecap="round" stroke-linejoin="round" stroke-width="1"/>
          <text transform="translate(5349.5306 13370.136)" fill="black">
            <tspan font-family="Avenir" font-size="13" fill="black" x="0" y="13">OP-123456</tspan>
          </text>
        </g>
      </g>
      <g id="Group_9750">
        <g id="Graphic_9757">
          <title>Attributes</title>
          <rect x="5293.614" y="13204.254" width="50" height="30" fill="#b6cdff"/>
          <rect x="5293.614" y="13204.254" width="50" height="30" stroke="black" stroke-linecap="round" stroke-linejoin="round" stroke-width="1"/>
          <text transform="translate(5299.614 13210.254)" fill="black">
            <tspan font-family="Avenir" font-size="13" fill="black" x="0" y="13">iss</tspan>
          </text>
        </g>
        <g id="Graphic_9756">
          <title>Class Name</title>
          <rect x="5293.614" y="13178.254" width="145" height="26" fill="#b6cdff"/>
          <rect x="5293.614" y="13178.254" width="145" height="26" stroke="black" stroke-linecap="round" stroke-linejoin="round" stroke-width="1"/>
          <text transform="translate(5299.614 13182.254)" fill="black">
            <tspan font-family="Avenir" font-weight="bold" font-size="13" fill="black" x="20.506" y="13">Subject Record</tspan>
          </text>
        </g>
        <g id="Graphic_9755">
          <title>Attributes</title>
          <rect x="5343.9306" y="13204.254" width="94.68345" height="30" fill="#b6cdff"/>
          <rect x="5343.9306" y="13204.254" width="94.68345" height="30" stroke="black" stroke-linecap="round" stroke-linejoin="round" stroke-width="1"/>
          <text transform="translate(5349.9306 13210.254)" fill="black">
            <tspan font-family="Avenir" font-size="13" fill="black" x="0" y="13">op.example</tspan>
          </text>
        </g>
        <g id="Graphic_9754">
          <title>Attributes</title>
          <rect x="5293.614" y="13234.254" width="50" height="30" fill="#b6cdff"/>
          <rect x="5293.614" y="13234.254" width="50" height="30" stroke="black" stroke-linecap="round" stroke-linejoin="round" stroke-width="1"/>
          <text transform="translate(5299.614 13240.254)" fill="black">
            <tspan font-family="Avenir" font-size="13" fill="black" x="0" y="13">sub</tspan>
          </text>
        </g>
        <g id="Graphic_9753">
          <title>Attributes</title>
          <rect x="5343.9306" y="13234.254" width="94.68345" height="30" fill="#b6cdff"/>
          <rect x="5343.9306" y="13234.254" width="94.68345" height="30" stroke="black" stroke-linecap="round" stroke-linejoin="round" stroke-width="1"/>
          <text transform="translate(5349.9306 13240.254)" fill="black">
            <tspan font-family="Avenir" font-size="13" fill="black" x="0" y="13">OP-123456</tspan>
          </text>
        </g>
        <g id="Graphic_9752">
          <title>Attributes</title>
          <rect x="5293.614" y="13264.254" width="50" height="30" fill="#b6cdff"/>
          <rect x="5293.614" y="13264.254" width="50" height="30" stroke="black" stroke-linecap="round" stroke-linejoin="round" stroke-width="1"/>
          <text transform="translate(5299.614 13270.254)" fill="black">
            <tspan font-family="Avenir" font-size="13" fill="black" x="0" y="13">id</tspan>
          </text>
        </g>
        <g id="Graphic_9751">
          <title>Attributes</title>
          <rect x="5343.9306" y="13264.254" width="94.68345" height="30" fill="#b6cdff"/>
          <rect x="5343.9306" y="13264.254" width="94.68345" height="30" stroke="black" stroke-linecap="round" stroke-linejoin="round" stroke-width="1"/>
          <text transform="translate(5349.9306 13270.254)" fill="black">
            <tspan font-family="Avenir" font-size="13" fill="black" x="0" y="13">ABCD-0123</tspan>
          </text>
        </g>
      </g>
      <g id="Line_9749">
        <path d="M 5453.934 13379.136 L 5456.934 13379.136 L 5463.544 13379.636 L 5473.2315 13379.636 L 5473.2315 13249.254 L 5453.934 13249.254" marker-end="url(#FilledArrow_Marker)" marker-start="url(#FilledArrow_Marker_2)" stroke="#0076bc" stroke-linecap="round" stroke-linejoin="round" stroke-width="2"/>
      </g>
      <g id="Line_9748">
        <path d="M 5453.934 13349.136 L 5466.7315 13349.136 C 5466.7315 13342.636 5479.7315 13342.636 5479.7315 13349.136 L 5489.8315 13349.136 L 5489.8315 13219.254 L 5453.934 13219.254" marker-end="url(#FilledArrow_Marker)" marker-start="url(#FilledArrow_Marker_2)" stroke="#0076bc" stroke-linecap="round" stroke-linejoin="round" stroke-width="2"/>
      </g>
      <g id="Graphic_9745">
        <circle cx="5248.497" cy="13153.952" r="16.00002556643" fill="#333"/>
        <circle cx="5248.497" cy="13153.952" r="16.00002556643" stroke="black" stroke-linecap="round" stroke-linejoin="round" stroke-width="1"/>
        <text transform="translate(5240.697 13146.278)" fill="white">
          <tspan font-family="Helvetica Neue" font-weight="bold" font-size="12" fill="white" x="1.1280002" y="12">45</tspan>
        </text>
      </g>
      <g id="Graphic_9744">
        <path d="M 5493.314 13279.138 C 5499.562 13285.387 5499.562 13295.517 5493.314 13301.766 C 5487.065 13308.014 5476.935 13308.014 5470.686 13301.766 C 5464.438 13295.517 5464.438 13285.387 5470.686 13279.138 C 5476.935 13272.89 5487.065 13272.89 5493.314 13279.138" fill="#333"/>
        <path d="M 5493.314 13279.138 C 5499.562 13285.387 5499.562 13295.517 5493.314 13301.766 C 5487.065 13308.014 5476.935 13308.014 5470.686 13301.766 C 5464.438 13295.517 5464.438 13285.387 5470.686 13279.138 C 5476.935 13272.89 5487.065 13272.89 5493.314 13279.138" stroke="black" stroke-linecap="round" stroke-linejoin="round" stroke-width="1"/>
        <text transform="translate(5474.2 13282.778)" fill="white">
          <tspan font-family="Helvetica Neue" font-weight="bold" font-size="12" fill="white" x="1.1280002" y="12">46</tspan>
        </text>
      </g>
      <g id="Graphic_9775">
        <path d="M 5247.5833 13521.908 L 5274.8333 13534.908 L 5247.5833 13547.908 L 5220.3333 13534.908 Z" fill="#ccc"/>
        <path d="M 5247.5833 13521.908 L 5274.8333 13534.908 L 5247.5833 13547.908 L 5220.3333 13534.908 Z" stroke="black" stroke-linecap="round" stroke-linejoin="round" stroke-width="1"/>
        <text transform="translate(5232.691 13527.48)" fill="black">
          <tspan font-family="Helvetica Neue" font-size="12" fill="black" x="1.5475" y="11">Hash</tspan>
        </text>
      </g>
      <g id="Line_9774">
        <path d="M 5247.5833 13548.408 L 5247.5833 13581.882 L 5279.855 13581.882" marker-end="url(#FilledArrow_Marker)" stroke="#0076bc" stroke-linecap="round" stroke-linejoin="round" stroke-width="2"/>
      </g>
      <g id="Line_9773">
        <path d="M 5293.114 13219.254 L 5275.294 13219.254 L 5274.0543 13219 L 5233.9583 13219 L 5233.9583 13474.222 C 5240.4583 13474.222 5240.4583 13491.222 5233.9583 13491.222 L 5233.9583 13513.588" marker-end="url(#FilledArrow_Marker)" stroke="#0076bc" stroke-linecap="round" stroke-linejoin="round" stroke-width="2"/>
      </g>
      <g id="Line_9772">
        <path d="M 5293.614 13250.31 L 5293.614 13249.47 L 5260.6175 13249.47 L 5260.6175 13474.222 C 5267.1175 13474.222 5267.1175 13491.222 5260.6175 13491.222 L 5260.6175 13513.96" marker-end="url(#FilledArrow_Marker)" stroke="#0076bc" stroke-linecap="round" stroke-linejoin="round" stroke-width="2"/>
      </g>
      <g id="Graphic_9771">
        <circle cx="5247.5833" cy="13579.444" r="16.0000255664302" fill="#333"/>
        <circle cx="5247.5833" cy="13579.444" r="16.0000255664302" stroke="black" stroke-linecap="round" stroke-linejoin="round" stroke-width="1"/>
        <text transform="translate(5239.7833 13571.77)" fill="white">
          <tspan font-family="Helvetica Neue" font-weight="bold" font-size="12" fill="white" x="1.1280002" y="12">58</tspan>
        </text>
      </g>
    </g>
  </g>
</svg>
