<svg width="1105" height="1105" viewBox="0 0 1105 1105" fill="none" xmlns="http://www.w3.org/2000/svg">
<path d="M185 664.808C185 607.945 193.713 556.586 211.138 510.729C228.564 463.955 253.326 424.518 285.426 392.418C317.526 359.401 356.046 334.18 400.985 316.754C445.924 298.412 496.367 289.24 552.312 289.24C608.257 289.24 658.7 298.412 703.639 316.754C749.496 334.18 788.474 359.401 820.574 392.418C852.674 424.518 877.436 463.955 894.862 510.729C912.287 556.586 921 607.945 921 664.808C921 721.67 912.287 773.03 894.862 818.886C877.436 864.743 852.674 904.181 820.574 937.198C788.474 969.297 749.496 994.518 703.639 1012.86C658.7 1030.29 608.257 1039 552.312 1039C496.367 1039 445.924 1030.29 400.985 1012.86C356.046 994.518 317.526 969.297 285.426 937.198C253.326 904.181 228.564 864.743 211.138 818.886C193.713 773.03 185 721.67 185 664.808ZM380.35 664.808C380.35 693.24 383.101 721.212 388.604 748.726C394.107 775.323 403.278 799.627 416.117 821.638C429.875 842.732 447.759 859.699 469.77 872.539C491.782 885.379 519.295 891.799 552.312 891.799C585.329 891.799 612.843 885.379 634.854 872.539C657.783 859.699 675.667 842.732 688.507 821.638C702.263 799.627 711.893 775.323 717.396 748.726C722.899 721.212 725.651 693.24 725.651 664.808C725.651 636.377 722.899 608.404 717.396 580.89C711.893 553.375 702.263 529.072 688.507 507.978C675.667 486.883 657.783 469.916 634.854 457.076C612.843 443.319 585.329 436.44 552.312 436.44C519.295 436.44 491.782 443.319 469.77 457.076C447.759 469.916 429.875 486.883 416.117 507.978C403.278 529.072 394.107 553.375 388.604 580.89C383.101 608.404 380.35 636.377 380.35 664.808ZM311.564 65H797.187V168.178H311.564V65Z" fill="white"/>
</svg>
