<?xml version="1.0" encoding="UTF-8" standalone="no"?>
<!DOCTYPE svg PUBLIC "-//W3C//DTD SVG 1.1//EN" "http://www.w3.org/Graphics/SVG/1.1/DTD/svg11.dtd">
<svg version="1.1" xmlns:dc="http://purl.org/dc/elements/1.1/" xmlns="http://www.w3.org/2000/svg" xmlns:xl="http://www.w3.org/1999/xlink" viewBox="4769.3 687.08 781.0655 1221.127" width="781.0655" height="1221.127">
  <defs>
    <marker orient="auto" overflow="visible" markerUnits="strokeWidth" id="UMLInheritance_Marker" stroke-linejoin="miter" stroke-miterlimit="10" viewBox="-1 -4 7 8" markerWidth="7" markerHeight="8" color="black">
      <g>
        <path d="M 4.8 0 L 0 -2.8 L 0 2.8 Z" fill="none" stroke="currentColor" stroke-width="1"/>
      </g>
    </marker>
    <marker orient="auto" overflow="visible" markerUnits="strokeWidth" id="FilledArrow_Marker" stroke-linejoin="miter" stroke-miterlimit="10" viewBox="-1 -4 8 8" markerWidth="8" markerHeight="8" color="#0076bc">
      <g>
        <path d="M 5.7599985 0 L 0 -2.1599994 L 0 2.1599994 Z" fill="currentColor" stroke="currentColor" stroke-width="1"/>
      </g>
    </marker>
    <marker orient="auto" overflow="visible" markerUnits="strokeWidth" id="FilledArrow_Marker_2" stroke-linejoin="miter" stroke-miterlimit="10" viewBox="-7 -4 8 8" markerWidth="8" markerHeight="8" color="#0076bc">
      <g>
        <path d="M -5.759999 0 L 0 2.1599997 L 0 -2.1599997 Z" fill="currentColor" stroke="currentColor" stroke-width="1"/>
      </g>
    </marker>
    <filter id="Shadow" filterUnits="userSpaceOnUse" x="4691.1935" y="564.9673">
      <feOffset in="SourceAlpha" result="offset" dx="0" dy="2"/>
      <feFlood flood-color="#919191" flood-opacity=".25" result="flood"/>
      <feComposite in="flood" in2="offset" operator="in" result="color"/>
      <feMerge>
        <feMergeNode in="color"/>
        <feMergeNode in="SourceGraphic"/>
      </feMerge>
    </filter>
  </defs>
  <metadata> Produced by OmniGraffle 7.20\n2022-09-21 19:06:03 +0000</metadata>
  <g id="Canvas_1" fill-opacity="1" fill="none" stroke-opacity="1" stroke="none" stroke-dasharray="none">
    <title>Canvas 1</title>
    <g id="Canvas_1_main">
      <title>main</title>
      <g id="Graphic_8235">
        <rect x="5137.8655" y="687.58" width="412" height="1149.42" fill="#dae5ff"/>
        <rect x="5137.8655" y="687.58" width="412" height="1149.42" stroke="black" stroke-linecap="round" stroke-linejoin="round" stroke-width="1"/>
      </g>
      <g id="Line_8234">
        <line x1="5526.6355" y1="1611.7242" x2="5224.2" y2="1611.7242" marker-end="url(#UMLInheritance_Marker)" stroke="black" stroke-linecap="round" stroke-linejoin="round" stroke-width="4"/>
      </g>
      <g id="Group_8231">
        <g id="Graphic_8233">
          <rect x="5274.422" y="1597.908" width="180" height="198.81622" fill="#ccc"/>
          <rect x="5274.422" y="1597.908" width="180" height="198.81622" stroke="black" stroke-linecap="round" stroke-linejoin="round" stroke-width="1"/>
        </g>
        <g id="Graphic_8232">
          <path d="M 5274.422 1597.908 L 5341.594 1597.908 L 5341.594 1612.8535 L 5335.996 1627.799 L 5274.422 1627.7989 Z" fill="#ccc"/>
          <path d="M 5274.422 1597.908 L 5341.594 1597.908 L 5341.594 1612.8535 L 5335.996 1627.799 L 5274.422 1627.7989 Z" stroke="black" stroke-linecap="round" stroke-linejoin="round" stroke-width="1"/>
          <text transform="translate(5279.422 1605.8535)" fill="black">
            <tspan font-family="Helvetica" font-size="12" fill="black" x="0" y="11">response</tspan>
          </text>
        </g>
      </g>
      <g id="Line_8230">
        <line x1="5199" y1="1165.5324" x2="5480.664" y2="1165.5324" marker-end="url(#UMLInheritance_Marker)" stroke="black" stroke-linecap="round" stroke-linejoin="round" stroke-width="4"/>
      </g>
      <g id="Group_8227">
        <g id="Graphic_8229">
          <rect x="5274.422" y="1150.4993" width="180" height="429.40067" fill="#ccc"/>
          <rect x="5274.422" y="1150.4993" width="180" height="429.40067" stroke="black" stroke-linecap="round" stroke-linejoin="round" stroke-width="1"/>
        </g>
        <g id="Graphic_8228">
          <path d="M 5274.422 1150.4993 L 5381.347 1150.4993 L 5381.347 1164.1997 L 5372.437 1177.9 L 5274.422 1177.8998 Z" fill="#ccc"/>
          <path d="M 5274.422 1150.4993 L 5381.347 1150.4993 L 5381.347 1164.1997 L 5372.437 1177.9 L 5274.422 1177.8998 Z" stroke="black" stroke-linecap="round" stroke-linejoin="round" stroke-width="1"/>
          <text transform="translate(5279.422 1157.1997)" fill="black">
            <tspan font-family="Helvetica" font-size="12" fill="black" x="0" y="11">create ID token</tspan>
          </text>
        </g>
      </g>
      <g id="Group_8219">
        <g id="Graphic_8226">
          <title>Attributes</title>
          <rect x="5291.922" y="1347.9" width="50" height="30" fill="#b6cdff"/>
          <rect x="5291.922" y="1347.9" width="50" height="30" stroke="black" stroke-linecap="round" stroke-linejoin="round" stroke-width="1"/>
          <text transform="translate(5297.922 1353.9)" fill="black">
            <tspan font-family="Avenir" font-size="13" fill="black" x="0" y="13">iss</tspan>
          </text>
        </g>
        <g id="Graphic_8225">
          <title>Class Name</title>
          <rect x="5291.922" y="1321.9" width="145" height="26" fill="#b6cdff"/>
          <rect x="5291.922" y="1321.9" width="145" height="26" stroke="black" stroke-linecap="round" stroke-linejoin="round" stroke-width="1"/>
          <text transform="translate(5297.922 1325.9)" fill="black">
            <tspan font-family="Avenir" font-weight="bold" font-size="13" fill="black" x="20.506" y="13">Subject Record</tspan>
          </text>
        </g>
        <g id="Graphic_8224">
          <title>Attributes</title>
          <rect x="5342.422" y="1347.9" width="94.5" height="30" fill="#b6cdff"/>
          <rect x="5342.422" y="1347.9" width="94.5" height="30" stroke="black" stroke-linecap="round" stroke-linejoin="round" stroke-width="1"/>
          <text transform="translate(5348.422 1353.9)" fill="black">
            <tspan font-family="Avenir" font-size="13" fill="black" x="0" y="13">op.example</tspan>
          </text>
        </g>
        <g id="Graphic_8223">
          <title>Attributes</title>
          <rect x="5291.922" y="1377.9" width="50" height="30" fill="#b6cdff"/>
          <rect x="5291.922" y="1377.9" width="50" height="30" stroke="black" stroke-linecap="round" stroke-linejoin="round" stroke-width="1"/>
          <text transform="translate(5297.922 1383.9)" fill="black">
            <tspan font-family="Avenir" font-size="13" fill="black" x="0" y="13">sub</tspan>
          </text>
        </g>
        <g id="Graphic_8222">
          <title>Attributes</title>
          <rect x="5342.422" y="1377.9" width="94.5" height="30" fill="#b6cdff"/>
          <rect x="5342.422" y="1377.9" width="94.5" height="30" stroke="black" stroke-linecap="round" stroke-linejoin="round" stroke-width="1"/>
          <text transform="translate(5348.422 1383.9)" fill="black">
            <tspan font-family="Avenir" font-size="13" fill="black" x="0" y="13">OP-123456</tspan>
          </text>
        </g>
        <g id="Graphic_8221">
          <title>Attributes</title>
          <rect x="5291.922" y="1407.9" width="50" height="30" fill="#b6cdff"/>
          <rect x="5291.922" y="1407.9" width="50" height="30" stroke="black" stroke-linecap="round" stroke-linejoin="round" stroke-width="1"/>
          <text transform="translate(5297.922 1413.9)" fill="black">
            <tspan font-family="Avenir" font-size="13" fill="black" x="0" y="13">user</tspan>
          </text>
        </g>
        <g id="Graphic_8220">
          <title>Attributes</title>
          <rect x="5342.422" y="1407.9" width="94.5" height="30" fill="#b6cdff"/>
          <rect x="5342.422" y="1407.9" width="94.5" height="30" stroke="black" stroke-linecap="round" stroke-linejoin="round" stroke-width="1"/>
          <text transform="translate(5348.422 1413.9)" fill="black">
            <tspan font-family="Avenir" font-size="13" fill="black" x="0" y="13">ABCD-0123</tspan>
          </text>
        </g>
      </g>
      <g id="Line_8218">
        <path d="M 5452.242 1263.9 L 5455.242 1263.9 L 5471.7336 1264.0575 L 5471.7336 1392.9 L 5452.242 1392.9" marker-end="url(#FilledArrow_Marker)" marker-start="url(#FilledArrow_Marker_2)" stroke="#0076bc" stroke-linecap="round" stroke-linejoin="round" stroke-width="2"/>
      </g>
      <g id="Line_8217">
        <path d="M 5451.707 1233.9 L 5487.528 1233.9 L 5487.528 1362.4 L 5478.233 1362.544 C 5478.132 1356.0447 5465.134 1356.246 5465.2344 1362.7453 L 5455.242 1362.9 L 5452.242 1362.9" marker-end="url(#FilledArrow_Marker)" marker-start="url(#FilledArrow_Marker_2)" stroke="#0076bc" stroke-linecap="round" stroke-linejoin="round" stroke-width="2"/>
      </g>
      <g id="Line_8216">
        <path d="M 5277.1195 1422.9 L 5232.987 1422.9 L 5233.2886 1603.2242 C 5239.7886 1603.2133 5239.817 1620.2133 5233.317 1620.2242 L 5233.442 1694.9 L 5233.442 1708.48 L 5277.102 1708.48" marker-end="url(#FilledArrow_Marker)" marker-start="url(#FilledArrow_Marker_2)" stroke="#0076bc" stroke-linecap="round" stroke-linejoin="round" stroke-width="2"/>
      </g>
      <g id="Line_8215">
        <line x1="5510.169" y1="1004.7307" x2="5222.7" y2="1004.7307" marker-end="url(#UMLInheritance_Marker)" stroke="black" stroke-linecap="round" stroke-linejoin="round" stroke-width="4"/>
      </g>
      <g id="Graphic_8214">
        <path d="M 5480.364 1011.7713 L 5480.364 960.7746 C 5480.364 957.2558 5492.46 954.4 5507.364 954.4 C 5522.268 954.4 5534.364 957.2558 5534.364 960.7746 L 5534.364 1011.7713 C 5534.364 1015.2901 5522.268 1018.1459 5507.364 1018.1459 C 5492.46 1018.1459 5480.364 1015.2901 5480.364 1011.7713" fill="#ccc"/>
        <path d="M 5480.364 1011.7713 L 5480.364 960.7746 C 5480.364 957.2558 5492.46 954.4 5507.364 954.4 C 5522.268 954.4 5534.364 957.2558 5534.364 960.7746 L 5534.364 1011.7713 C 5534.364 1015.2901 5522.268 1018.1459 5507.364 1018.1459 C 5492.46 1018.1459 5480.364 1015.2901 5480.364 1011.7713 M 5480.364 960.7746 C 5480.364 964.2934 5492.46 967.1492 5507.364 967.1492 C 5522.268 967.1492 5534.364 964.2934 5534.364 960.7746" stroke="black" stroke-linecap="round" stroke-linejoin="round" stroke-width="1"/>
        <text transform="translate(5485.364 979.9603)" fill="black">
          <tspan font-family="Helvetica" font-weight="bold" font-size="16" fill="black" x="10.445312" y="15">DB</tspan>
        </text>
      </g>
      <g id="Group_8206">
        <g id="Graphic_8213">
          <title>Attributes</title>
          <rect x="5291.922" y="1218.9" width="50" height="30" fill="#ffc0c0"/>
          <rect x="5291.922" y="1218.9" width="50" height="30" stroke="black" stroke-linecap="round" stroke-linejoin="round" stroke-width="1"/>
          <text transform="translate(5297.922 1224.9)" fill="black">
            <tspan font-family="Avenir" font-size="13" fill="black" x="0" y="13">iss</tspan>
          </text>
        </g>
        <g id="Graphic_8212">
          <title>Class Name</title>
          <rect x="5291.922" y="1192.9" width="145" height="26" fill="#ffc0c0"/>
          <rect x="5291.922" y="1192.9" width="145" height="26" stroke="black" stroke-linecap="round" stroke-linejoin="round" stroke-width="1"/>
          <text transform="translate(5297.922 1196.9)" fill="black">
            <tspan font-family="Avenir" font-weight="bold" font-size="13" fill="black" x="39.9085" y="13">ID Token</tspan>
          </text>
        </g>
        <g id="Graphic_8211">
          <title>Attributes</title>
          <rect x="5341.922" y="1218.9" width="95" height="30" fill="#ffc0c0"/>
          <rect x="5341.922" y="1218.9" width="95" height="30" stroke="black" stroke-linecap="round" stroke-linejoin="round" stroke-width="1"/>
          <text transform="translate(5347.922 1224.9)" fill="black">
            <tspan font-family="Avenir" font-size="13" fill="black" x="0" y="13">op.example</tspan>
          </text>
        </g>
        <g id="Graphic_8210">
          <title>Attributes</title>
          <rect x="5291.922" y="1278.9" width="50" height="30" fill="#ffc0c0"/>
          <rect x="5291.922" y="1278.9" width="50" height="30" stroke="black" stroke-linecap="round" stroke-linejoin="round" stroke-width="1"/>
          <text transform="translate(5297.922 1284.9)" fill="black">
            <tspan font-family="Avenir" font-size="13" fill="black" x="0" y="13">aud</tspan>
          </text>
        </g>
        <g id="Graphic_8209">
          <title>Attributes</title>
          <rect x="5341.922" y="1278.9" width="95" height="30" fill="#ffc0c0"/>
          <rect x="5341.922" y="1278.9" width="95" height="30" stroke="black" stroke-linecap="round" stroke-linejoin="round" stroke-width="1"/>
          <text transform="translate(5347.922 1284.9)" fill="black">
            <tspan font-family="Avenir" font-size="13" fill="black" x="0" y="13">hello.coop</tspan>
          </text>
        </g>
        <g id="Graphic_8208">
          <title>Attributes</title>
          <rect x="5291.922" y="1248.9" width="50" height="30" fill="#ffc0c0"/>
          <rect x="5291.922" y="1248.9" width="50" height="30" stroke="black" stroke-linecap="round" stroke-linejoin="round" stroke-width="1"/>
          <text transform="translate(5297.922 1254.9)" fill="black">
            <tspan font-family="Avenir" font-size="13" fill="black" x="0" y="13">sub</tspan>
          </text>
        </g>
        <g id="Graphic_8207">
          <title>Attributes</title>
          <rect x="5341.922" y="1248.9" width="95" height="30" fill="#ffc0c0"/>
          <rect x="5341.922" y="1248.9" width="95" height="30" stroke="black" stroke-linecap="round" stroke-linejoin="round" stroke-width="1"/>
          <text transform="translate(5347.922 1254.9)" fill="black">
            <tspan font-family="Avenir" font-size="13" fill="black" x="0" y="13">OP-123456</tspan>
          </text>
        </g>
      </g>
      <g id="Line_8100">
        <line x1="5171.578" y1="1775.449" x2="4923.7" y2="1775.449" marker-end="url(#UMLInheritance_Marker)" stroke="black" stroke-linecap="round" stroke-linejoin="round" stroke-width="4"/>
      </g>
      <g id="Group_8089">
        <g id="Graphic_8096">
          <title>Attributes</title>
          <rect x="5291.922" y="1018.5169" width="50" height="30" fill="#b6cdff"/>
          <rect x="5291.922" y="1018.5169" width="50" height="30" stroke="black" stroke-linecap="round" stroke-linejoin="round" stroke-width="1"/>
          <text transform="translate(5297.922 1024.5169)" fill="black">
            <tspan font-family="Avenir" font-size="13" fill="black" x="0" y="13">iss</tspan>
          </text>
        </g>
        <g id="Graphic_8095">
          <title>Class Name</title>
          <rect x="5291.922" y="992.5169" width="145" height="26" fill="#b6cdff"/>
          <rect x="5291.922" y="992.5169" width="145" height="26" stroke="black" stroke-linecap="round" stroke-linejoin="round" stroke-width="1"/>
          <text transform="translate(5297.922 996.5169)" fill="black">
            <tspan font-family="Avenir" font-weight="bold" font-size="13" fill="black" x="20.506" y="13">Subject Record</tspan>
          </text>
        </g>
        <g id="Graphic_8094">
          <title>Attributes</title>
          <rect x="5341.922" y="1018.5169" width="95" height="30" fill="#b6cdff"/>
          <rect x="5341.922" y="1018.5169" width="95" height="30" stroke="black" stroke-linecap="round" stroke-linejoin="round" stroke-width="1"/>
          <text transform="translate(5347.922 1024.5169)" fill="black">
            <tspan font-family="Avenir" font-size="13" fill="black" x="0" y="13">op.example</tspan>
          </text>
        </g>
        <g id="Graphic_8093">
          <title>Attributes</title>
          <rect x="5291.922" y="1048.5169" width="50" height="30" fill="#b6cdff"/>
          <rect x="5291.922" y="1048.5169" width="50" height="30" stroke="black" stroke-linecap="round" stroke-linejoin="round" stroke-width="1"/>
          <text transform="translate(5297.922 1054.5169)" fill="black">
            <tspan font-family="Avenir" font-size="13" fill="black" x="0" y="13">sub</tspan>
          </text>
        </g>
        <g id="Graphic_8092">
          <title>Attributes</title>
          <rect x="5341.922" y="1048.5169" width="95" height="30" fill="#b6cdff"/>
          <rect x="5341.922" y="1048.5169" width="95" height="30" stroke="black" stroke-linecap="round" stroke-linejoin="round" stroke-width="1"/>
          <text transform="translate(5347.922 1054.5169)" fill="black">
            <tspan font-family="Avenir" font-size="13" fill="black" x="0" y="13">OP-123456</tspan>
          </text>
        </g>
        <g id="Graphic_8091">
          <title>Attributes</title>
          <rect x="5291.922" y="1078.5169" width="50" height="30" fill="#b6cdff"/>
          <rect x="5291.922" y="1078.5169" width="50" height="30" stroke="black" stroke-linecap="round" stroke-linejoin="round" stroke-width="1"/>
          <text transform="translate(5297.922 1084.5169)" fill="black">
            <tspan font-family="Avenir" font-size="13" fill="black" x="0" y="13">user</tspan>
          </text>
        </g>
        <g id="Graphic_8090">
          <title>Attributes</title>
          <rect x="5341.922" y="1078.5169" width="95" height="30" fill="#b6cdff"/>
          <rect x="5341.922" y="1078.5169" width="95" height="30" stroke="black" stroke-linecap="round" stroke-linejoin="round" stroke-width="1"/>
          <text transform="translate(5347.922 1084.5169)" fill="black">
            <tspan font-family="Avenir" font-size="13" fill="black" x="0" y="13">ABCD-0123</tspan>
          </text>
        </g>
      </g>
      <g id="Graphic_8088">
        <path d="M 5200.078 713.144 L 5200.078 1797 C 5200.078 1799.7614 5197.8395 1802 5195.078 1802 L 5175.078 1802 C 5172.3166 1802 5170.078 1799.7614 5170.078 1797 L 5170.078 713.144 C 5170.078 710.3826 5172.3166 708.144 5175.078 708.144 L 5195.078 708.144 C 5197.8395 708.144 5200.078 710.3826 5200.078 713.144 Z" fill="#d5c0ec"/>
        <path d="M 5200.078 713.144 L 5200.078 1797 C 5200.078 1799.7614 5197.8395 1802 5195.078 1802 L 5175.078 1802 C 5172.3166 1802 5170.078 1799.7614 5170.078 1797 L 5170.078 713.144 C 5170.078 710.3826 5172.3166 708.144 5175.078 708.144 L 5195.078 708.144 C 5197.8395 708.144 5200.078 710.3826 5200.078 713.144 Z" stroke="black" stroke-linecap="round" stroke-linejoin="round" stroke-width="1"/>
        <text transform="translate(5194.578 713.144) rotate(90)" fill="black">
          <tspan font-family="Helvetica" font-weight="bold" font-size="16" fill="black" x="458.77954" y="15">Orchestration Service</tspan>
        </text>
      </g>
      <g id="Graphic_8087">
        <path d="M 5534.364 1148.4 L 5534.364 1638.4 C 5534.364 1641.1614 5532.125 1643.4 5529.364 1643.4 L 5509.364 1643.4 C 5506.602 1643.4 5504.364 1641.1614 5504.364 1638.4 L 5504.364 1148.4 C 5504.364 1145.6386 5506.602 1143.4 5509.364 1143.4 L 5529.364 1143.4 C 5532.125 1143.4 5534.364 1145.6386 5534.364 1148.4 Z" fill="#b6cdff"/>
        <path d="M 5534.364 1148.4 L 5534.364 1638.4 C 5534.364 1641.1614 5532.125 1643.4 5529.364 1643.4 L 5509.364 1643.4 C 5506.602 1643.4 5504.364 1641.1614 5504.364 1638.4 L 5504.364 1148.4 C 5504.364 1145.6386 5506.602 1143.4 5509.364 1143.4 L 5529.364 1143.4 C 5532.125 1143.4 5534.364 1145.6386 5534.364 1148.4 Z" stroke="black" stroke-linecap="round" stroke-linejoin="round" stroke-width="1"/>
        <text transform="translate(5528.864 1148.4) rotate(90)" fill="black">
          <tspan font-family="Helvetica" font-weight="bold" font-size="16" fill="black" x="191.33984" y="15">Token Service</tspan>
        </text>
      </g>
      <g id="Group_8074">
        <g id="Graphic_8083">
          <title>Attributes</title>
          <rect x="4938.241" y="1787.707" width="51.5" height="30" fill="#b6cdff"/>
          <rect x="4938.241" y="1787.707" width="51.5" height="30" stroke="black" stroke-linecap="round" stroke-linejoin="round" stroke-width="1"/>
          <text transform="translate(4944.241 1793.707)" fill="black">
            <tspan font-family="Avenir" font-size="13" fill="black" x="0" y="13">iss</tspan>
          </text>
        </g>
        <g id="Graphic_8082">
          <title>Class Name</title>
          <rect x="4938.241" y="1761.707" width="145" height="26" fill="#b6cdff"/>
          <rect x="4938.241" y="1761.707" width="145" height="26" stroke="black" stroke-linecap="round" stroke-linejoin="round" stroke-width="1"/>
          <text transform="translate(4944.241 1765.707)" fill="black">
            <tspan font-family="Avenir" font-weight="bold" font-size="13" fill="black" x="39.9085" y="13">ID Token</tspan>
          </text>
        </g>
        <g id="Graphic_8081">
          <title>Attributes</title>
          <rect x="4990.241" y="1787.707" width="93" height="30" fill="#b6cdff"/>
          <rect x="4990.241" y="1787.707" width="93" height="30" stroke="black" stroke-linecap="round" stroke-linejoin="round" stroke-width="1"/>
          <text transform="translate(4996.241 1793.707)" fill="black">
            <tspan font-family="Avenir" font-size="13" fill="black" x="0" y="13">hello.coop</tspan>
          </text>
        </g>
        <g id="Graphic_8080">
          <title>Attributes</title>
          <rect x="4938.241" y="1847.707" width="51.5" height="30" fill="#b6cdff"/>
          <rect x="4938.241" y="1847.707" width="51.5" height="30" stroke="black" stroke-linecap="round" stroke-linejoin="round" stroke-width="1"/>
          <text transform="translate(4944.241 1853.707)" fill="black">
            <tspan font-family="Avenir" font-size="13" fill="black" x="0" y="13">aud</tspan>
          </text>
        </g>
        <g id="Graphic_8079">
          <title>Attributes</title>
          <rect x="4990.241" y="1847.707" width="93" height="30" fill="#b6cdff"/>
          <rect x="4990.241" y="1847.707" width="93" height="30" stroke="black" stroke-linecap="round" stroke-linejoin="round" stroke-width="1"/>
          <text transform="translate(4996.241 1853.707)" fill="black">
            <tspan font-family="Avenir" font-size="13" fill="black" x="0" y="13">example.app</tspan>
          </text>
        </g>
        <g id="Graphic_8078">
          <title>Attributes</title>
          <rect x="4938.241" y="1817.707" width="51.5" height="30" fill="#b6cdff"/>
          <rect x="4938.241" y="1817.707" width="51.5" height="30" stroke="black" stroke-linecap="round" stroke-linejoin="round" stroke-width="1"/>
          <text transform="translate(4944.241 1823.707)" fill="black">
            <tspan font-family="Avenir" font-size="13" fill="black" x="0" y="13">sub</tspan>
          </text>
        </g>
        <g id="Graphic_8077">
          <title>Attributes</title>
          <rect x="4990.241" y="1817.707" width="93" height="30" fill="#b6cdff"/>
          <rect x="4990.241" y="1817.707" width="93" height="30" stroke="black" stroke-linecap="round" stroke-linejoin="round" stroke-width="1"/>
          <text transform="translate(4996.241 1823.707)" fill="black">
            <tspan font-family="Avenir" font-size="13" fill="black" x="0" y="13">ABCD-0123</tspan>
          </text>
        </g>
        <g id="Graphic_8076">
          <title>Attributes</title>
          <rect x="4938.241" y="1877.707" width="51.5" height="30" fill="#b6cdff"/>
          <rect x="4938.241" y="1877.707" width="51.5" height="30" stroke="black" stroke-linecap="round" stroke-linejoin="round" stroke-width="1"/>
          <text transform="translate(4944.241 1883.707)" fill="black">
            <tspan font-family="Avenir" font-size="13" fill="black" x="0" y="13">nonce</tspan>
          </text>
        </g>
        <g id="Graphic_8075">
          <title>Attributes</title>
          <rect x="4990.241" y="1877.707" width="93" height="30" fill="#b6cdff"/>
          <rect x="4990.241" y="1877.707" width="93" height="30" stroke="black" stroke-linecap="round" stroke-linejoin="round" stroke-width="1"/>
          <text transform="translate(4996.241 1883.707)" fill="black">
            <tspan font-family="Avenir" font-size="13" fill="black" x="0" y="13">1212121212</tspan>
          </text>
        </g>
      </g>
      <g id="Line_7280">
        <line x1="4906.527" y1="724.58" x2="5147.878" y2="724.58" marker-end="url(#UMLInheritance_Marker)" stroke="black" stroke-linecap="round" stroke-linejoin="round" stroke-width="4"/>
      </g>
      <g id="Group_7271">
        <g id="Graphic_7278">
          <title>Attributes</title>
          <rect x="4977.551" y="734.144" width="50" height="30" fill="#c0ffc0"/>
          <rect x="4977.551" y="734.144" width="50" height="30" stroke="black" stroke-linecap="round" stroke-linejoin="round" stroke-width="1"/>
          <text transform="translate(4983.551 740.144)" fill="black">
            <tspan font-family="Avenir" font-size="13" fill="black" x="0" y="13">iss</tspan>
          </text>
        </g>
        <g id="Graphic_7277">
          <title>Class Name</title>
          <rect x="4977.551" y="708.144" width="145" height="26" fill="#c0ffc0"/>
          <rect x="4977.551" y="708.144" width="145" height="26" stroke="black" stroke-linecap="round" stroke-linejoin="round" stroke-width="1"/>
          <text transform="translate(4983.551 712.144)" fill="black">
            <tspan font-family="Avenir" font-weight="bold" font-size="13" fill="black" x="21.8515" y="13">Request Token</tspan>
          </text>
        </g>
        <g id="Graphic_7276">
          <title>Attributes</title>
          <rect x="5028.31" y="734.144" width="94.24109" height="30" fill="#c0ffc0"/>
          <rect x="5028.31" y="734.144" width="94.24109" height="30" stroke="black" stroke-linecap="round" stroke-linejoin="round" stroke-width="1"/>
          <text transform="translate(5034.31 740.144)" fill="black">
            <tspan font-family="Avenir" font-size="13" fill="black" x="0" y="13">example.app</tspan>
          </text>
        </g>
        <g id="Graphic_7275">
          <title>Attributes</title>
          <rect x="4977.551" y="764.144" width="50" height="30" fill="#c0ffc0"/>
          <rect x="4977.551" y="764.144" width="50" height="30" stroke="black" stroke-linecap="round" stroke-linejoin="round" stroke-width="1"/>
          <text transform="translate(4983.551 770.144)" fill="black">
            <tspan font-family="Avenir" font-size="13" fill="black" x="0" y="13">aud</tspan>
          </text>
        </g>
        <g id="Graphic_7274">
          <title>Attributes</title>
          <rect x="5028.31" y="764.144" width="94.24109" height="30" fill="#c0ffc0"/>
          <rect x="5028.31" y="764.144" width="94.24109" height="30" stroke="black" stroke-linecap="round" stroke-linejoin="round" stroke-width="1"/>
          <text transform="translate(5034.31 770.144)" fill="black">
            <tspan font-family="Avenir" font-size="13" fill="black" x="0" y="13">hello.coop</tspan>
          </text>
        </g>
        <g id="Graphic_7273">
          <title>Attributes</title>
          <rect x="4977.551" y="794.144" width="50" height="30" fill="#c0ffc0"/>
          <rect x="4977.551" y="794.144" width="50" height="30" stroke="black" stroke-linecap="round" stroke-linejoin="round" stroke-width="1"/>
          <text transform="translate(4983.551 800.144)" fill="black">
            <tspan font-family="Avenir" font-size="13" fill="black" x="0" y="13">nonce</tspan>
          </text>
        </g>
        <g id="Graphic_7272">
          <title>Attributes</title>
          <rect x="5028.31" y="794.144" width="94.24109" height="30" fill="#c0ffc0"/>
          <rect x="5028.31" y="794.144" width="94.24109" height="30" stroke="black" stroke-linecap="round" stroke-linejoin="round" stroke-width="1"/>
          <text transform="translate(5034.31 800.144)" fill="black">
            <tspan font-family="Avenir" font-size="13" fill="black" x="0" y="13">1212121212</tspan>
          </text>
        </g>
      </g>
      <g id="Group_7209">
        <g id="Graphic_7218">
          <title>Attributes</title>
          <rect x="5291.922" y="1662.7242" width="50" height="30" fill="#b6cdff"/>
          <rect x="5291.922" y="1662.7242" width="50" height="30" stroke="black" stroke-linecap="round" stroke-linejoin="round" stroke-width="1"/>
          <text transform="translate(5297.922 1668.7242)" fill="black">
            <tspan font-family="Avenir" font-size="13" fill="black" x="0" y="13">iss</tspan>
          </text>
        </g>
        <g id="Graphic_7217">
          <title>Class Name</title>
          <rect x="5291.922" y="1636.7242" width="145" height="26" fill="#b6cdff"/>
          <rect x="5291.922" y="1636.7242" width="145" height="26" stroke="black" stroke-linecap="round" stroke-linejoin="round" stroke-width="1"/>
          <text transform="translate(5297.922 1640.7242)" fill="black">
            <tspan font-family="Avenir" font-weight="bold" font-size="13" fill="black" x="39.9085" y="13">ID Token</tspan>
          </text>
        </g>
        <g id="Graphic_7216">
          <title>Attributes</title>
          <rect x="5341.922" y="1662.7242" width="95" height="30" fill="#b6cdff"/>
          <rect x="5341.922" y="1662.7242" width="95" height="30" stroke="black" stroke-linecap="round" stroke-linejoin="round" stroke-width="1"/>
          <text transform="translate(5347.922 1668.7242)" fill="black">
            <tspan font-family="Avenir" font-size="13" fill="black" x="0" y="13">hello.coop</tspan>
          </text>
        </g>
        <g id="Graphic_7215">
          <title>Attributes</title>
          <rect x="5291.922" y="1722.7242" width="50" height="30" fill="#b6cdff"/>
          <rect x="5291.922" y="1722.7242" width="50" height="30" stroke="black" stroke-linecap="round" stroke-linejoin="round" stroke-width="1"/>
          <text transform="translate(5297.922 1728.7242)" fill="black">
            <tspan font-family="Avenir" font-size="13" fill="black" x="0" y="13">aud</tspan>
          </text>
        </g>
        <g id="Graphic_7214">
          <title>Attributes</title>
          <rect x="5341.922" y="1722.7242" width="95" height="30" fill="#b6cdff"/>
          <rect x="5341.922" y="1722.7242" width="95" height="30" stroke="black" stroke-linecap="round" stroke-linejoin="round" stroke-width="1"/>
          <text transform="translate(5347.922 1728.7242)" fill="black">
            <tspan font-family="Avenir" font-size="13" fill="black" x="0" y="13">example.app</tspan>
          </text>
        </g>
        <g id="Graphic_7213">
          <title>Attributes</title>
          <rect x="5291.922" y="1692.7242" width="50" height="30" fill="#b6cdff"/>
          <rect x="5291.922" y="1692.7242" width="50" height="30" stroke="black" stroke-linecap="round" stroke-linejoin="round" stroke-width="1"/>
          <text transform="translate(5297.922 1698.7242)" fill="black">
            <tspan font-family="Avenir" font-size="13" fill="black" x="0" y="13">sub</tspan>
          </text>
        </g>
        <g id="Graphic_7212">
          <title>Attributes</title>
          <rect x="5341.922" y="1692.7242" width="95" height="30" fill="#b6cdff"/>
          <rect x="5341.922" y="1692.7242" width="95" height="30" stroke="black" stroke-linecap="round" stroke-linejoin="round" stroke-width="1"/>
          <text transform="translate(5347.922 1698.7242)" fill="black">
            <tspan font-family="Avenir" font-size="13" fill="black" x="0" y="13">ABCD-0123</tspan>
          </text>
        </g>
        <g id="Graphic_7211">
          <title>Attributes</title>
          <rect x="5291.922" y="1752.7242" width="50" height="30" fill="#b6cdff"/>
          <rect x="5291.922" y="1752.7242" width="50" height="30" stroke="black" stroke-linecap="round" stroke-linejoin="round" stroke-width="1"/>
          <text transform="translate(5297.922 1758.7242)" fill="black">
            <tspan font-family="Avenir" font-size="13" fill="black" x="0" y="13">nonce</tspan>
          </text>
        </g>
        <g id="Graphic_7210">
          <title>Attributes</title>
          <rect x="5341.922" y="1752.7242" width="95" height="30" fill="#b6cdff"/>
          <rect x="5341.922" y="1752.7242" width="95" height="30" stroke="black" stroke-linecap="round" stroke-linejoin="round" stroke-width="1"/>
          <text transform="translate(5347.922 1758.7242)" fill="black">
            <tspan font-family="Avenir" font-size="13" fill="black" x="0" y="13">1212121212</tspan>
          </text>
        </g>
      </g>
      <g id="Group_7201">
        <g id="Graphic_7208">
          <title>Attributes</title>
          <rect x="5291.922" y="1476.9" width="50" height="30" fill="#c0ffc0"/>
          <rect x="5291.922" y="1476.9" width="50" height="30" stroke="black" stroke-linecap="round" stroke-linejoin="round" stroke-width="1"/>
          <text transform="translate(5297.922 1482.9)" fill="black">
            <tspan font-family="Avenir" font-size="13" fill="black" x="0" y="13">iss</tspan>
          </text>
        </g>
        <g id="Graphic_7207">
          <title>Class Name</title>
          <rect x="5291.922" y="1450.9" width="145" height="26" fill="#c0ffc0"/>
          <rect x="5291.922" y="1450.9" width="145" height="26" stroke="black" stroke-linecap="round" stroke-linejoin="round" stroke-width="1"/>
          <text transform="translate(5297.922 1454.9)" fill="black">
            <tspan font-family="Avenir" font-weight="bold" font-size="13" fill="black" x="21.8515" y="13">Request Token</tspan>
          </text>
        </g>
        <g id="Graphic_7206">
          <title>Attributes</title>
          <rect x="5342.422" y="1476.9" width="94.5" height="30" fill="#c0ffc0"/>
          <rect x="5342.422" y="1476.9" width="94.5" height="30" stroke="black" stroke-linecap="round" stroke-linejoin="round" stroke-width="1"/>
          <text transform="translate(5348.422 1482.9)" fill="black">
            <tspan font-family="Avenir" font-size="13" fill="black" x="0" y="13">example.app</tspan>
          </text>
        </g>
        <g id="Graphic_7205">
          <title>Attributes</title>
          <rect x="5291.922" y="1506.9" width="50" height="30" fill="#c0ffc0"/>
          <rect x="5291.922" y="1506.9" width="50" height="30" stroke="black" stroke-linecap="round" stroke-linejoin="round" stroke-width="1"/>
          <text transform="translate(5297.922 1512.9)" fill="black">
            <tspan font-family="Avenir" font-size="13" fill="black" x="0" y="13">aud</tspan>
          </text>
        </g>
        <g id="Graphic_7204">
          <title>Attributes</title>
          <rect x="5342.422" y="1506.9" width="94.5" height="30" fill="#c0ffc0"/>
          <rect x="5342.422" y="1506.9" width="94.5" height="30" stroke="black" stroke-linecap="round" stroke-linejoin="round" stroke-width="1"/>
          <text transform="translate(5348.422 1512.9)" fill="black">
            <tspan font-family="Avenir" font-size="13" fill="black" x="0" y="13">hello.coop</tspan>
          </text>
        </g>
        <g id="Graphic_7203">
          <title>Attributes</title>
          <rect x="5291.922" y="1536.9" width="50" height="30" fill="#c0ffc0"/>
          <rect x="5291.922" y="1536.9" width="50" height="30" stroke="black" stroke-linecap="round" stroke-linejoin="round" stroke-width="1"/>
          <text transform="translate(5297.922 1542.9)" fill="black">
            <tspan font-family="Avenir" font-size="13" fill="black" x="0" y="13">nonce</tspan>
          </text>
        </g>
        <g id="Graphic_7202">
          <title>Attributes</title>
          <rect x="5342.422" y="1536.9" width="94.5" height="30" fill="#c0ffc0"/>
          <rect x="5342.422" y="1536.9" width="94.5" height="30" stroke="black" stroke-linecap="round" stroke-linejoin="round" stroke-width="1"/>
          <text transform="translate(5348.422 1542.9)" fill="black">
            <tspan font-family="Avenir" font-size="13" fill="black" x="0" y="13">1212121212</tspan>
          </text>
        </g>
      </g>
      <g id="Line_7200">
        <path d="M 5274.7273 1553.9 L 5263.922 1553.9 L 5263.922 1603.2242 C 5270.422 1603.2242 5270.422 1620.2242 5263.922 1620.2242 L 5263.922 1701.98 C 5270.422 1701.98 5270.422 1714.98 5263.922 1714.98 L 5263.922 1767.7242 L 5276.602 1767.7242" marker-end="url(#FilledArrow_Marker)" marker-start="url(#FilledArrow_Marker_2)" stroke="#0076bc" stroke-linecap="round" stroke-linejoin="round" stroke-width="2"/>
      </g>
      <g id="Line_7199">
        <path d="M 5276.602 1491.9 L 5247.9096 1491.9 L 5247.9096 1603.2242 C 5254.4096 1603.2242 5254.4096 1620.2242 5247.9096 1620.2242 L 5247.9096 1701.98 C 5254.4096 1701.98 5254.4096 1714.98 5247.9096 1714.98 L 5247.9096 1737.7242 L 5257.422 1737.7242 C 5257.422 1731.2242 5270.422 1731.2242 5270.422 1737.7242 L 5276.602 1737.7242" marker-end="url(#FilledArrow_Marker)" marker-start="url(#FilledArrow_Marker_2)" stroke="#0076bc" stroke-linecap="round" stroke-linejoin="round" stroke-width="2"/>
      </g>
      <g id="Graphic_7023" filter="url(#Shadow)">
        <title>Node</title>
        <path d="M 4776.527 762.58 L 4776.527 695.08 L 4789.527 687.58 L 4906.527 687.58 L 4906.527 755.08 L 4893.527 762.58 Z" fill="#c0ffc0"/>
        <path d="M 4776.527 762.58 L 4776.527 695.08 L 4789.527 687.58 L 4906.527 687.58 L 4906.527 755.08 L 4893.527 762.58 L 4776.527 762.58 M 4776.527 695.08 L 4893.527 695.08 L 4906.527 687.58 M 4893.527 695.08 L 4893.527 762.58" stroke="black" stroke-linecap="round" stroke-linejoin="round" stroke-width="1"/>
        <text transform="translate(4782.527 717.83)" fill="black">
          <tspan font-family="Avenir" font-weight="bold" font-size="16" fill="black" x="3.9" y="16">example.app</tspan>
        </text>
      </g>
      <g id="Graphic_7021" filter="url(#Shadow)">
        <title>Node</title>
        <path d="M 4769.8 1813 L 4769.8 1745.5 L 4782.8 1738 L 4899.8 1738 L 4899.8 1805.5 L 4886.8 1813 Z" fill="#c0ffc0"/>
        <path d="M 4769.8 1813 L 4769.8 1745.5 L 4782.8 1738 L 4899.8 1738 L 4899.8 1805.5 L 4886.8 1813 L 4769.8 1813 M 4769.8 1745.5 L 4886.8 1745.5 L 4899.8 1738 M 4886.8 1745.5 L 4886.8 1813" stroke="black" stroke-linecap="round" stroke-linejoin="round" stroke-width="1"/>
        <text transform="translate(4775.8 1768.25)" fill="black">
          <tspan font-family="Avenir" font-weight="bold" font-size="16" fill="black" x="3.9" y="16">example.app</tspan>
        </text>
      </g>
      <g id="Graphic_8285">
        <text transform="translate(5194.578 734.144) rotate(90)" fill="black">
          <tspan font-family="Helvetica" font-weight="bold" font-size="16" fill="black" x="0" y="15">Orchestration Service</tspan>
        </text>
      </g>
      <g id="Graphic_8286">
        <text transform="translate(5194.578 1591.1579) rotate(90)" fill="black">
          <tspan font-family="Helvetica" font-weight="bold" font-size="16" fill="black" x="0" y="15">Orchestration Service</tspan>
        </text>
      </g>
      <g id="Line_8407">
        <line x1="5202.009" y1="970.3786" x2="5456.664" y2="970.3786" marker-end="url(#UMLInheritance_Marker)" stroke="black" stroke-linecap="round" stroke-linejoin="round" stroke-width="4"/>
      </g>
      <g id="Line_8433">
        <line x1="4906.6497" y1="896.975" x2="5148.0005" y2="896.975" marker-end="url(#UMLInheritance_Marker)" stroke="black" stroke-linecap="round" stroke-linejoin="round" stroke-width="4"/>
      </g>
      <g id="Graphic_8432" filter="url(#Shadow)">
        <title>Node</title>
        <path d="M 4776.527 933.3514 L 4776.527 837.6351 L 4789.527 827 L 4906.527 827 L 4906.527 922.7163 L 4893.527 933.3514 Z" fill="#ffc0c0"/>
        <path d="M 4776.527 933.3514 L 4776.527 837.6351 L 4789.527 827 L 4906.527 827 L 4906.527 922.7163 L 4893.527 933.3514 L 4776.527 933.3514 M 4776.527 837.6351 L 4893.527 837.6351 L 4906.527 827 M 4893.527 837.6351 L 4893.527 933.3514" stroke="black" stroke-linecap="round" stroke-linejoin="round" stroke-width="1"/>
        <text transform="translate(4782.527 852.4933)" fill="black">
          <tspan font-family="Avenir" font-weight="bold" font-size="16" fill="black" x="23.316" y="16">OpenID</tspan>
          <tspan font-family="Avenir" font-weight="bold" font-size="16" fill="black" x="20.788" y="38">Provider</tspan>
          <tspan font-family="Avenir" font-weight="bold" font-size="16" fill="black" x="8.356" y="60">op.example</tspan>
        </text>
      </g>
      <g id="Group_8424">
        <g id="Graphic_8431">
          <title>Attributes</title>
          <rect x="4977.551" y="909.501" width="50" height="30" fill="#ffc0c0"/>
          <rect x="4977.551" y="909.501" width="50" height="30" stroke="black" stroke-linecap="round" stroke-linejoin="round" stroke-width="1"/>
          <text transform="translate(4983.551 915.501)" fill="black">
            <tspan font-family="Avenir" font-size="13" fill="black" x="0" y="13">iss</tspan>
          </text>
        </g>
        <g id="Graphic_8430">
          <title>Class Name</title>
          <rect x="4977.551" y="883.501" width="145" height="26" fill="#ffc0c0"/>
          <rect x="4977.551" y="883.501" width="145" height="26" stroke="black" stroke-linecap="round" stroke-linejoin="round" stroke-width="1"/>
          <text transform="translate(4983.551 887.501)" fill="black">
            <tspan font-family="Avenir" font-weight="bold" font-size="13" fill="black" x="39.9085" y="13">ID Token</tspan>
          </text>
        </g>
        <g id="Graphic_8429">
          <title>Attributes</title>
          <rect x="5026.051" y="909.501" width="96.5" height="30" fill="#ffc0c0"/>
          <rect x="5026.051" y="909.501" width="96.5" height="30" stroke="black" stroke-linecap="round" stroke-linejoin="round" stroke-width="1"/>
          <text transform="translate(5032.051 915.501)" fill="black">
            <tspan font-family="Avenir" font-size="13" fill="black" x="0" y="13">op.example</tspan>
          </text>
        </g>
        <g id="Graphic_8428">
          <title>Attributes</title>
          <rect x="4977.551" y="969.501" width="50" height="30" fill="#ffc0c0"/>
          <rect x="4977.551" y="969.501" width="50" height="30" stroke="black" stroke-linecap="round" stroke-linejoin="round" stroke-width="1"/>
          <text transform="translate(4983.551 975.501)" fill="black">
            <tspan font-family="Avenir" font-size="13" fill="black" x="0" y="13">aud</tspan>
          </text>
        </g>
        <g id="Graphic_8427">
          <title>Attributes</title>
          <rect x="5026.051" y="969.501" width="96.50003" height="30" fill="#ffc0c0"/>
          <rect x="5026.051" y="969.501" width="96.50003" height="30" stroke="black" stroke-linecap="round" stroke-linejoin="round" stroke-width="1"/>
          <text transform="translate(5032.051 975.501)" fill="black">
            <tspan font-family="Avenir" font-size="13" fill="black" x="0" y="13">hello.coop</tspan>
          </text>
        </g>
        <g id="Graphic_8426">
          <title>Attributes</title>
          <rect x="4977.551" y="939.501" width="50" height="30" fill="#ffc0c0"/>
          <rect x="4977.551" y="939.501" width="50" height="30" stroke="black" stroke-linecap="round" stroke-linejoin="round" stroke-width="1"/>
          <text transform="translate(4983.551 945.501)" fill="black">
            <tspan font-family="Avenir" font-size="13" fill="black" x="0" y="13">sub</tspan>
          </text>
        </g>
        <g id="Graphic_8425">
          <title>Attributes</title>
          <rect x="5026.051" y="939.501" width="96.5" height="30" fill="#ffc0c0"/>
          <rect x="5026.051" y="939.501" width="96.5" height="30" stroke="black" stroke-linecap="round" stroke-linejoin="round" stroke-width="1"/>
          <text transform="translate(5032.051 945.501)" fill="black">
            <tspan font-family="Avenir" font-size="13" fill="black" x="0" y="13">OP-123456</tspan>
          </text>
        </g>
      </g>
      <g id="Line_8423">
        <line x1="5168.169" y1="864.9513" x2="4930.0636" y2="864.9513" marker-end="url(#UMLInheritance_Marker)" stroke="black" stroke-linecap="round" stroke-linejoin="round" stroke-width="4"/>
      </g>
    </g>
    <g id="Canvas_1_circles">
      <title>circles</title>
      <g id="Graphic_8628">
        <circle cx="5111.565" cy="1776.055" r="16.0000255664301" fill="#333"/>
        <circle cx="5111.565" cy="1776.055" r="16.0000255664301" stroke="black" stroke-linecap="round" stroke-linejoin="round" stroke-width="1"/>
        <text transform="translate(5103.765 1768.381)" fill="white">
          <tspan font-family="Helvetica Neue" font-weight="bold" font-size="12" fill="white" x="1.1280002" y="12">99</tspan>
        </text>
      </g>
      <g id="Graphic_8627">
        <circle cx="4953.941" cy="725.144" r="16.00002556643" fill="#333"/>
        <circle cx="4953.941" cy="725.144" r="16.00002556643" stroke="black" stroke-linecap="round" stroke-linejoin="round" stroke-width="1"/>
        <text transform="translate(4946.141 717.47)" fill="white">
          <tspan font-family="Helvetica Neue" font-weight="bold" font-size="12" fill="white" x="1.1280002" y="12">01</tspan>
        </text>
      </g>
      <g id="Graphic_8626">
        <circle cx="5248.746" cy="1167.3564" r="16.0000255664299" fill="#333"/>
        <circle cx="5248.746" cy="1167.3564" r="16.0000255664299" stroke="black" stroke-linecap="round" stroke-linejoin="round" stroke-width="1"/>
        <text transform="translate(5240.946 1159.6824)" fill="white">
          <tspan font-family="Helvetica Neue" font-weight="bold" font-size="12" fill="white" x="1.1280002" y="12">17</tspan>
        </text>
      </g>
      <g id="Graphic_8625">
        <circle cx="5479.593" cy="1297.4" r="16.0000255664299" fill="#333"/>
        <circle cx="5479.593" cy="1297.4" r="16.0000255664299" stroke="black" stroke-linecap="round" stroke-linejoin="round" stroke-width="1"/>
        <text transform="translate(5471.793 1289.726)" fill="white">
          <tspan font-family="Helvetica Neue" font-weight="bold" font-size="12" fill="white" x="1.1280002" y="12">18</tspan>
        </text>
      </g>
      <g id="Graphic_8624">
        <circle cx="5479.593" cy="1612.7242" r="16.0000255664299" fill="#333"/>
        <circle cx="5479.593" cy="1612.7242" r="16.0000255664299" stroke="black" stroke-linecap="round" stroke-linejoin="round" stroke-width="1"/>
        <text transform="translate(5471.793 1605.0502)" fill="white">
          <tspan font-family="Helvetica Neue" font-weight="bold" font-size="12" fill="white" x="1.1280002" y="12">19</tspan>
        </text>
      </g>
      <g id="Graphic_8623">
        <circle cx="5249.422" cy="1681.6068" r="16.0000255664299" fill="#333"/>
        <circle cx="5249.422" cy="1681.6068" r="16.0000255664299" stroke="black" stroke-linecap="round" stroke-linejoin="round" stroke-width="1"/>
        <text transform="translate(5241.622 1673.9328)" fill="white">
          <tspan font-family="Helvetica Neue" font-weight="bold" font-size="12" fill="white" x="1.1280002" y="12">20</tspan>
        </text>
      </g>
      <g id="Graphic_8606">
        <circle cx="5248.746" cy="987.2163" r="16.0000255664297" fill="#333"/>
        <circle cx="5248.746" cy="987.2163" r="16.0000255664297" stroke="black" stroke-linecap="round" stroke-linejoin="round" stroke-width="1"/>
        <text transform="translate(5240.946 979.5423)" fill="white">
          <tspan font-family="Helvetica Neue" font-weight="bold" font-size="12" fill="white" x="1.1280002" y="12">16</tspan>
        </text>
      </g>
      <g id="Graphic_8605">
        <circle cx="4952.291" cy="881.7348" r="16.0000255664299" fill="#333"/>
        <circle cx="4952.291" cy="881.7348" r="16.0000255664299" stroke="black" stroke-linecap="round" stroke-linejoin="round" stroke-width="1"/>
        <text transform="translate(4944.491 874.0607)" fill="white">
          <tspan font-family="Helvetica Neue" font-weight="bold" font-size="12" fill="white" x="1.1280002" y="12">10</tspan>
        </text>
      </g>
    </g>
  </g>
</svg>
