<?xml version="1.0" encoding="utf-8"?>
<svg version="1.2" baseProfile="tiny-ps" id="Layer_1" xmlns="http://www.w3.org/2000/svg" xmlns:xlink="http://www.w3.org/1999/xlink"
	 viewBox="0 0 1024 1024" xml:space="preserve">
	 <title>Hellō</title>
<rect fill="#303030" width="1024" height="1024"/>
<path fill="#E0E0E0" d="M233,597.7c0-43.1,6.6-82,19.8-116.8c13.2-35.5,32-65.4,56.3-89.7c24.3-25,53.5-44.2,87.6-57.4
	C430.8,320,469.1,313,511.5,313s80.7,7,114.7,20.9c34.8,13.2,64.3,32.3,88.7,57.4c24.3,24.3,43.1,54.2,56.3,89.7
	c13.2,34.8,19.8,73.7,19.8,116.8c0,43.1-6.6,82-19.8,116.8c-13.2,34.8-32,64.7-56.3,89.7c-24.3,24.3-53.9,43.5-88.7,57.4
	c-34.1,13.2-72.3,19.8-114.7,19.8s-80.7-6.6-114.7-19.8c-34.1-13.9-63.3-33-87.6-57.4c-24.3-25-43.1-54.9-56.3-89.7
	C239.6,679.8,233,640.9,233,597.7z M381.1,597.7c0,21.6,2.1,42.8,6.3,63.6c4.2,20.2,11.1,38.6,20.9,55.3c10.4,16,24,28.9,40.7,38.6
	c16.7,9.7,37.5,14.6,62.6,14.6c25,0,45.9-4.9,62.6-14.6c17.4-9.7,30.9-22.6,40.7-38.6c10.4-16.7,17.7-35.1,21.9-55.3
	c4.2-20.9,6.3-42.1,6.3-63.6s-2.1-42.8-6.3-63.6s-11.5-39.3-21.9-55.3c-9.7-16-23.3-28.9-40.7-38.6c-16.7-10.4-37.5-15.6-62.6-15.6
	c-25,0-45.9,5.2-62.6,15.6c-16.7,9.7-30.2,22.6-40.7,38.6c-9.7,16-16.7,34.4-20.9,55.3C383.2,555,381.1,576.2,381.1,597.7z M329,143
	h368.2v78.2H329V143z"/>
</svg>
